<svg width="1440" height="768" viewBox="0 0 1440 768" fill="none" xmlns="http://www.w3.org/2000/svg">
<rect width="1440" height="768" fill="white"/>
<rect x="496.5" y="86.5" width="99" height="49" fill="#FFE8D6" stroke="#FF6D00"/>
<rect x="661.5" y="222.5" width="99" height="49" fill="#FFE8D6" stroke="#FF6D00"/>
<rect x="495.5" y="362.5" width="99" height="49" fill="#FFE8D6" stroke="#FF6D00"/>
<rect x="801.5" y="222.5" width="99" height="49" fill="#FFE8D6" stroke="#FF6D00"/>
<rect x="645.5" y="496.5" width="99" height="49" fill="#FFE8D6" stroke="#FF6D00"/>
<rect x="345.5" y="496.5" width="99" height="49" fill="#FFE8D6" stroke="#FF6D00"/>
<rect x="495.5" y="496.5" width="99" height="49" fill="#FFE8D6" stroke="#FF6D00"/>
<rect x="475.707" y="246.711" width="99" height="99" transform="rotate(-45 475.707 246.711)" fill="#FFE8D6" stroke="#FF6D00"/>
<path d="M545.293 176.707C545.683 177.098 546.317 177.098 546.707 176.707L553.071 170.343C553.462 169.953 553.462 169.319 553.071 168.929C552.681 168.538 552.047 168.538 551.657 168.929L546 174.586L540.343 168.929C539.953 168.538 539.319 168.538 538.929 168.929C538.538 169.319 538.538 169.953 538.929 170.343L545.293 176.707ZM545 136V176H547V136H545Z" fill="#FF6D00"/>
<path d="M661.707 247.707C662.098 247.317 662.098 246.683 661.707 246.293L655.343 239.929C654.953 239.538 654.319 239.538 653.929 239.929C653.538 240.319 653.538 240.953 653.929 241.343L659.586 247L653.929 252.657C653.538 253.047 653.538 253.681 653.929 254.071C654.319 254.462 654.953 254.462 655.343 254.071L661.707 247.707ZM475 248L661 248L661 246L475 246L475 248Z" fill="#FF6D00"/>
<path d="M801.707 247.707C802.098 247.317 802.098 246.683 801.707 246.293L795.343 239.929C794.953 239.538 794.319 239.538 793.929 239.929C793.538 240.319 793.538 240.953 793.929 241.343L799.586 247L793.929 252.657C793.538 253.047 793.538 253.681 793.929 254.071C794.319 254.462 794.953 254.462 795.343 254.071L801.707 247.707ZM761 248H801V246H761V248Z" fill="#FF6D00"/>
<path d="M694.293 493.707C694.683 494.098 695.317 494.098 695.707 493.707L702.071 487.343C702.462 486.953 702.462 486.319 702.071 485.929C701.681 485.538 701.047 485.538 700.657 485.929L695 491.586L689.343 485.929C688.953 485.538 688.319 485.538 687.929 485.929C687.538 486.319 687.538 486.953 687.929 487.343L694.293 493.707ZM694 459L694 493L696 493L696 459L694 459Z" fill="#FF6D00"/>
<path d="M543.293 495.707C543.683 496.098 544.317 496.098 544.707 495.707L551.071 489.343C551.462 488.953 551.462 488.319 551.071 487.929C550.681 487.538 550.047 487.538 549.657 487.929L544 493.586L538.343 487.929C537.953 487.538 537.319 487.538 536.929 487.929C536.538 488.319 536.538 488.953 536.929 489.343L543.293 495.707ZM543 412L543 495L545 495L545 412L543 412Z" fill="#FF6D00"/>
<path d="M597.293 386.293C596.902 386.683 596.902 387.317 597.293 387.707L603.657 394.071C604.047 394.462 604.681 394.462 605.071 394.071C605.462 393.681 605.462 393.047 605.071 392.657L599.414 387L605.071 381.343C605.462 380.953 605.462 380.319 605.071 379.929C604.681 379.538 604.047 379.538 603.657 379.929L597.293 386.293ZM851 386L598 386V388L851 388V386Z" fill="#FF6D00"/>
<path d="M394.293 493.707C394.683 494.098 395.317 494.098 395.707 493.707L402.071 487.343C402.462 486.953 402.462 486.319 402.071 485.929C401.681 485.538 401.047 485.538 400.657 485.929L395 491.586L389.343 485.929C388.953 485.538 388.319 485.538 387.929 485.929C387.538 486.319 387.538 486.953 387.929 487.343L394.293 493.707ZM394 459L394 493L396 493L396 459L394 459Z" fill="#FF6D00"/>
<line x1="545" y1="317" x2="545" y2="362.011" stroke="#FF6D00" stroke-width="2"/>
<line x1="852" y1="272" x2="852" y2="387" stroke="#FF6D00" stroke-width="2"/>
<line x1="695" y1="459" x2="395" y2="459" stroke="#FF6D00" stroke-width="2"/>
<path d="M520.579 106V96.13H522.749V104.166H527.313V106H520.579ZM531.166 106.154C530.653 106.154 530.2 106.056 529.808 105.86C529.416 105.664 529.103 105.398 528.87 105.062C528.646 104.726 528.534 104.348 528.534 103.928C528.534 103.433 528.665 103.037 528.926 102.738C529.187 102.439 529.612 102.229 530.2 102.108C530.788 101.977 531.567 101.912 532.538 101.912H533.042V101.674C533.042 101.263 532.949 100.974 532.762 100.806C532.575 100.629 532.258 100.54 531.81 100.54C531.437 100.54 531.04 100.601 530.62 100.722C530.209 100.834 529.799 101.007 529.388 101.24L528.814 99.826C529.057 99.6673 529.351 99.5227 529.696 99.392C530.051 99.2613 530.419 99.1633 530.802 99.098C531.185 99.0233 531.549 98.986 531.894 98.986C532.958 98.986 533.751 99.2287 534.274 99.714C534.797 100.19 535.058 100.932 535.058 101.94V106H533.084V104.964C532.944 105.328 532.706 105.617 532.37 105.832C532.043 106.047 531.642 106.154 531.166 106.154ZM531.642 104.74C532.034 104.74 532.365 104.605 532.636 104.334C532.907 104.063 533.042 103.713 533.042 103.284V103.004H532.552C531.833 103.004 531.325 103.069 531.026 103.2C530.727 103.321 530.578 103.536 530.578 103.844C530.578 104.105 530.667 104.32 530.844 104.488C531.031 104.656 531.297 104.74 531.642 104.74ZM539.589 106.154C538.712 106.154 538.063 105.911 537.643 105.426C537.232 104.941 537.027 104.213 537.027 103.242V99.126H539.141V103.298C539.141 104.11 539.491 104.516 540.191 104.516C540.592 104.516 540.919 104.376 541.171 104.096C541.432 103.807 541.563 103.429 541.563 102.962V99.126H543.677V106H541.619V105.062C541.162 105.79 540.485 106.154 539.589 106.154ZM545.733 106V99.126H547.805V100.134C548.038 99.7607 548.351 99.476 548.743 99.28C549.135 99.084 549.574 98.986 550.059 98.986C550.871 98.986 551.478 99.224 551.879 99.7C552.28 100.167 552.481 100.89 552.481 101.87V106H550.367V101.968C550.367 101.492 550.278 101.151 550.101 100.946C549.924 100.731 549.662 100.624 549.317 100.624C548.869 100.624 548.51 100.764 548.239 101.044C547.978 101.324 547.847 101.697 547.847 102.164V106H545.733ZM557.825 106.154C557.078 106.154 556.425 106.009 555.865 105.72C555.314 105.421 554.89 105.001 554.591 104.46C554.292 103.919 554.143 103.279 554.143 102.542C554.143 101.805 554.292 101.17 554.591 100.638C554.89 100.106 555.314 99.7 555.865 99.42C556.425 99.1307 557.078 98.986 557.825 98.986C558.264 98.986 558.707 99.0513 559.155 99.182C559.603 99.3127 559.967 99.4993 560.247 99.742L559.659 101.198C559.426 101.011 559.164 100.867 558.875 100.764C558.586 100.652 558.306 100.596 558.035 100.596C557.484 100.596 557.055 100.769 556.747 101.114C556.448 101.45 556.299 101.931 556.299 102.556C556.299 103.172 556.448 103.657 556.747 104.012C557.055 104.357 557.484 104.53 558.035 104.53C558.296 104.53 558.572 104.479 558.861 104.376C559.16 104.273 559.426 104.124 559.659 103.928L560.247 105.384C559.967 105.627 559.603 105.818 559.155 105.958C558.707 106.089 558.264 106.154 557.825 106.154ZM561.585 106V96.13H563.699V100.064C563.941 99.7093 564.254 99.4433 564.637 99.266C565.019 99.0793 565.444 98.986 565.911 98.986C567.525 98.986 568.333 99.9473 568.333 101.87V106H566.219V101.968C566.219 101.492 566.13 101.151 565.953 100.946C565.775 100.731 565.514 100.624 565.169 100.624C564.721 100.624 564.361 100.764 564.091 101.044C563.829 101.324 563.699 101.697 563.699 102.164V106H561.585ZM527.475 125.154C526.7 125.154 525.968 125.056 525.277 124.86C524.596 124.664 524.026 124.398 523.569 124.062L524.199 122.354C524.638 122.662 525.137 122.905 525.697 123.082C526.266 123.259 526.859 123.348 527.475 123.348C528.147 123.348 528.628 123.245 528.917 123.04C529.216 122.825 529.365 122.559 529.365 122.242C529.365 121.971 529.262 121.757 529.057 121.598C528.852 121.439 528.492 121.304 527.979 121.192L526.397 120.856C524.633 120.483 523.751 119.568 523.751 118.112C523.751 117.487 523.919 116.941 524.255 116.474C524.591 115.998 525.058 115.629 525.655 115.368C526.262 115.107 526.962 114.976 527.755 114.976C528.436 114.976 529.076 115.074 529.673 115.27C530.27 115.466 530.765 115.741 531.157 116.096L530.527 117.692C529.762 117.085 528.833 116.782 527.741 116.782C527.153 116.782 526.696 116.899 526.369 117.132C526.052 117.356 525.893 117.65 525.893 118.014C525.893 118.285 525.991 118.504 526.187 118.672C526.383 118.84 526.724 118.975 527.209 119.078L528.791 119.414C530.602 119.806 531.507 120.693 531.507 122.074C531.507 122.69 531.339 123.231 531.003 123.698C530.676 124.155 530.21 124.515 529.603 124.776C529.006 125.028 528.296 125.154 527.475 125.154ZM536.5 125.154C535.753 125.154 535.1 125.009 534.54 124.72C533.989 124.421 533.564 124.001 533.266 123.46C532.967 122.919 532.818 122.279 532.818 121.542C532.818 120.805 532.967 120.17 533.266 119.638C533.564 119.106 533.989 118.7 534.54 118.42C535.1 118.131 535.753 117.986 536.5 117.986C536.938 117.986 537.382 118.051 537.83 118.182C538.278 118.313 538.642 118.499 538.922 118.742L538.334 120.198C538.1 120.011 537.839 119.867 537.55 119.764C537.26 119.652 536.98 119.596 536.71 119.596C536.159 119.596 535.73 119.769 535.422 120.114C535.123 120.45 534.974 120.931 534.974 121.556C534.974 122.172 535.123 122.657 535.422 123.012C535.73 123.357 536.159 123.53 536.71 123.53C536.971 123.53 537.246 123.479 537.536 123.376C537.834 123.273 538.1 123.124 538.334 122.928L538.922 124.384C538.642 124.627 538.278 124.818 537.83 124.958C537.382 125.089 536.938 125.154 536.5 125.154ZM540.259 125V118.126H542.331V119.316C542.658 118.513 543.358 118.07 544.431 117.986L545.047 117.944L545.173 119.722L543.983 119.848C542.938 119.951 542.415 120.483 542.415 121.444V125H540.259ZM549.896 125.154C549.084 125.154 548.384 125.009 547.796 124.72C547.217 124.421 546.769 124.006 546.452 123.474C546.144 122.933 545.99 122.298 545.99 121.57C545.99 120.861 546.139 120.24 546.438 119.708C546.746 119.167 547.161 118.747 547.684 118.448C548.216 118.14 548.827 117.986 549.518 117.986C550.516 117.986 551.31 118.303 551.898 118.938C552.486 119.563 552.78 120.413 552.78 121.486V122.018H548.006C548.08 122.559 548.276 122.956 548.594 123.208C548.92 123.451 549.368 123.572 549.938 123.572C550.311 123.572 550.689 123.516 551.072 123.404C551.454 123.292 551.8 123.119 552.108 122.886L552.668 124.3C552.322 124.561 551.898 124.771 551.394 124.93C550.899 125.079 550.4 125.154 549.896 125.154ZM549.602 119.386C549.154 119.386 548.79 119.521 548.51 119.792C548.239 120.063 548.071 120.441 548.006 120.926H551.03C550.974 119.899 550.498 119.386 549.602 119.386ZM557.999 125.154C557.187 125.154 556.487 125.009 555.899 124.72C555.321 124.421 554.873 124.006 554.555 123.474C554.247 122.933 554.093 122.298 554.093 121.57C554.093 120.861 554.243 120.24 554.541 119.708C554.849 119.167 555.265 118.747 555.787 118.448C556.319 118.14 556.931 117.986 557.621 117.986C558.62 117.986 559.413 118.303 560.001 118.938C560.589 119.563 560.883 120.413 560.883 121.486V122.018H556.109C556.184 122.559 556.38 122.956 556.697 123.208C557.024 123.451 557.472 123.572 558.041 123.572C558.415 123.572 558.793 123.516 559.175 123.404C559.558 123.292 559.903 123.119 560.211 122.886L560.771 124.3C560.426 124.561 560.001 124.771 559.497 124.93C559.003 125.079 558.503 125.154 557.999 125.154ZM557.705 119.386C557.257 119.386 556.893 119.521 556.613 119.792C556.343 120.063 556.175 120.441 556.109 120.926H559.133C559.077 119.899 558.601 119.386 557.705 119.386ZM562.533 125V118.126H564.605V119.134C564.838 118.761 565.151 118.476 565.543 118.28C565.935 118.084 566.374 117.986 566.859 117.986C567.671 117.986 568.278 118.224 568.679 118.7C569.08 119.167 569.281 119.89 569.281 120.87V125H567.167V120.968C567.167 120.492 567.078 120.151 566.901 119.946C566.724 119.731 566.462 119.624 566.117 119.624C565.669 119.624 565.31 119.764 565.039 120.044C564.778 120.324 564.647 120.697 564.647 121.164V125H562.533Z" fill="#FF6D00"/>
<path d="M692.937 242V232.13H697.445C698.547 232.13 699.396 232.396 699.993 232.928C700.591 233.46 700.889 234.202 700.889 235.154C700.889 235.891 700.698 236.507 700.315 237.002C699.942 237.487 699.405 237.819 698.705 237.996C699.2 238.145 699.606 238.505 699.923 239.074L701.519 242H699.125L697.417 238.85C697.277 238.598 697.105 238.425 696.899 238.332C696.694 238.229 696.451 238.178 696.171 238.178H695.107V242H692.937ZM695.107 236.61H697.053C698.22 236.61 698.803 236.143 698.803 235.21C698.803 234.286 698.22 233.824 697.053 233.824H695.107V236.61ZM706.302 242.154C705.49 242.154 704.79 242.009 704.202 241.72C703.623 241.421 703.175 241.006 702.858 240.474C702.55 239.933 702.396 239.298 702.396 238.57C702.396 237.861 702.545 237.24 702.844 236.708C703.152 236.167 703.567 235.747 704.09 235.448C704.622 235.14 705.233 234.986 705.924 234.986C706.923 234.986 707.716 235.303 708.304 235.938C708.892 236.563 709.186 237.413 709.186 238.486V239.018H704.412C704.487 239.559 704.683 239.956 705 240.208C705.327 240.451 705.775 240.572 706.344 240.572C706.717 240.572 707.095 240.516 707.478 240.404C707.861 240.292 708.206 240.119 708.514 239.886L709.074 241.3C708.729 241.561 708.304 241.771 707.8 241.93C707.305 242.079 706.806 242.154 706.302 242.154ZM706.008 236.386C705.56 236.386 705.196 236.521 704.916 236.792C704.645 237.063 704.477 237.441 704.412 237.926H707.436C707.38 236.899 706.904 236.386 706.008 236.386ZM713.467 242.154C712.861 242.154 712.296 242.084 711.773 241.944C711.251 241.804 710.817 241.613 710.471 241.37L710.975 239.998C711.321 240.213 711.713 240.385 712.151 240.516C712.599 240.637 713.043 240.698 713.481 240.698C713.873 240.698 714.163 240.637 714.349 240.516C714.536 240.385 714.629 240.217 714.629 240.012C714.629 239.685 714.391 239.48 713.915 239.396L712.445 239.13C711.857 239.027 711.409 238.817 711.101 238.5C710.793 238.183 710.639 237.767 710.639 237.254C710.639 236.787 710.77 236.386 711.031 236.05C711.293 235.714 711.652 235.453 712.109 235.266C712.567 235.079 713.094 234.986 713.691 234.986C714.186 234.986 714.667 235.051 715.133 235.182C715.6 235.303 716.001 235.499 716.337 235.77L715.805 237.128C715.525 236.923 715.189 236.755 714.797 236.624C714.415 236.493 714.055 236.428 713.719 236.428C713.299 236.428 712.996 236.498 712.809 236.638C712.623 236.769 712.529 236.937 712.529 237.142C712.529 237.469 712.749 237.674 713.187 237.758L714.657 238.024C715.264 238.127 715.726 238.332 716.043 238.64C716.361 238.939 716.519 239.349 716.519 239.872C716.519 240.591 716.239 241.151 715.679 241.552C715.119 241.953 714.382 242.154 713.467 242.154ZM721.716 242.154C720.904 242.154 720.204 242.009 719.616 241.72C719.037 241.421 718.589 241.006 718.272 240.474C717.964 239.933 717.81 239.298 717.81 238.57C717.81 237.861 717.959 237.24 718.258 236.708C718.566 236.167 718.981 235.747 719.504 235.448C720.036 235.14 720.647 234.986 721.338 234.986C722.337 234.986 723.13 235.303 723.718 235.938C724.306 236.563 724.6 237.413 724.6 238.486V239.018H719.826C719.901 239.559 720.097 239.956 720.414 240.208C720.741 240.451 721.189 240.572 721.758 240.572C722.131 240.572 722.509 240.516 722.892 240.404C723.275 240.292 723.62 240.119 723.928 239.886L724.488 241.3C724.143 241.561 723.718 241.771 723.214 241.93C722.719 242.079 722.22 242.154 721.716 242.154ZM721.422 236.386C720.974 236.386 720.61 236.521 720.33 236.792C720.059 237.063 719.891 237.441 719.826 237.926H722.85C722.794 236.899 722.318 236.386 721.422 236.386ZM729.583 242.154C727.651 242.154 726.685 241.216 726.685 239.34V236.708H725.383V235.126H726.685V233.11H728.799V235.126H730.829V236.708H728.799V239.256C728.799 239.648 728.887 239.942 729.065 240.138C729.251 240.334 729.545 240.432 729.947 240.432C730.068 240.432 730.194 240.418 730.325 240.39C730.465 240.362 730.614 240.325 730.773 240.278L731.081 241.818C730.885 241.921 730.651 242 730.381 242.056C730.11 242.121 729.844 242.154 729.583 242.154ZM678.649 261V251.13H683.157C684.258 251.13 685.108 251.41 685.705 251.97C686.302 252.521 686.601 253.291 686.601 254.28C686.601 255.269 686.302 256.044 685.705 256.604C685.108 257.164 684.258 257.444 683.157 257.444H680.819V261H678.649ZM680.819 255.764H682.793C683.941 255.764 684.515 255.269 684.515 254.28C684.515 253.309 683.941 252.824 682.793 252.824H680.819V255.764ZM690.193 261.154C689.68 261.154 689.227 261.056 688.835 260.86C688.443 260.664 688.131 260.398 687.897 260.062C687.673 259.726 687.561 259.348 687.561 258.928C687.561 258.433 687.692 258.037 687.953 257.738C688.215 257.439 688.639 257.229 689.227 257.108C689.815 256.977 690.595 256.912 691.565 256.912H692.069V256.674C692.069 256.263 691.976 255.974 691.789 255.806C691.603 255.629 691.285 255.54 690.837 255.54C690.464 255.54 690.067 255.601 689.647 255.722C689.237 255.834 688.826 256.007 688.415 256.24L687.841 254.826C688.084 254.667 688.378 254.523 688.723 254.392C689.078 254.261 689.447 254.163 689.829 254.098C690.212 254.023 690.576 253.986 690.921 253.986C691.985 253.986 692.779 254.229 693.301 254.714C693.824 255.19 694.085 255.932 694.085 256.94V261H692.111V259.964C691.971 260.328 691.733 260.617 691.397 260.832C691.071 261.047 690.669 261.154 690.193 261.154ZM690.669 259.74C691.061 259.74 691.393 259.605 691.663 259.334C691.934 259.063 692.069 258.713 692.069 258.284V258.004H691.579C690.861 258.004 690.352 258.069 690.053 258.2C689.755 258.321 689.605 258.536 689.605 258.844C689.605 259.105 689.694 259.32 689.871 259.488C690.058 259.656 690.324 259.74 690.669 259.74ZM698.714 261.154C698.108 261.154 697.543 261.084 697.02 260.944C696.498 260.804 696.064 260.613 695.718 260.37L696.222 258.998C696.568 259.213 696.96 259.385 697.398 259.516C697.846 259.637 698.29 259.698 698.728 259.698C699.12 259.698 699.41 259.637 699.596 259.516C699.783 259.385 699.876 259.217 699.876 259.012C699.876 258.685 699.638 258.48 699.162 258.396L697.692 258.13C697.104 258.027 696.656 257.817 696.348 257.5C696.04 257.183 695.886 256.767 695.886 256.254C695.886 255.787 696.017 255.386 696.278 255.05C696.54 254.714 696.899 254.453 697.356 254.266C697.814 254.079 698.341 253.986 698.938 253.986C699.433 253.986 699.914 254.051 700.38 254.182C700.847 254.303 701.248 254.499 701.584 254.77L701.052 256.128C700.772 255.923 700.436 255.755 700.044 255.624C699.662 255.493 699.302 255.428 698.966 255.428C698.546 255.428 698.243 255.498 698.056 255.638C697.87 255.769 697.776 255.937 697.776 256.142C697.776 256.469 697.996 256.674 698.434 256.758L699.904 257.024C700.511 257.127 700.973 257.332 701.29 257.64C701.608 257.939 701.766 258.349 701.766 258.872C701.766 259.591 701.486 260.151 700.926 260.552C700.366 260.953 699.629 261.154 698.714 261.154ZM706.025 261.154C705.418 261.154 704.854 261.084 704.331 260.944C703.808 260.804 703.374 260.613 703.029 260.37L703.533 258.998C703.878 259.213 704.27 259.385 704.709 259.516C705.157 259.637 705.6 259.698 706.039 259.698C706.431 259.698 706.72 259.637 706.907 259.516C707.094 259.385 707.187 259.217 707.187 259.012C707.187 258.685 706.949 258.48 706.473 258.396L705.003 258.13C704.415 258.027 703.967 257.817 703.659 257.5C703.351 257.183 703.197 256.767 703.197 256.254C703.197 255.787 703.328 255.386 703.589 255.05C703.85 254.714 704.21 254.453 704.667 254.266C705.124 254.079 705.652 253.986 706.249 253.986C706.744 253.986 707.224 254.051 707.691 254.182C708.158 254.303 708.559 254.499 708.895 254.77L708.363 256.128C708.083 255.923 707.747 255.755 707.355 255.624C706.972 255.493 706.613 255.428 706.277 255.428C705.857 255.428 705.554 255.498 705.367 255.638C705.18 255.769 705.087 255.937 705.087 256.142C705.087 256.469 705.306 256.674 705.745 256.758L707.215 257.024C707.822 257.127 708.284 257.332 708.601 257.64C708.918 257.939 709.077 258.349 709.077 258.872C709.077 259.591 708.797 260.151 708.237 260.552C707.677 260.953 706.94 261.154 706.025 261.154ZM712.513 261L709.713 254.126H711.855L713.493 258.536L715.131 254.126H716.531L718.169 258.592L719.807 254.126H721.837L719.065 261H717.273L715.761 257.094L714.291 261H712.513ZM726.185 261.154C725.448 261.154 724.804 261.009 724.253 260.72C723.712 260.421 723.292 260.006 722.993 259.474C722.695 258.933 722.545 258.293 722.545 257.556C722.545 256.828 722.695 256.198 722.993 255.666C723.292 255.125 723.712 254.709 724.253 254.42C724.804 254.131 725.448 253.986 726.185 253.986C726.923 253.986 727.562 254.131 728.103 254.42C728.654 254.709 729.079 255.125 729.377 255.666C729.685 256.198 729.839 256.828 729.839 257.556C729.839 258.293 729.685 258.933 729.377 259.474C729.079 260.006 728.654 260.421 728.103 260.72C727.562 261.009 726.923 261.154 726.185 261.154ZM726.185 259.572C726.633 259.572 726.997 259.409 727.277 259.082C727.567 258.755 727.711 258.247 727.711 257.556C727.711 256.875 727.567 256.375 727.277 256.058C726.997 255.731 726.633 255.568 726.185 255.568C725.737 255.568 725.373 255.731 725.093 256.058C724.813 256.375 724.673 256.875 724.673 257.556C724.673 258.247 724.813 258.755 725.093 259.082C725.373 259.409 725.737 259.572 726.185 259.572ZM731.546 261V254.126H733.618V255.316C733.944 254.513 734.644 254.07 735.718 253.986L736.334 253.944L736.46 255.722L735.27 255.848C734.224 255.951 733.702 256.483 733.702 257.444V261H731.546ZM740.286 261.154C739.689 261.154 739.161 261.009 738.704 260.72C738.256 260.421 737.906 260.006 737.654 259.474C737.402 258.933 737.276 258.293 737.276 257.556C737.276 256.819 737.402 256.184 737.654 255.652C737.906 255.12 738.256 254.709 738.704 254.42C739.161 254.131 739.689 253.986 740.286 253.986C740.743 253.986 741.163 254.084 741.546 254.28C741.929 254.476 742.218 254.737 742.414 255.064V251.13H744.528V261H742.456V259.964C742.269 260.328 741.98 260.617 741.588 260.832C741.205 261.047 740.771 261.154 740.286 261.154ZM740.916 259.572C741.364 259.572 741.728 259.409 742.008 259.082C742.297 258.755 742.442 258.247 742.442 257.556C742.442 256.875 742.297 256.375 742.008 256.058C741.728 255.731 741.364 255.568 740.916 255.568C740.468 255.568 740.104 255.731 739.824 256.058C739.544 256.375 739.404 256.875 739.404 257.556C739.404 258.247 739.544 258.755 739.824 259.082C740.104 259.409 740.468 259.572 740.916 259.572Z" fill="#FF6D00"/>
<path d="M521.754 382L526.29 372.13H528.04L532.576 382H530.392L529.468 379.858H524.862L523.952 382H521.754ZM527.144 374.44L525.59 378.164H528.754L527.172 374.44H527.144ZM536.273 382.154C535.676 382.154 535.148 382.009 534.691 381.72C534.243 381.421 533.893 381.006 533.641 380.474C533.389 379.933 533.263 379.293 533.263 378.556C533.263 377.819 533.389 377.184 533.641 376.652C533.893 376.12 534.243 375.709 534.691 375.42C535.148 375.131 535.676 374.986 536.273 374.986C536.73 374.986 537.15 375.084 537.533 375.28C537.916 375.476 538.205 375.737 538.401 376.064V372.13H540.515V382H538.443V380.964C538.256 381.328 537.967 381.617 537.575 381.832C537.192 382.047 536.758 382.154 536.273 382.154ZM536.903 380.572C537.351 380.572 537.715 380.409 537.995 380.082C538.284 379.755 538.429 379.247 538.429 378.556C538.429 377.875 538.284 377.375 537.995 377.058C537.715 376.731 537.351 376.568 536.903 376.568C536.455 376.568 536.091 376.731 535.811 377.058C535.531 377.375 535.391 377.875 535.391 378.556C535.391 379.247 535.531 379.755 535.811 380.082C536.091 380.409 536.455 380.572 536.903 380.572ZM542.592 382V375.126H544.664V376.12C544.869 375.765 545.149 375.49 545.504 375.294C545.868 375.089 546.288 374.986 546.764 374.986C547.249 374.986 547.66 375.093 547.996 375.308C548.341 375.523 548.603 375.849 548.78 376.288C548.995 375.877 549.303 375.56 549.704 375.336C550.115 375.103 550.567 374.986 551.062 374.986C551.846 374.986 552.429 375.224 552.812 375.7C553.195 376.167 553.386 376.89 553.386 377.87V382H551.272V377.94C551.272 377.483 551.197 377.151 551.048 376.946C550.908 376.731 550.665 376.624 550.32 376.624C549.919 376.624 549.606 376.764 549.382 377.044C549.158 377.324 549.046 377.721 549.046 378.234V382H546.932V377.94C546.932 377.483 546.857 377.151 546.708 376.946C546.559 376.731 546.316 376.624 545.98 376.624C545.579 376.624 545.266 376.764 545.042 377.044C544.818 377.324 544.706 377.721 544.706 378.234V382H542.592ZM555.341 373.796V371.822H557.623V373.796H555.341ZM555.425 382V375.126H557.539V382H555.425ZM559.591 382V375.126H561.663V376.134C561.897 375.761 562.209 375.476 562.601 375.28C562.993 375.084 563.432 374.986 563.917 374.986C564.729 374.986 565.336 375.224 565.737 375.7C566.139 376.167 566.339 376.89 566.339 377.87V382H564.225V377.968C564.225 377.492 564.137 377.151 563.959 376.946C563.782 376.731 563.521 376.624 563.175 376.624C562.727 376.624 562.368 376.764 562.097 377.044C561.836 377.324 561.705 377.697 561.705 378.164V382H559.591ZM507.501 401V391.13H511.365C513.045 391.13 514.348 391.559 515.272 392.418C516.196 393.267 516.658 394.481 516.658 396.058C516.658 397.635 516.196 398.853 515.272 399.712C514.348 400.571 513.045 401 511.365 401H507.501ZM509.671 399.222H511.24C513.34 399.222 514.39 398.167 514.39 396.058C514.39 393.958 513.34 392.908 511.24 392.908H509.671V399.222ZM520.905 401.154C520.392 401.154 519.939 401.056 519.547 400.86C519.155 400.664 518.843 400.398 518.609 400.062C518.385 399.726 518.273 399.348 518.273 398.928C518.273 398.433 518.404 398.037 518.665 397.738C518.927 397.439 519.351 397.229 519.939 397.108C520.527 396.977 521.307 396.912 522.277 396.912H522.781V396.674C522.781 396.263 522.688 395.974 522.501 395.806C522.315 395.629 521.997 395.54 521.549 395.54C521.176 395.54 520.779 395.601 520.359 395.722C519.949 395.834 519.538 396.007 519.127 396.24L518.553 394.826C518.796 394.667 519.09 394.523 519.435 394.392C519.79 394.261 520.159 394.163 520.541 394.098C520.924 394.023 521.288 393.986 521.633 393.986C522.697 393.986 523.491 394.229 524.013 394.714C524.536 395.19 524.797 395.932 524.797 396.94V401H522.823V399.964C522.683 400.328 522.445 400.617 522.109 400.832C521.783 401.047 521.381 401.154 520.905 401.154ZM521.381 399.74C521.773 399.74 522.105 399.605 522.375 399.334C522.646 399.063 522.781 398.713 522.781 398.284V398.004H522.291C521.573 398.004 521.064 398.069 520.765 398.2C520.467 398.321 520.317 398.536 520.317 398.844C520.317 399.105 520.406 399.32 520.583 399.488C520.77 399.656 521.036 399.74 521.381 399.74ZM529.426 401.154C528.82 401.154 528.255 401.084 527.732 400.944C527.21 400.804 526.776 400.613 526.43 400.37L526.934 398.998C527.28 399.213 527.672 399.385 528.11 399.516C528.558 399.637 529.002 399.698 529.44 399.698C529.832 399.698 530.122 399.637 530.308 399.516C530.495 399.385 530.588 399.217 530.588 399.012C530.588 398.685 530.35 398.48 529.874 398.396L528.404 398.13C527.816 398.027 527.368 397.817 527.06 397.5C526.752 397.183 526.598 396.767 526.598 396.254C526.598 395.787 526.729 395.386 526.99 395.05C527.252 394.714 527.611 394.453 528.068 394.266C528.526 394.079 529.053 393.986 529.65 393.986C530.145 393.986 530.626 394.051 531.092 394.182C531.559 394.303 531.96 394.499 532.296 394.77L531.764 396.128C531.484 395.923 531.148 395.755 530.756 395.624C530.374 395.493 530.014 395.428 529.678 395.428C529.258 395.428 528.955 395.498 528.768 395.638C528.582 395.769 528.488 395.937 528.488 396.142C528.488 396.469 528.708 396.674 529.146 396.758L530.616 397.024C531.223 397.127 531.685 397.332 532.002 397.64C532.32 397.939 532.478 398.349 532.478 398.872C532.478 399.591 532.198 400.151 531.638 400.552C531.078 400.953 530.341 401.154 529.426 401.154ZM534.105 401V391.13H536.219V395.064C536.462 394.709 536.774 394.443 537.157 394.266C537.54 394.079 537.964 393.986 538.431 393.986C540.046 393.986 540.853 394.947 540.853 396.87V401H538.739V396.968C538.739 396.492 538.65 396.151 538.473 395.946C538.296 395.731 538.034 395.624 537.689 395.624C537.241 395.624 536.882 395.764 536.611 396.044C536.35 396.324 536.219 396.697 536.219 397.164V401H534.105ZM547.093 401.154C546.608 401.154 546.169 401.047 545.777 400.832C545.394 400.617 545.11 400.333 544.923 399.978V401H542.851V391.13H544.965V395.05C545.17 394.723 545.46 394.467 545.833 394.28C546.216 394.084 546.636 393.986 547.093 393.986C547.69 393.986 548.213 394.131 548.661 394.42C549.118 394.709 549.473 395.12 549.725 395.652C549.977 396.184 550.103 396.819 550.103 397.556C550.103 398.293 549.977 398.933 549.725 399.474C549.473 400.006 549.118 400.421 548.661 400.72C548.213 401.009 547.69 401.154 547.093 401.154ZM546.463 399.572C546.911 399.572 547.275 399.409 547.555 399.082C547.835 398.755 547.975 398.247 547.975 397.556C547.975 396.875 547.835 396.375 547.555 396.058C547.275 395.731 546.911 395.568 546.463 395.568C546.006 395.568 545.637 395.731 545.357 396.058C545.077 396.375 544.937 396.875 544.937 397.556C544.937 398.247 545.077 398.755 545.357 399.082C545.637 399.409 546.006 399.572 546.463 399.572ZM555.12 401.154C554.383 401.154 553.739 401.009 553.188 400.72C552.647 400.421 552.227 400.006 551.928 399.474C551.629 398.933 551.48 398.293 551.48 397.556C551.48 396.828 551.629 396.198 551.928 395.666C552.227 395.125 552.647 394.709 553.188 394.42C553.739 394.131 554.383 393.986 555.12 393.986C555.857 393.986 556.497 394.131 557.038 394.42C557.589 394.709 558.013 395.125 558.312 395.666C558.62 396.198 558.774 396.828 558.774 397.556C558.774 398.293 558.62 398.933 558.312 399.474C558.013 400.006 557.589 400.421 557.038 400.72C556.497 401.009 555.857 401.154 555.12 401.154ZM555.12 399.572C555.568 399.572 555.932 399.409 556.212 399.082C556.501 398.755 556.646 398.247 556.646 397.556C556.646 396.875 556.501 396.375 556.212 396.058C555.932 395.731 555.568 395.568 555.12 395.568C554.672 395.568 554.308 395.731 554.028 396.058C553.748 396.375 553.608 396.875 553.608 397.556C553.608 398.247 553.748 398.755 554.028 399.082C554.308 399.409 554.672 399.572 555.12 399.572ZM562.804 401.154C562.291 401.154 561.838 401.056 561.446 400.86C561.054 400.664 560.741 400.398 560.508 400.062C560.284 399.726 560.172 399.348 560.172 398.928C560.172 398.433 560.303 398.037 560.564 397.738C560.825 397.439 561.25 397.229 561.838 397.108C562.426 396.977 563.205 396.912 564.176 396.912H564.68V396.674C564.68 396.263 564.587 395.974 564.4 395.806C564.213 395.629 563.896 395.54 563.448 395.54C563.075 395.54 562.678 395.601 562.258 395.722C561.847 395.834 561.437 396.007 561.026 396.24L560.452 394.826C560.695 394.667 560.989 394.523 561.334 394.392C561.689 394.261 562.057 394.163 562.44 394.098C562.823 394.023 563.187 393.986 563.532 393.986C564.596 393.986 565.389 394.229 565.912 394.714C566.435 395.19 566.696 395.932 566.696 396.94V401H564.722V399.964C564.582 400.328 564.344 400.617 564.008 400.832C563.681 401.047 563.28 401.154 562.804 401.154ZM563.28 399.74C563.672 399.74 564.003 399.605 564.274 399.334C564.545 399.063 564.68 398.713 564.68 398.284V398.004H564.19C563.471 398.004 562.963 398.069 562.664 398.2C562.365 398.321 562.216 398.536 562.216 398.844C562.216 399.105 562.305 399.32 562.482 399.488C562.669 399.656 562.935 399.74 563.28 399.74ZM568.693 401V394.126H570.765V395.316C571.092 394.513 571.792 394.07 572.865 393.986L573.481 393.944L573.607 395.722L572.417 395.848C571.372 395.951 570.849 396.483 570.849 397.444V401H568.693ZM577.434 401.154C576.836 401.154 576.309 401.009 575.852 400.72C575.404 400.421 575.054 400.006 574.802 399.474C574.55 398.933 574.424 398.293 574.424 397.556C574.424 396.819 574.55 396.184 574.802 395.652C575.054 395.12 575.404 394.709 575.852 394.42C576.309 394.131 576.836 393.986 577.434 393.986C577.891 393.986 578.311 394.084 578.694 394.28C579.076 394.476 579.366 394.737 579.562 395.064V391.13H581.676V401H579.604V399.964C579.417 400.328 579.128 400.617 578.736 400.832C578.353 401.047 577.919 401.154 577.434 401.154ZM578.064 399.572C578.512 399.572 578.876 399.409 579.156 399.082C579.445 398.755 579.59 398.247 579.59 397.556C579.59 396.875 579.445 396.375 579.156 396.058C578.876 395.731 578.512 395.568 578.064 395.568C577.616 395.568 577.252 395.731 576.972 396.058C576.692 396.375 576.552 396.875 576.552 397.556C576.552 398.247 576.692 398.755 576.972 399.082C577.252 399.409 577.616 399.572 578.064 399.572Z" fill="#FF6D00"/>
<path d="M358.968 516V506.13H363.476C364.578 506.13 365.427 506.396 366.024 506.928C366.622 507.46 366.92 508.202 366.92 509.154C366.92 509.891 366.729 510.507 366.346 511.002C365.973 511.487 365.436 511.819 364.736 511.996C365.231 512.145 365.637 512.505 365.954 513.074L367.55 516H365.156L363.448 512.85C363.308 512.598 363.136 512.425 362.93 512.332C362.725 512.229 362.482 512.178 362.202 512.178H361.138V516H358.968ZM361.138 510.61H363.084C364.251 510.61 364.834 510.143 364.834 509.21C364.834 508.286 364.251 507.824 363.084 507.824H361.138V510.61ZM372.333 516.154C371.521 516.154 370.821 516.009 370.233 515.72C369.654 515.421 369.206 515.006 368.889 514.474C368.581 513.933 368.427 513.298 368.427 512.57C368.427 511.861 368.576 511.24 368.875 510.708C369.183 510.167 369.598 509.747 370.121 509.448C370.653 509.14 371.264 508.986 371.955 508.986C372.954 508.986 373.747 509.303 374.335 509.938C374.923 510.563 375.217 511.413 375.217 512.486V513.018H370.443C370.518 513.559 370.714 513.956 371.031 514.208C371.358 514.451 371.806 514.572 372.375 514.572C372.748 514.572 373.126 514.516 373.509 514.404C373.892 514.292 374.237 514.119 374.545 513.886L375.105 515.3C374.76 515.561 374.335 515.771 373.831 515.93C373.336 516.079 372.837 516.154 372.333 516.154ZM372.039 510.386C371.591 510.386 371.227 510.521 370.947 510.792C370.676 511.063 370.508 511.441 370.443 511.926H373.467C373.411 510.899 372.935 510.386 372.039 510.386ZM379.498 516.154C378.892 516.154 378.327 516.084 377.804 515.944C377.282 515.804 376.848 515.613 376.502 515.37L377.006 513.998C377.352 514.213 377.744 514.385 378.182 514.516C378.63 514.637 379.074 514.698 379.512 514.698C379.904 514.698 380.194 514.637 380.38 514.516C380.567 514.385 380.66 514.217 380.66 514.012C380.66 513.685 380.422 513.48 379.946 513.396L378.476 513.13C377.888 513.027 377.44 512.817 377.132 512.5C376.824 512.183 376.67 511.767 376.67 511.254C376.67 510.787 376.801 510.386 377.062 510.05C377.324 509.714 377.683 509.453 378.14 509.266C378.598 509.079 379.125 508.986 379.722 508.986C380.217 508.986 380.698 509.051 381.164 509.182C381.631 509.303 382.032 509.499 382.368 509.77L381.836 511.128C381.556 510.923 381.22 510.755 380.828 510.624C380.446 510.493 380.086 510.428 379.75 510.428C379.33 510.428 379.027 510.498 378.84 510.638C378.654 510.769 378.56 510.937 378.56 511.142C378.56 511.469 378.78 511.674 379.218 511.758L380.688 512.024C381.295 512.127 381.757 512.332 382.074 512.64C382.392 512.939 382.55 513.349 382.55 513.872C382.55 514.591 382.27 515.151 381.71 515.552C381.15 515.953 380.413 516.154 379.498 516.154ZM387.481 516.154C386.744 516.154 386.1 516.009 385.549 515.72C385.008 515.421 384.588 515.006 384.289 514.474C383.99 513.933 383.841 513.293 383.841 512.556C383.841 511.828 383.99 511.198 384.289 510.666C384.588 510.125 385.008 509.709 385.549 509.42C386.1 509.131 386.744 508.986 387.481 508.986C388.218 508.986 388.858 509.131 389.399 509.42C389.95 509.709 390.374 510.125 390.673 510.666C390.981 511.198 391.135 511.828 391.135 512.556C391.135 513.293 390.981 513.933 390.673 514.474C390.374 515.006 389.95 515.421 389.399 515.72C388.858 516.009 388.218 516.154 387.481 516.154ZM387.481 514.572C387.929 514.572 388.293 514.409 388.573 514.082C388.862 513.755 389.007 513.247 389.007 512.556C389.007 511.875 388.862 511.375 388.573 511.058C388.293 510.731 387.929 510.568 387.481 510.568C387.033 510.568 386.669 510.731 386.389 511.058C386.109 511.375 385.969 511.875 385.969 512.556C385.969 513.247 386.109 513.755 386.389 514.082C386.669 514.409 387.033 514.572 387.481 514.572ZM395.403 516.154C394.517 516.154 393.868 515.925 393.457 515.468C393.047 515.001 392.841 514.311 392.841 513.396V506.13H394.955V513.312C394.955 514.059 395.287 514.432 395.949 514.432C396.052 514.432 396.15 514.427 396.243 514.418C396.346 514.409 396.444 514.39 396.537 514.362L396.509 516C396.155 516.103 395.786 516.154 395.403 516.154ZM400.457 516.154C399.58 516.154 398.931 515.911 398.511 515.426C398.101 514.941 397.895 514.213 397.895 513.242V509.126H400.009V513.298C400.009 514.11 400.359 514.516 401.059 514.516C401.461 514.516 401.787 514.376 402.039 514.096C402.301 513.807 402.431 513.429 402.431 512.962V509.126H404.545V516H402.487V515.062C402.03 515.79 401.353 516.154 400.457 516.154ZM409.975 516.154C408.043 516.154 407.077 515.216 407.077 513.34V510.708H405.775V509.126H407.077V507.11H409.191V509.126H411.221V510.708H409.191V513.256C409.191 513.648 409.28 513.942 409.457 514.138C409.644 514.334 409.938 514.432 410.339 514.432C410.461 514.432 410.587 514.418 410.717 514.39C410.857 514.362 411.007 514.325 411.165 514.278L411.473 515.818C411.277 515.921 411.044 516 410.773 516.056C410.503 516.121 410.237 516.154 409.975 516.154ZM412.597 507.796V505.822H414.879V507.796H412.597ZM412.681 516V509.126H414.795V516H412.681ZM420.151 516.154C419.414 516.154 418.77 516.009 418.219 515.72C417.678 515.421 417.258 515.006 416.959 514.474C416.661 513.933 416.511 513.293 416.511 512.556C416.511 511.828 416.661 511.198 416.959 510.666C417.258 510.125 417.678 509.709 418.219 509.42C418.77 509.131 419.414 508.986 420.151 508.986C420.889 508.986 421.528 509.131 422.069 509.42C422.62 509.709 423.045 510.125 423.343 510.666C423.651 511.198 423.805 511.828 423.805 512.556C423.805 513.293 423.651 513.933 423.343 514.474C423.045 515.006 422.62 515.421 422.069 515.72C421.528 516.009 420.889 516.154 420.151 516.154ZM420.151 514.572C420.599 514.572 420.963 514.409 421.243 514.082C421.533 513.755 421.677 513.247 421.677 512.556C421.677 511.875 421.533 511.375 421.243 511.058C420.963 510.731 420.599 510.568 420.151 510.568C419.703 510.568 419.339 510.731 419.059 511.058C418.779 511.375 418.639 511.875 418.639 512.556C418.639 513.247 418.779 513.755 419.059 514.082C419.339 514.409 419.703 514.572 420.151 514.572ZM425.512 516V509.126H427.584V510.134C427.817 509.761 428.13 509.476 428.522 509.28C428.914 509.084 429.352 508.986 429.838 508.986C430.65 508.986 431.256 509.224 431.658 509.7C432.059 510.167 432.26 510.89 432.26 511.87V516H430.146V511.968C430.146 511.492 430.057 511.151 429.88 510.946C429.702 510.731 429.441 510.624 429.096 510.624C428.648 510.624 428.288 510.764 428.018 511.044C427.756 511.324 427.626 511.697 427.626 512.164V516H425.512ZM359.459 535V525.13H363.967C365.068 525.13 365.917 525.396 366.515 525.928C367.112 526.46 367.411 527.202 367.411 528.154C367.411 528.891 367.219 529.507 366.837 530.002C366.463 530.487 365.927 530.819 365.227 530.996C365.721 531.145 366.127 531.505 366.445 532.074L368.041 535H365.647L363.939 531.85C363.799 531.598 363.626 531.425 363.421 531.332C363.215 531.229 362.973 531.178 362.693 531.178H361.629V535H359.459ZM361.629 529.61H363.575C364.741 529.61 365.325 529.143 365.325 528.21C365.325 527.286 364.741 526.824 363.575 526.824H361.629V529.61ZM372.823 535.154C372.011 535.154 371.311 535.009 370.723 534.72C370.145 534.421 369.697 534.006 369.379 533.474C369.071 532.933 368.917 532.298 368.917 531.57C368.917 530.861 369.067 530.24 369.365 529.708C369.673 529.167 370.089 528.747 370.611 528.448C371.143 528.14 371.755 527.986 372.445 527.986C373.444 527.986 374.237 528.303 374.825 528.938C375.413 529.563 375.707 530.413 375.707 531.486V532.018H370.933C371.008 532.559 371.204 532.956 371.521 533.208C371.848 533.451 372.296 533.572 372.865 533.572C373.239 533.572 373.617 533.516 373.999 533.404C374.382 533.292 374.727 533.119 375.035 532.886L375.595 534.3C375.25 534.561 374.825 534.771 374.321 534.93C373.827 535.079 373.327 535.154 372.823 535.154ZM372.529 529.386C372.081 529.386 371.717 529.521 371.437 529.792C371.167 530.063 370.999 530.441 370.933 530.926H373.957C373.901 529.899 373.425 529.386 372.529 529.386ZM379.989 535.154C379.382 535.154 378.817 535.084 378.295 534.944C377.772 534.804 377.338 534.613 376.993 534.37L377.497 532.998C377.842 533.213 378.234 533.385 378.673 533.516C379.121 533.637 379.564 533.698 380.003 533.698C380.395 533.698 380.684 533.637 380.871 533.516C381.057 533.385 381.151 533.217 381.151 533.012C381.151 532.685 380.913 532.48 380.437 532.396L378.967 532.13C378.379 532.027 377.931 531.817 377.623 531.5C377.315 531.183 377.161 530.767 377.161 530.254C377.161 529.787 377.291 529.386 377.553 529.05C377.814 528.714 378.173 528.453 378.631 528.266C379.088 528.079 379.615 527.986 380.213 527.986C380.707 527.986 381.188 528.051 381.655 528.182C382.121 528.303 382.523 528.499 382.859 528.77L382.327 530.128C382.047 529.923 381.711 529.755 381.319 529.624C380.936 529.493 380.577 529.428 380.241 529.428C379.821 529.428 379.517 529.498 379.331 529.638C379.144 529.769 379.051 529.937 379.051 530.142C379.051 530.469 379.27 530.674 379.709 530.758L381.179 531.024C381.785 531.127 382.247 531.332 382.565 531.64C382.882 531.939 383.041 532.349 383.041 532.872C383.041 533.591 382.761 534.151 382.201 534.552C381.641 534.953 380.903 535.154 379.989 535.154ZM384.667 537.52V528.126H386.739V529.148C386.926 528.793 387.211 528.513 387.593 528.308C387.985 528.093 388.424 527.986 388.909 527.986C389.507 527.986 390.029 528.131 390.477 528.42C390.935 528.709 391.289 529.12 391.541 529.652C391.793 530.184 391.919 530.819 391.919 531.556C391.919 532.293 391.793 532.933 391.541 533.474C391.289 534.006 390.935 534.421 390.477 534.72C390.029 535.009 389.507 535.154 388.909 535.154C388.452 535.154 388.032 535.056 387.649 534.86C387.276 534.664 386.987 534.403 386.781 534.076V537.52H384.667ZM388.279 533.572C388.727 533.572 389.091 533.409 389.371 533.082C389.651 532.755 389.791 532.247 389.791 531.556C389.791 530.875 389.651 530.375 389.371 530.058C389.091 529.731 388.727 529.568 388.279 529.568C387.822 529.568 387.453 529.731 387.173 530.058C386.893 530.375 386.753 530.875 386.753 531.556C386.753 532.247 386.893 532.755 387.173 533.082C387.453 533.409 387.822 533.572 388.279 533.572ZM396.936 535.154C396.199 535.154 395.555 535.009 395.004 534.72C394.463 534.421 394.043 534.006 393.744 533.474C393.446 532.933 393.296 532.293 393.296 531.556C393.296 530.828 393.446 530.198 393.744 529.666C394.043 529.125 394.463 528.709 395.004 528.42C395.555 528.131 396.199 527.986 396.936 527.986C397.674 527.986 398.313 528.131 398.854 528.42C399.405 528.709 399.83 529.125 400.128 529.666C400.436 530.198 400.59 530.828 400.59 531.556C400.59 532.293 400.436 532.933 400.128 533.474C399.83 534.006 399.405 534.421 398.854 534.72C398.313 535.009 397.674 535.154 396.936 535.154ZM396.936 533.572C397.384 533.572 397.748 533.409 398.028 533.082C398.318 532.755 398.462 532.247 398.462 531.556C398.462 530.875 398.318 530.375 398.028 530.058C397.748 529.731 397.384 529.568 396.936 529.568C396.488 529.568 396.124 529.731 395.844 530.058C395.564 530.375 395.424 530.875 395.424 531.556C395.424 532.247 395.564 532.755 395.844 533.082C396.124 533.409 396.488 533.572 396.936 533.572ZM402.296 535V528.126H404.368V529.134C404.602 528.761 404.914 528.476 405.306 528.28C405.698 528.084 406.137 527.986 406.622 527.986C407.434 527.986 408.041 528.224 408.442 528.7C408.844 529.167 409.044 529.89 409.044 530.87V535H406.93V530.968C406.93 530.492 406.842 530.151 406.664 529.946C406.487 529.731 406.226 529.624 405.88 529.624C405.432 529.624 405.073 529.764 404.802 530.044C404.541 530.324 404.41 530.697 404.41 531.164V535H402.296ZM413.675 535.154C413.068 535.154 412.503 535.084 411.981 534.944C411.458 534.804 411.024 534.613 410.679 534.37L411.183 532.998C411.528 533.213 411.92 533.385 412.359 533.516C412.807 533.637 413.25 533.698 413.689 533.698C414.081 533.698 414.37 533.637 414.557 533.516C414.743 533.385 414.837 533.217 414.837 533.012C414.837 532.685 414.599 532.48 414.123 532.396L412.653 532.13C412.065 532.027 411.617 531.817 411.309 531.5C411.001 531.183 410.847 530.767 410.847 530.254C410.847 529.787 410.977 529.386 411.239 529.05C411.5 528.714 411.859 528.453 412.317 528.266C412.774 528.079 413.301 527.986 413.899 527.986C414.393 527.986 414.874 528.051 415.341 528.182C415.807 528.303 416.209 528.499 416.545 528.77L416.013 530.128C415.733 529.923 415.397 529.755 415.005 529.624C414.622 529.493 414.263 529.428 413.927 529.428C413.507 529.428 413.203 529.498 413.017 529.638C412.83 529.769 412.737 529.937 412.737 530.142C412.737 530.469 412.956 530.674 413.395 530.758L414.865 531.024C415.471 531.127 415.933 531.332 416.251 531.64C416.568 531.939 416.727 532.349 416.727 532.872C416.727 533.591 416.447 534.151 415.887 534.552C415.327 534.953 414.589 535.154 413.675 535.154ZM421.923 535.154C421.111 535.154 420.411 535.009 419.823 534.72C419.245 534.421 418.797 534.006 418.479 533.474C418.171 532.933 418.017 532.298 418.017 531.57C418.017 530.861 418.167 530.24 418.465 529.708C418.773 529.167 419.189 528.747 419.711 528.448C420.243 528.14 420.855 527.986 421.545 527.986C422.544 527.986 423.337 528.303 423.925 528.938C424.513 529.563 424.807 530.413 424.807 531.486V532.018H420.033C420.108 532.559 420.304 532.956 420.621 533.208C420.948 533.451 421.396 533.572 421.965 533.572C422.339 533.572 422.717 533.516 423.099 533.404C423.482 533.292 423.827 533.119 424.135 532.886L424.695 534.3C424.35 534.561 423.925 534.771 423.421 534.93C422.927 535.079 422.427 535.154 421.923 535.154ZM421.629 529.386C421.181 529.386 420.817 529.521 420.537 529.792C420.267 530.063 420.099 530.441 420.033 530.926H423.057C423.001 529.899 422.525 529.386 421.629 529.386ZM429.089 535.154C428.482 535.154 427.918 535.084 427.395 534.944C426.872 534.804 426.438 534.613 426.093 534.37L426.597 532.998C426.942 533.213 427.334 533.385 427.773 533.516C428.221 533.637 428.664 533.698 429.103 533.698C429.495 533.698 429.784 533.637 429.971 533.516C430.158 533.385 430.251 533.217 430.251 533.012C430.251 532.685 430.013 532.48 429.537 532.396L428.067 532.13C427.479 532.027 427.031 531.817 426.723 531.5C426.415 531.183 426.261 530.767 426.261 530.254C426.261 529.787 426.392 529.386 426.653 529.05C426.914 528.714 427.274 528.453 427.731 528.266C428.188 528.079 428.716 527.986 429.313 527.986C429.808 527.986 430.288 528.051 430.755 528.182C431.222 528.303 431.623 528.499 431.959 528.77L431.427 530.128C431.147 529.923 430.811 529.755 430.419 529.624C430.036 529.493 429.677 529.428 429.341 529.428C428.921 529.428 428.618 529.498 428.431 529.638C428.244 529.769 428.151 529.937 428.151 530.142C428.151 530.469 428.37 530.674 428.809 530.758L430.279 531.024C430.886 531.127 431.348 531.332 431.665 531.64C431.982 531.939 432.141 532.349 432.141 532.872C432.141 533.591 431.861 534.151 431.301 534.552C430.741 534.953 430.004 535.154 429.089 535.154Z" fill="#FF6D00"/>
<path d="M526.473 516.154C525.073 516.154 524.004 515.795 523.267 515.076C522.539 514.357 522.175 513.289 522.175 511.87V506.13H524.345V511.884C524.345 512.687 524.527 513.293 524.891 513.704C525.255 514.105 525.782 514.306 526.473 514.306C527.882 514.306 528.587 513.499 528.587 511.884V506.13H530.729V511.87C530.729 513.289 530.369 514.357 529.651 515.076C528.932 515.795 527.873 516.154 526.473 516.154ZM532.887 516V509.126H534.959V510.134C535.192 509.761 535.505 509.476 535.897 509.28C536.289 509.084 536.728 508.986 537.213 508.986C538.025 508.986 538.632 509.224 539.033 509.7C539.434 510.167 539.635 510.89 539.635 511.87V516H537.521V511.968C537.521 511.492 537.432 511.151 537.255 510.946C537.078 510.731 536.816 510.624 536.471 510.624C536.023 510.624 535.664 510.764 535.393 511.044C535.132 511.324 535.001 511.697 535.001 512.164V516H532.887ZM541.633 516V509.126H543.705V510.316C544.032 509.513 544.732 509.07 545.805 508.986L546.421 508.944L546.547 510.722L545.357 510.848C544.312 510.951 543.789 511.483 543.789 512.444V516H541.633ZM551.27 516.154C550.458 516.154 549.758 516.009 549.17 515.72C548.591 515.421 548.143 515.006 547.826 514.474C547.518 513.933 547.364 513.298 547.364 512.57C547.364 511.861 547.513 511.24 547.812 510.708C548.12 510.167 548.535 509.747 549.058 509.448C549.59 509.14 550.201 508.986 550.892 508.986C551.89 508.986 552.684 509.303 553.272 509.938C553.86 510.563 554.154 511.413 554.154 512.486V513.018H549.38C549.454 513.559 549.65 513.956 549.968 514.208C550.294 514.451 550.742 514.572 551.312 514.572C551.685 514.572 552.063 514.516 552.446 514.404C552.828 514.292 553.174 514.119 553.482 513.886L554.042 515.3C553.696 515.561 553.272 515.771 552.768 515.93C552.273 516.079 551.774 516.154 551.27 516.154ZM550.976 510.386C550.528 510.386 550.164 510.521 549.884 510.792C549.613 511.063 549.445 511.441 549.38 511.926H552.404C552.348 510.899 551.872 510.386 550.976 510.386ZM558.127 516.154C557.614 516.154 557.161 516.056 556.769 515.86C556.377 515.664 556.065 515.398 555.831 515.062C555.607 514.726 555.495 514.348 555.495 513.928C555.495 513.433 555.626 513.037 555.887 512.738C556.149 512.439 556.573 512.229 557.161 512.108C557.749 511.977 558.529 511.912 559.499 511.912H560.003V511.674C560.003 511.263 559.91 510.974 559.723 510.806C559.537 510.629 559.219 510.54 558.771 510.54C558.398 510.54 558.001 510.601 557.581 510.722C557.171 510.834 556.76 511.007 556.349 511.24L555.775 509.826C556.018 509.667 556.312 509.523 556.657 509.392C557.012 509.261 557.381 509.163 557.763 509.098C558.146 509.023 558.51 508.986 558.855 508.986C559.919 508.986 560.713 509.229 561.235 509.714C561.758 510.19 562.019 510.932 562.019 511.94V516H560.045V514.964C559.905 515.328 559.667 515.617 559.331 515.832C559.005 516.047 558.603 516.154 558.127 516.154ZM558.603 514.74C558.995 514.74 559.327 514.605 559.597 514.334C559.868 514.063 560.003 513.713 560.003 513.284V513.004H559.513C558.795 513.004 558.286 513.069 557.987 513.2C557.689 513.321 557.539 513.536 557.539 513.844C557.539 514.105 557.628 514.32 557.805 514.488C557.992 514.656 558.258 514.74 558.603 514.74ZM566.69 516.154C566.093 516.154 565.566 516.009 565.108 515.72C564.66 515.421 564.31 515.006 564.058 514.474C563.806 513.933 563.68 513.293 563.68 512.556C563.68 511.819 563.806 511.184 564.058 510.652C564.31 510.12 564.66 509.709 565.108 509.42C565.566 509.131 566.093 508.986 566.69 508.986C567.148 508.986 567.568 509.084 567.95 509.28C568.333 509.476 568.622 509.737 568.818 510.064V506.13H570.932V516H568.86V514.964C568.674 515.328 568.384 515.617 567.992 515.832C567.61 516.047 567.176 516.154 566.69 516.154ZM567.32 514.572C567.768 514.572 568.132 514.409 568.412 514.082C568.702 513.755 568.846 513.247 568.846 512.556C568.846 511.875 568.702 511.375 568.412 511.058C568.132 510.731 567.768 510.568 567.32 510.568C566.872 510.568 566.508 510.731 566.228 511.058C565.948 511.375 565.808 511.875 565.808 512.556C565.808 513.247 565.948 513.755 566.228 514.082C566.508 514.409 566.872 514.572 567.32 514.572ZM516.8 535V525.13H520.664C522.344 525.13 523.646 525.559 524.57 526.418C525.494 527.267 525.956 528.481 525.956 530.058C525.956 531.635 525.494 532.853 524.57 533.712C523.646 534.571 522.344 535 520.664 535H516.8ZM518.97 533.222H520.538C522.638 533.222 523.688 532.167 523.688 530.058C523.688 527.958 522.638 526.908 520.538 526.908H518.97V533.222ZM527.796 526.796V524.822H530.078V526.796H527.796ZM527.88 535V528.126H529.994V535H527.88ZM534.678 535.154C534.072 535.154 533.507 535.084 532.984 534.944C532.462 534.804 532.028 534.613 531.682 534.37L532.186 532.998C532.532 533.213 532.924 533.385 533.362 533.516C533.81 533.637 534.254 533.698 534.692 533.698C535.084 533.698 535.374 533.637 535.56 533.516C535.747 533.385 535.84 533.217 535.84 533.012C535.84 532.685 535.602 532.48 535.126 532.396L533.656 532.13C533.068 532.027 532.62 531.817 532.312 531.5C532.004 531.183 531.85 530.767 531.85 530.254C531.85 529.787 531.981 529.386 532.242 529.05C532.504 528.714 532.863 528.453 533.32 528.266C533.778 528.079 534.305 527.986 534.902 527.986C535.397 527.986 535.878 528.051 536.344 528.182C536.811 528.303 537.212 528.499 537.548 528.77L537.016 530.128C536.736 529.923 536.4 529.755 536.008 529.624C535.626 529.493 535.266 529.428 534.93 529.428C534.51 529.428 534.207 529.498 534.02 529.638C533.834 529.769 533.74 529.937 533.74 530.142C533.74 530.469 533.96 530.674 534.398 530.758L535.868 531.024C536.475 531.127 536.937 531.332 537.254 531.64C537.572 531.939 537.73 532.349 537.73 532.872C537.73 533.591 537.45 534.151 536.89 534.552C536.33 534.953 535.593 535.154 534.678 535.154ZM539.357 537.52V528.126H541.429V529.148C541.616 528.793 541.9 528.513 542.283 528.308C542.675 528.093 543.114 527.986 543.599 527.986C544.196 527.986 544.719 528.131 545.167 528.42C545.624 528.709 545.979 529.12 546.231 529.652C546.483 530.184 546.609 530.819 546.609 531.556C546.609 532.293 546.483 532.933 546.231 533.474C545.979 534.006 545.624 534.421 545.167 534.72C544.719 535.009 544.196 535.154 543.599 535.154C543.142 535.154 542.722 535.056 542.339 534.86C541.966 534.664 541.676 534.403 541.471 534.076V537.52H539.357ZM542.969 533.572C543.417 533.572 543.781 533.409 544.061 533.082C544.341 532.755 544.481 532.247 544.481 531.556C544.481 530.875 544.341 530.375 544.061 530.058C543.781 529.731 543.417 529.568 542.969 529.568C542.512 529.568 542.143 529.731 541.863 530.058C541.583 530.375 541.443 530.875 541.443 531.556C541.443 532.247 541.583 532.755 541.863 533.082C542.143 533.409 542.512 533.572 542.969 533.572ZM550.856 535.154C549.978 535.154 549.33 534.911 548.91 534.426C548.499 533.941 548.294 533.213 548.294 532.242V528.126H550.408V532.298C550.408 533.11 550.758 533.516 551.458 533.516C551.859 533.516 552.186 533.376 552.438 533.096C552.699 532.807 552.83 532.429 552.83 531.962V528.126H554.944V535H552.886V534.062C552.428 534.79 551.752 535.154 550.856 535.154ZM560.374 535.154C558.442 535.154 557.476 534.216 557.476 532.34V529.708H556.174V528.126H557.476V526.11H559.59V528.126H561.62V529.708H559.59V532.256C559.59 532.648 559.678 532.942 559.856 533.138C560.042 533.334 560.336 533.432 560.738 533.432C560.859 533.432 560.985 533.418 561.116 533.39C561.256 533.362 561.405 533.325 561.564 533.278L561.872 534.818C561.676 534.921 561.442 535 561.172 535.056C560.901 535.121 560.635 535.154 560.374 535.154ZM566.581 535.154C565.769 535.154 565.069 535.009 564.481 534.72C563.903 534.421 563.455 534.006 563.137 533.474C562.829 532.933 562.675 532.298 562.675 531.57C562.675 530.861 562.825 530.24 563.123 529.708C563.431 529.167 563.847 528.747 564.369 528.448C564.901 528.14 565.513 527.986 566.203 527.986C567.202 527.986 567.995 528.303 568.583 528.938C569.171 529.563 569.465 530.413 569.465 531.486V532.018H564.691C564.766 532.559 564.962 532.956 565.279 533.208C565.606 533.451 566.054 533.572 566.623 533.572C566.997 533.572 567.375 533.516 567.757 533.404C568.14 533.292 568.485 533.119 568.793 532.886L569.353 534.3C569.008 534.561 568.583 534.771 568.079 534.93C567.585 535.079 567.085 535.154 566.581 535.154ZM566.287 529.386C565.839 529.386 565.475 529.521 565.195 529.792C564.925 530.063 564.757 530.441 564.691 530.926H567.715C567.659 529.899 567.183 529.386 566.287 529.386ZM573.747 535.154C573.14 535.154 572.576 535.084 572.053 534.944C571.53 534.804 571.096 534.613 570.751 534.37L571.255 532.998C571.6 533.213 571.992 533.385 572.431 533.516C572.879 533.637 573.322 533.698 573.761 533.698C574.153 533.698 574.442 533.637 574.629 533.516C574.816 533.385 574.909 533.217 574.909 533.012C574.909 532.685 574.671 532.48 574.195 532.396L572.725 532.13C572.137 532.027 571.689 531.817 571.381 531.5C571.073 531.183 570.919 530.767 570.919 530.254C570.919 529.787 571.05 529.386 571.311 529.05C571.572 528.714 571.932 528.453 572.389 528.266C572.846 528.079 573.374 527.986 573.971 527.986C574.466 527.986 574.946 528.051 575.413 528.182C575.88 528.303 576.281 528.499 576.617 528.77L576.085 530.128C575.805 529.923 575.469 529.755 575.077 529.624C574.694 529.493 574.335 529.428 573.999 529.428C573.579 529.428 573.276 529.498 573.089 529.638C572.902 529.769 572.809 529.937 572.809 530.142C572.809 530.469 573.028 530.674 573.467 530.758L574.937 531.024C575.544 531.127 576.006 531.332 576.323 531.64C576.64 531.939 576.799 532.349 576.799 532.872C576.799 533.591 576.519 534.151 575.959 534.552C575.399 534.953 574.662 535.154 573.747 535.154Z" fill="#FF6D00"/>
<path d="M657.113 516V506.13H658.919L662.251 512.192L665.569 506.13H667.347V516H665.373V509.98L662.825 514.516H661.607L659.073 510.022V516H657.113ZM673.157 516.154C672.345 516.154 671.645 516.009 671.057 515.72C670.478 515.421 670.03 515.006 669.713 514.474C669.405 513.933 669.251 513.298 669.251 512.57C669.251 511.861 669.4 511.24 669.699 510.708C670.007 510.167 670.422 509.747 670.945 509.448C671.477 509.14 672.088 508.986 672.779 508.986C673.778 508.986 674.571 509.303 675.159 509.938C675.747 510.563 676.041 511.413 676.041 512.486V513.018H671.267C671.342 513.559 671.538 513.956 671.855 514.208C672.182 514.451 672.63 514.572 673.199 514.572C673.572 514.572 673.95 514.516 674.333 514.404C674.716 514.292 675.061 514.119 675.369 513.886L675.929 515.3C675.584 515.561 675.159 515.771 674.655 515.93C674.16 516.079 673.661 516.154 673.157 516.154ZM672.863 510.386C672.415 510.386 672.051 510.521 671.771 510.792C671.5 511.063 671.332 511.441 671.267 511.926H674.291C674.235 510.899 673.759 510.386 672.863 510.386ZM680.323 516.154C679.716 516.154 679.151 516.084 678.629 515.944C678.106 515.804 677.672 515.613 677.327 515.37L677.831 513.998C678.176 514.213 678.568 514.385 679.007 514.516C679.455 514.637 679.898 514.698 680.337 514.698C680.729 514.698 681.018 514.637 681.205 514.516C681.391 514.385 681.485 514.217 681.485 514.012C681.485 513.685 681.247 513.48 680.771 513.396L679.301 513.13C678.713 513.027 678.265 512.817 677.957 512.5C677.649 512.183 677.495 511.767 677.495 511.254C677.495 510.787 677.625 510.386 677.887 510.05C678.148 509.714 678.507 509.453 678.965 509.266C679.422 509.079 679.949 508.986 680.547 508.986C681.041 508.986 681.522 509.051 681.989 509.182C682.455 509.303 682.857 509.499 683.193 509.77L682.661 511.128C682.381 510.923 682.045 510.755 681.653 510.624C681.27 510.493 680.911 510.428 680.575 510.428C680.155 510.428 679.851 510.498 679.665 510.638C679.478 510.769 679.385 510.937 679.385 511.142C679.385 511.469 679.604 511.674 680.043 511.758L681.513 512.024C682.119 512.127 682.581 512.332 682.899 512.64C683.216 512.939 683.375 513.349 683.375 513.872C683.375 514.591 683.095 515.151 682.535 515.552C681.975 515.953 681.237 516.154 680.323 516.154ZM687.633 516.154C687.027 516.154 686.462 516.084 685.939 515.944C685.417 515.804 684.983 515.613 684.637 515.37L685.141 513.998C685.487 514.213 685.879 514.385 686.317 514.516C686.765 514.637 687.209 514.698 687.647 514.698C688.039 514.698 688.329 514.637 688.515 514.516C688.702 514.385 688.795 514.217 688.795 514.012C688.795 513.685 688.557 513.48 688.081 513.396L686.611 513.13C686.023 513.027 685.575 512.817 685.267 512.5C684.959 512.183 684.805 511.767 684.805 511.254C684.805 510.787 684.936 510.386 685.197 510.05C685.459 509.714 685.818 509.453 686.275 509.266C686.733 509.079 687.26 508.986 687.857 508.986C688.352 508.986 688.833 509.051 689.299 509.182C689.766 509.303 690.167 509.499 690.503 509.77L689.971 511.128C689.691 510.923 689.355 510.755 688.963 510.624C688.581 510.493 688.221 510.428 687.885 510.428C687.465 510.428 687.162 510.498 686.975 510.638C686.789 510.769 686.695 510.937 686.695 511.142C686.695 511.469 686.915 511.674 687.353 511.758L688.823 512.024C689.43 512.127 689.892 512.332 690.209 512.64C690.527 512.939 690.685 513.349 690.685 513.872C690.685 514.591 690.405 515.151 689.845 515.552C689.285 515.953 688.548 516.154 687.633 516.154ZM694.636 516.154C694.123 516.154 693.67 516.056 693.278 515.86C692.886 515.664 692.573 515.398 692.34 515.062C692.116 514.726 692.004 514.348 692.004 513.928C692.004 513.433 692.135 513.037 692.396 512.738C692.657 512.439 693.082 512.229 693.67 512.108C694.258 511.977 695.037 511.912 696.008 511.912H696.512V511.674C696.512 511.263 696.419 510.974 696.232 510.806C696.045 510.629 695.728 510.54 695.28 510.54C694.907 510.54 694.51 510.601 694.09 510.722C693.679 510.834 693.269 511.007 692.858 511.24L692.284 509.826C692.527 509.667 692.821 509.523 693.166 509.392C693.521 509.261 693.889 509.163 694.272 509.098C694.655 509.023 695.019 508.986 695.364 508.986C696.428 508.986 697.221 509.229 697.744 509.714C698.267 510.19 698.528 510.932 698.528 511.94V516H696.554V514.964C696.414 515.328 696.176 515.617 695.84 515.832C695.513 516.047 695.112 516.154 694.636 516.154ZM695.112 514.74C695.504 514.74 695.835 514.605 696.106 514.334C696.377 514.063 696.512 513.713 696.512 513.284V513.004H696.022C695.303 513.004 694.795 513.069 694.496 513.2C694.197 513.321 694.048 513.536 694.048 513.844C694.048 514.105 694.137 514.32 694.314 514.488C694.501 514.656 694.767 514.74 695.112 514.74ZM703.829 518.674C703.166 518.674 702.546 518.604 701.967 518.464C701.398 518.324 700.898 518.105 700.469 517.806L701.043 516.364C701.416 516.597 701.836 516.775 702.303 516.896C702.779 517.027 703.227 517.092 703.647 517.092C704.842 517.092 705.439 516.541 705.439 515.44V514.656C705.252 515.011 704.958 515.295 704.557 515.51C704.156 515.725 703.717 515.832 703.241 515.832C702.625 515.832 702.088 515.692 701.631 515.412C701.174 515.123 700.819 514.721 700.567 514.208C700.315 513.695 700.189 513.093 700.189 512.402C700.189 511.721 700.315 511.123 700.567 510.61C700.819 510.097 701.174 509.7 701.631 509.42C702.088 509.131 702.625 508.986 703.241 508.986C703.736 508.986 704.179 509.093 704.571 509.308C704.963 509.523 705.252 509.807 705.439 510.162V509.126H707.497V515.202C707.497 516.359 707.184 517.227 706.559 517.806C705.934 518.385 705.024 518.674 703.829 518.674ZM703.871 514.25C704.338 514.25 704.711 514.087 704.991 513.76C705.28 513.433 705.425 512.981 705.425 512.402C705.425 511.823 705.28 511.375 704.991 511.058C704.711 510.731 704.338 510.568 703.871 510.568C703.395 510.568 703.017 510.731 702.737 511.058C702.457 511.375 702.317 511.823 702.317 512.402C702.317 512.981 702.457 513.433 702.737 513.76C703.017 514.087 703.395 514.25 703.871 514.25ZM713.128 516.154C712.316 516.154 711.616 516.009 711.028 515.72C710.45 515.421 710.002 515.006 709.684 514.474C709.376 513.933 709.222 513.298 709.222 512.57C709.222 511.861 709.372 511.24 709.67 510.708C709.978 510.167 710.394 509.747 710.916 509.448C711.448 509.14 712.06 508.986 712.75 508.986C713.749 508.986 714.542 509.303 715.13 509.938C715.718 510.563 716.012 511.413 716.012 512.486V513.018H711.238C711.313 513.559 711.509 513.956 711.826 514.208C712.153 514.451 712.601 514.572 713.17 514.572C713.544 514.572 713.922 514.516 714.304 514.404C714.687 514.292 715.032 514.119 715.34 513.886L715.9 515.3C715.555 515.561 715.13 515.771 714.626 515.93C714.132 516.079 713.632 516.154 713.128 516.154ZM712.834 510.386C712.386 510.386 712.022 510.521 711.742 510.792C711.472 511.063 711.304 511.441 711.238 511.926H714.262C714.206 510.899 713.73 510.386 712.834 510.386ZM720.294 516.154C719.687 516.154 719.122 516.084 718.6 515.944C718.077 515.804 717.643 515.613 717.298 515.37L717.802 513.998C718.147 514.213 718.539 514.385 718.978 514.516C719.426 514.637 719.869 514.698 720.308 514.698C720.7 514.698 720.989 514.637 721.176 514.516C721.362 514.385 721.456 514.217 721.456 514.012C721.456 513.685 721.218 513.48 720.742 513.396L719.272 513.13C718.684 513.027 718.236 512.817 717.928 512.5C717.62 512.183 717.466 511.767 717.466 511.254C717.466 510.787 717.596 510.386 717.858 510.05C718.119 509.714 718.478 509.453 718.936 509.266C719.393 509.079 719.92 508.986 720.518 508.986C721.012 508.986 721.493 509.051 721.96 509.182C722.426 509.303 722.828 509.499 723.164 509.77L722.632 511.128C722.352 510.923 722.016 510.755 721.624 510.624C721.241 510.493 720.882 510.428 720.546 510.428C720.126 510.428 719.822 510.498 719.636 510.638C719.449 510.769 719.356 510.937 719.356 511.142C719.356 511.469 719.575 511.674 720.014 511.758L721.484 512.024C722.09 512.127 722.552 512.332 722.87 512.64C723.187 512.939 723.346 513.349 723.346 513.872C723.346 514.591 723.066 515.151 722.506 515.552C721.946 515.953 721.208 516.154 720.294 516.154ZM732.803 516.154C732.075 516.154 731.44 516.037 730.899 515.804C730.367 515.571 729.956 515.249 729.667 514.838C729.378 514.427 729.233 513.947 729.233 513.396C729.233 512.761 729.41 512.215 729.765 511.758C730.12 511.291 730.596 510.89 731.193 510.554L731.207 510.54C730.88 510.204 730.638 509.863 730.479 509.518C730.32 509.163 730.241 508.804 730.241 508.44C730.241 507.955 730.362 507.53 730.605 507.166C730.848 506.793 731.188 506.503 731.627 506.298C732.066 506.083 732.574 505.976 733.153 505.976C733.956 505.976 734.59 506.181 735.057 506.592C735.524 507.003 735.757 507.549 735.757 508.23C735.757 508.743 735.617 509.215 735.337 509.644C735.057 510.064 734.614 510.451 734.007 510.806L735.673 512.514C735.85 512.15 735.986 511.753 736.079 511.324C736.182 510.895 736.247 510.451 736.275 509.994H738.011C737.955 511.422 737.591 512.663 736.919 513.718L739.271 516H736.709L735.771 515.034C735.351 515.389 734.889 515.664 734.385 515.86C733.881 516.056 733.354 516.154 732.803 516.154ZM733.153 507.418C732.854 507.418 732.616 507.507 732.439 507.684C732.262 507.861 732.173 508.095 732.173 508.384C732.173 508.608 732.224 508.818 732.327 509.014C732.439 509.201 732.626 509.434 732.887 509.714C733.316 509.481 733.62 509.257 733.797 509.042C733.974 508.827 734.063 508.585 734.063 508.314C734.063 508.015 733.979 507.791 733.811 507.642C733.652 507.493 733.433 507.418 733.153 507.418ZM732.929 514.516C733.554 514.516 734.105 514.311 734.581 513.9L732.341 511.66C731.669 512.071 731.333 512.593 731.333 513.228C731.333 513.629 731.468 513.947 731.739 514.18C732.019 514.404 732.416 514.516 732.929 514.516ZM653.972 535V525.13H655.582L660.51 531.416V525.13H662.526V535H660.93L655.988 528.7V535H653.972ZM668.055 535.154C667.318 535.154 666.674 535.009 666.123 534.72C665.582 534.421 665.162 534.006 664.863 533.474C664.564 532.933 664.415 532.293 664.415 531.556C664.415 530.828 664.564 530.198 664.863 529.666C665.162 529.125 665.582 528.709 666.123 528.42C666.674 528.131 667.318 527.986 668.055 527.986C668.792 527.986 669.432 528.131 669.973 528.42C670.524 528.709 670.948 529.125 671.247 529.666C671.555 530.198 671.709 530.828 671.709 531.556C671.709 532.293 671.555 532.933 671.247 533.474C670.948 534.006 670.524 534.421 669.973 534.72C669.432 535.009 668.792 535.154 668.055 535.154ZM668.055 533.572C668.503 533.572 668.867 533.409 669.147 533.082C669.436 532.755 669.581 532.247 669.581 531.556C669.581 530.875 669.436 530.375 669.147 530.058C668.867 529.731 668.503 529.568 668.055 529.568C667.607 529.568 667.243 529.731 666.963 530.058C666.683 530.375 666.543 530.875 666.543 531.556C666.543 532.247 666.683 532.755 666.963 533.082C667.243 533.409 667.607 533.572 668.055 533.572ZM676.721 535.154C674.789 535.154 673.823 534.216 673.823 532.34V529.708H672.521V528.126H673.823V526.11H675.937V528.126H677.967V529.708H675.937V532.256C675.937 532.648 676.026 532.942 676.203 533.138C676.39 533.334 676.684 533.432 677.085 533.432C677.206 533.432 677.332 533.418 677.463 533.39C677.603 533.362 677.752 533.325 677.911 533.278L678.219 534.818C678.023 534.921 677.79 535 677.519 535.056C677.248 535.121 676.982 535.154 676.721 535.154ZM679.343 526.796V524.822H681.625V526.796H679.343ZM679.427 535V528.126H681.541V535H679.427ZM688.759 526.796V524.822H691.027V526.796H688.759ZM684.125 535V529.708H682.823V528.126H684.125C684.144 527.155 684.424 526.427 684.965 525.942C685.516 525.447 686.351 525.167 687.471 525.102L688.143 525.06L688.227 526.6L687.709 526.628C687.168 526.656 686.785 526.773 686.561 526.978C686.346 527.174 686.239 527.477 686.239 527.888V528.126H690.943V535H688.829V529.708H686.239V535H684.125ZM696.342 535.154C695.595 535.154 694.942 535.009 694.382 534.72C693.831 534.421 693.406 534.001 693.108 533.46C692.809 532.919 692.66 532.279 692.66 531.542C692.66 530.805 692.809 530.17 693.108 529.638C693.406 529.106 693.831 528.7 694.382 528.42C694.942 528.131 695.595 527.986 696.342 527.986C696.78 527.986 697.224 528.051 697.672 528.182C698.12 528.313 698.484 528.499 698.764 528.742L698.176 530.198C697.942 530.011 697.681 529.867 697.392 529.764C697.102 529.652 696.822 529.596 696.552 529.596C696.001 529.596 695.572 529.769 695.264 530.114C694.965 530.45 694.816 530.931 694.816 531.556C694.816 532.172 694.965 532.657 695.264 533.012C695.572 533.357 696.001 533.53 696.552 533.53C696.813 533.53 697.088 533.479 697.378 533.376C697.676 533.273 697.942 533.124 698.176 532.928L698.764 534.384C698.484 534.627 698.12 534.818 697.672 534.958C697.224 535.089 696.78 535.154 696.342 535.154ZM702.398 535.154C701.884 535.154 701.432 535.056 701.04 534.86C700.648 534.664 700.335 534.398 700.102 534.062C699.878 533.726 699.766 533.348 699.766 532.928C699.766 532.433 699.896 532.037 700.158 531.738C700.419 531.439 700.844 531.229 701.432 531.108C702.02 530.977 702.799 530.912 703.77 530.912H704.274V530.674C704.274 530.263 704.18 529.974 703.994 529.806C703.807 529.629 703.49 529.54 703.042 529.54C702.668 529.54 702.272 529.601 701.852 529.722C701.441 529.834 701.03 530.007 700.62 530.24L700.046 528.826C700.288 528.667 700.582 528.523 700.928 528.392C701.282 528.261 701.651 528.163 702.034 528.098C702.416 528.023 702.78 527.986 703.126 527.986C704.19 527.986 704.983 528.229 705.506 528.714C706.028 529.19 706.29 529.932 706.29 530.94V535H704.316V533.964C704.176 534.328 703.938 534.617 703.602 534.832C703.275 535.047 702.874 535.154 702.398 535.154ZM702.874 533.74C703.266 533.74 703.597 533.605 703.868 533.334C704.138 533.063 704.274 532.713 704.274 532.284V532.004H703.784C703.065 532.004 702.556 532.069 702.258 532.2C701.959 532.321 701.81 532.536 701.81 532.844C701.81 533.105 701.898 533.32 702.076 533.488C702.262 533.656 702.528 533.74 702.874 533.74ZM711.661 535.154C709.729 535.154 708.763 534.216 708.763 532.34V529.708H707.461V528.126H708.763V526.11H710.877V528.126H712.907V529.708H710.877V532.256C710.877 532.648 710.965 532.942 711.143 533.138C711.329 533.334 711.623 533.432 712.025 533.432C712.146 533.432 712.272 533.418 712.403 533.39C712.543 533.362 712.692 533.325 712.851 533.278L713.159 534.818C712.963 534.921 712.729 535 712.459 535.056C712.188 535.121 711.922 535.154 711.661 535.154ZM714.283 526.796V524.822H716.565V526.796H714.283ZM714.367 535V528.126H716.481V535H714.367ZM721.837 535.154C721.1 535.154 720.456 535.009 719.905 534.72C719.364 534.421 718.944 534.006 718.645 533.474C718.346 532.933 718.197 532.293 718.197 531.556C718.197 530.828 718.346 530.198 718.645 529.666C718.944 529.125 719.364 528.709 719.905 528.42C720.456 528.131 721.1 527.986 721.837 527.986C722.574 527.986 723.214 528.131 723.755 528.42C724.306 528.709 724.73 529.125 725.029 529.666C725.337 530.198 725.491 530.828 725.491 531.556C725.491 532.293 725.337 532.933 725.029 533.474C724.73 534.006 724.306 534.421 723.755 534.72C723.214 535.009 722.574 535.154 721.837 535.154ZM721.837 533.572C722.285 533.572 722.649 533.409 722.929 533.082C723.218 532.755 723.363 532.247 723.363 531.556C723.363 530.875 723.218 530.375 722.929 530.058C722.649 529.731 722.285 529.568 721.837 529.568C721.389 529.568 721.025 529.731 720.745 530.058C720.465 530.375 720.325 530.875 720.325 531.556C720.325 532.247 720.465 532.755 720.745 533.082C721.025 533.409 721.389 533.572 721.837 533.572ZM727.197 535V528.126H729.269V529.134C729.502 528.761 729.815 528.476 730.207 528.28C730.599 528.084 731.038 527.986 731.523 527.986C732.335 527.986 732.942 528.224 733.343 528.7C733.744 529.167 733.945 529.89 733.945 530.87V535H731.831V530.968C731.831 530.492 731.742 530.151 731.565 529.946C731.388 529.731 731.126 529.624 730.781 529.624C730.333 529.624 729.974 529.764 729.703 530.044C729.442 530.324 729.311 530.697 729.311 531.164V535H727.197ZM738.575 535.154C737.969 535.154 737.404 535.084 736.881 534.944C736.359 534.804 735.925 534.613 735.579 534.37L736.083 532.998C736.429 533.213 736.821 533.385 737.259 533.516C737.707 533.637 738.151 533.698 738.589 533.698C738.981 533.698 739.271 533.637 739.457 533.516C739.644 533.385 739.737 533.217 739.737 533.012C739.737 532.685 739.499 532.48 739.023 532.396L737.553 532.13C736.965 532.027 736.517 531.817 736.209 531.5C735.901 531.183 735.747 530.767 735.747 530.254C735.747 529.787 735.878 529.386 736.139 529.05C736.401 528.714 736.76 528.453 737.217 528.266C737.675 528.079 738.202 527.986 738.799 527.986C739.294 527.986 739.775 528.051 740.241 528.182C740.708 528.303 741.109 528.499 741.445 528.77L740.913 530.128C740.633 529.923 740.297 529.755 739.905 529.624C739.523 529.493 739.163 529.428 738.827 529.428C738.407 529.428 738.104 529.498 737.917 529.638C737.731 529.769 737.637 529.937 737.637 530.142C737.637 530.469 737.857 530.674 738.295 530.758L739.765 531.024C740.372 531.127 740.834 531.332 741.151 531.64C741.469 531.939 741.627 532.349 741.627 532.872C741.627 533.591 741.347 534.151 740.787 534.552C740.227 534.953 739.49 535.154 738.575 535.154Z" fill="#FF6D00"/>
<path d="M833.094 242V232.13H839.856V233.824H835.166V236.134H839.548V237.842H835.166V240.306H839.856V242H833.094ZM841.837 242V235.126H843.909V236.12C844.114 235.765 844.394 235.49 844.749 235.294C845.113 235.089 845.533 234.986 846.009 234.986C846.494 234.986 846.905 235.093 847.241 235.308C847.586 235.523 847.848 235.849 848.025 236.288C848.24 235.877 848.548 235.56 848.949 235.336C849.36 235.103 849.812 234.986 850.307 234.986C851.091 234.986 851.674 235.224 852.057 235.7C852.44 236.167 852.631 236.89 852.631 237.87V242H850.517V237.94C850.517 237.483 850.442 237.151 850.293 236.946C850.153 236.731 849.91 236.624 849.565 236.624C849.164 236.624 848.851 236.764 848.627 237.044C848.403 237.324 848.291 237.721 848.291 238.234V242H846.177V237.94C846.177 237.483 846.102 237.151 845.953 236.946C845.804 236.731 845.561 236.624 845.225 236.624C844.824 236.624 844.511 236.764 844.287 237.044C844.063 237.324 843.951 237.721 843.951 238.234V242H841.837ZM856.994 242.154C856.481 242.154 856.028 242.056 855.636 241.86C855.244 241.664 854.932 241.398 854.698 241.062C854.474 240.726 854.362 240.348 854.362 239.928C854.362 239.433 854.493 239.037 854.754 238.738C855.016 238.439 855.44 238.229 856.028 238.108C856.616 237.977 857.396 237.912 858.366 237.912H858.87V237.674C858.87 237.263 858.777 236.974 858.59 236.806C858.404 236.629 858.086 236.54 857.638 236.54C857.265 236.54 856.868 236.601 856.448 236.722C856.038 236.834 855.627 237.007 855.216 237.24L854.642 235.826C854.885 235.667 855.179 235.523 855.524 235.392C855.879 235.261 856.248 235.163 856.63 235.098C857.013 235.023 857.377 234.986 857.722 234.986C858.786 234.986 859.58 235.229 860.102 235.714C860.625 236.19 860.886 236.932 860.886 237.94V242H858.912V240.964C858.772 241.328 858.534 241.617 858.198 241.832C857.872 242.047 857.47 242.154 856.994 242.154ZM857.47 240.74C857.862 240.74 858.194 240.605 858.464 240.334C858.735 240.063 858.87 239.713 858.87 239.284V239.004H858.38C857.662 239.004 857.153 239.069 856.854 239.2C856.556 239.321 856.406 239.536 856.406 239.844C856.406 240.105 856.495 240.32 856.672 240.488C856.859 240.656 857.125 240.74 857.47 240.74ZM862.799 233.796V231.822H865.081V233.796H862.799ZM862.883 242V235.126H864.997V242H862.883ZM869.611 242.154C868.725 242.154 868.076 241.925 867.665 241.468C867.255 241.001 867.049 240.311 867.049 239.396V232.13H869.163V239.312C869.163 240.059 869.495 240.432 870.157 240.432C870.26 240.432 870.358 240.427 870.451 240.418C870.554 240.409 870.652 240.39 870.745 240.362L870.717 242C870.363 242.103 869.994 242.154 869.611 242.154ZM811.883 261.154C810.819 261.154 809.909 260.944 809.153 260.524C808.397 260.104 807.814 259.516 807.403 258.76C807.002 257.995 806.801 257.094 806.801 256.058C806.801 255.031 807.002 254.14 807.403 253.384C807.814 252.619 808.397 252.026 809.153 251.606C809.909 251.186 810.819 250.976 811.883 250.976C812.537 250.976 813.162 251.079 813.759 251.284C814.357 251.489 814.847 251.769 815.229 252.124L814.557 253.846C814.137 253.519 813.713 253.281 813.283 253.132C812.863 252.973 812.42 252.894 811.953 252.894C811.011 252.894 810.297 253.169 809.811 253.72C809.335 254.261 809.097 255.041 809.097 256.058C809.097 257.075 809.335 257.859 809.811 258.41C810.297 258.961 811.011 259.236 811.953 259.236C812.42 259.236 812.863 259.161 813.283 259.012C813.713 258.853 814.137 258.611 814.557 258.284L815.229 260.006C814.847 260.351 814.357 260.631 813.759 260.846C813.162 261.051 812.537 261.154 811.883 261.154ZM819.702 261.154C818.964 261.154 818.32 261.009 817.77 260.72C817.228 260.421 816.808 260.006 816.51 259.474C816.211 258.933 816.062 258.293 816.062 257.556C816.062 256.828 816.211 256.198 816.51 255.666C816.808 255.125 817.228 254.709 817.77 254.42C818.32 254.131 818.964 253.986 819.702 253.986C820.439 253.986 821.078 254.131 821.62 254.42C822.17 254.709 822.595 255.125 822.894 255.666C823.202 256.198 823.356 256.828 823.356 257.556C823.356 258.293 823.202 258.933 822.894 259.474C822.595 260.006 822.17 260.421 821.62 260.72C821.078 261.009 820.439 261.154 819.702 261.154ZM819.702 259.572C820.15 259.572 820.514 259.409 820.794 259.082C821.083 258.755 821.228 258.247 821.228 257.556C821.228 256.875 821.083 256.375 820.794 256.058C820.514 255.731 820.15 255.568 819.702 255.568C819.254 255.568 818.89 255.731 818.61 256.058C818.33 256.375 818.19 256.875 818.19 257.556C818.19 258.247 818.33 258.755 818.61 259.082C818.89 259.409 819.254 259.572 819.702 259.572ZM825.062 261V254.126H827.134V255.134C827.367 254.761 827.68 254.476 828.072 254.28C828.464 254.084 828.902 253.986 829.388 253.986C830.2 253.986 830.806 254.224 831.208 254.7C831.609 255.167 831.81 255.89 831.81 256.87V261H829.696V256.968C829.696 256.492 829.607 256.151 829.43 255.946C829.252 255.731 828.991 255.624 828.646 255.624C828.198 255.624 827.838 255.764 827.568 256.044C827.306 256.324 827.176 256.697 827.176 257.164V261H825.062ZM838.974 252.796V250.822H841.242V252.796H838.974ZM834.34 261V255.708H833.038V254.126H834.34C834.359 253.155 834.639 252.427 835.18 251.942C835.731 251.447 836.566 251.167 837.686 251.102L838.358 251.06L838.442 252.6L837.924 252.628C837.383 252.656 837 252.773 836.776 252.978C836.561 253.174 836.454 253.477 836.454 253.888V254.126H841.158V261H839.044V255.708H836.454V261H834.34ZM843.21 261V254.126H845.282V255.316C845.609 254.513 846.309 254.07 847.382 253.986L847.998 253.944L848.124 255.722L846.934 255.848C845.889 255.951 845.366 256.483 845.366 257.444V261H843.21ZM849.428 261V254.126H851.5V255.12C851.705 254.765 851.985 254.49 852.34 254.294C852.704 254.089 853.124 253.986 853.6 253.986C854.085 253.986 854.496 254.093 854.832 254.308C855.177 254.523 855.439 254.849 855.616 255.288C855.831 254.877 856.139 254.56 856.54 254.336C856.951 254.103 857.403 253.986 857.898 253.986C858.682 253.986 859.265 254.224 859.648 254.7C860.031 255.167 860.222 255.89 860.222 256.87V261H858.108V256.94C858.108 256.483 858.033 256.151 857.884 255.946C857.744 255.731 857.501 255.624 857.156 255.624C856.755 255.624 856.442 255.764 856.218 256.044C855.994 256.324 855.882 256.721 855.882 257.234V261H853.768V256.94C853.768 256.483 853.693 256.151 853.544 255.946C853.395 255.731 853.152 255.624 852.816 255.624C852.415 255.624 852.102 255.764 851.878 256.044C851.654 256.324 851.542 256.721 851.542 257.234V261H849.428ZM864.585 261.154C864.072 261.154 863.619 261.056 863.227 260.86C862.835 260.664 862.523 260.398 862.289 260.062C862.065 259.726 861.953 259.348 861.953 258.928C861.953 258.433 862.084 258.037 862.345 257.738C862.607 257.439 863.031 257.229 863.619 257.108C864.207 256.977 864.987 256.912 865.957 256.912H866.461V256.674C866.461 256.263 866.368 255.974 866.181 255.806C865.995 255.629 865.677 255.54 865.229 255.54C864.856 255.54 864.459 255.601 864.039 255.722C863.629 255.834 863.218 256.007 862.807 256.24L862.233 254.826C862.476 254.667 862.77 254.523 863.115 254.392C863.47 254.261 863.839 254.163 864.221 254.098C864.604 254.023 864.968 253.986 865.313 253.986C866.377 253.986 867.171 254.229 867.693 254.714C868.216 255.19 868.477 255.932 868.477 256.94V261H866.503V259.964C866.363 260.328 866.125 260.617 865.789 260.832C865.463 261.047 865.061 261.154 864.585 261.154ZM865.061 259.74C865.453 259.74 865.785 259.605 866.055 259.334C866.326 259.063 866.461 258.713 866.461 258.284V258.004H865.971C865.253 258.004 864.744 258.069 864.445 258.2C864.147 258.321 863.997 258.536 863.997 258.844C863.997 259.105 864.086 259.32 864.263 259.488C864.45 259.656 864.716 259.74 865.061 259.74ZM873.848 261.154C871.916 261.154 870.95 260.216 870.95 258.34V255.708H869.648V254.126H870.95V252.11H873.064V254.126H875.094V255.708H873.064V258.256C873.064 258.648 873.153 258.942 873.33 259.138C873.517 259.334 873.811 259.432 874.212 259.432C874.334 259.432 874.46 259.418 874.59 259.39C874.73 259.362 874.88 259.325 875.038 259.278L875.346 260.818C875.15 260.921 874.917 261 874.646 261.056C874.376 261.121 874.11 261.154 873.848 261.154ZM876.47 252.796V250.822H878.752V252.796H876.47ZM876.554 261V254.126H878.668V261H876.554ZM884.025 261.154C883.287 261.154 882.643 261.009 882.093 260.72C881.551 260.421 881.131 260.006 880.833 259.474C880.534 258.933 880.385 258.293 880.385 257.556C880.385 256.828 880.534 256.198 880.833 255.666C881.131 255.125 881.551 254.709 882.093 254.42C882.643 254.131 883.287 253.986 884.025 253.986C884.762 253.986 885.401 254.131 885.943 254.42C886.493 254.709 886.918 255.125 887.217 255.666C887.525 256.198 887.679 256.828 887.679 257.556C887.679 258.293 887.525 258.933 887.217 259.474C886.918 260.006 886.493 260.421 885.943 260.72C885.401 261.009 884.762 261.154 884.025 261.154ZM884.025 259.572C884.473 259.572 884.837 259.409 885.117 259.082C885.406 258.755 885.551 258.247 885.551 257.556C885.551 256.875 885.406 256.375 885.117 256.058C884.837 255.731 884.473 255.568 884.025 255.568C883.577 255.568 883.213 255.731 882.933 256.058C882.653 256.375 882.513 256.875 882.513 257.556C882.513 258.247 882.653 258.755 882.933 259.082C883.213 259.409 883.577 259.572 884.025 259.572ZM889.385 261V254.126H891.457V255.134C891.69 254.761 892.003 254.476 892.395 254.28C892.787 254.084 893.225 253.986 893.711 253.986C894.523 253.986 895.129 254.224 895.531 254.7C895.932 255.167 896.133 255.89 896.133 256.87V261H894.019V256.968C894.019 256.492 893.93 256.151 893.753 255.946C893.575 255.731 893.314 255.624 892.969 255.624C892.521 255.624 892.161 255.764 891.891 256.044C891.629 256.324 891.499 256.697 891.499 257.164V261H889.385Z" fill="#FF6D00"/>
<path d="M535.565 212.154C534.79 212.154 534.058 212.056 533.367 211.86C532.686 211.664 532.116 211.398 531.659 211.062L532.289 209.354C532.728 209.662 533.227 209.905 533.787 210.082C534.356 210.259 534.949 210.348 535.565 210.348C536.237 210.348 536.718 210.245 537.007 210.04C537.306 209.825 537.455 209.559 537.455 209.242C537.455 208.971 537.352 208.757 537.147 208.598C536.942 208.439 536.582 208.304 536.069 208.192L534.487 207.856C532.723 207.483 531.841 206.568 531.841 205.112C531.841 204.487 532.009 203.941 532.345 203.474C532.681 202.998 533.148 202.629 533.745 202.368C534.352 202.107 535.052 201.976 535.845 201.976C536.526 201.976 537.166 202.074 537.763 202.27C538.36 202.466 538.855 202.741 539.247 203.096L538.617 204.692C537.852 204.085 536.923 203.782 535.831 203.782C535.243 203.782 534.786 203.899 534.459 204.132C534.142 204.356 533.983 204.65 533.983 205.014C533.983 205.285 534.081 205.504 534.277 205.672C534.473 205.84 534.814 205.975 535.299 206.078L536.881 206.414C538.692 206.806 539.597 207.693 539.597 209.074C539.597 209.69 539.429 210.231 539.093 210.698C538.766 211.155 538.3 211.515 537.693 211.776C537.096 212.028 536.386 212.154 535.565 212.154ZM541.16 203.796V201.822H543.442V203.796H541.16ZM541.244 212V205.126H543.358V212H541.244ZM548.714 214.674C548.051 214.674 547.43 214.604 546.852 214.464C546.282 214.324 545.783 214.105 545.354 213.806L545.928 212.364C546.301 212.597 546.721 212.775 547.188 212.896C547.664 213.027 548.112 213.092 548.532 213.092C549.726 213.092 550.324 212.541 550.324 211.44V210.656C550.137 211.011 549.843 211.295 549.442 211.51C549.04 211.725 548.602 211.832 548.126 211.832C547.51 211.832 546.973 211.692 546.516 211.412C546.058 211.123 545.704 210.721 545.452 210.208C545.2 209.695 545.074 209.093 545.074 208.402C545.074 207.721 545.2 207.123 545.452 206.61C545.704 206.097 546.058 205.7 546.516 205.42C546.973 205.131 547.51 204.986 548.126 204.986C548.62 204.986 549.064 205.093 549.456 205.308C549.848 205.523 550.137 205.807 550.324 206.162V205.126H552.382V211.202C552.382 212.359 552.069 213.227 551.444 213.806C550.818 214.385 549.908 214.674 548.714 214.674ZM548.756 210.25C549.222 210.25 549.596 210.087 549.876 209.76C550.165 209.433 550.31 208.981 550.31 208.402C550.31 207.823 550.165 207.375 549.876 207.058C549.596 206.731 549.222 206.568 548.756 206.568C548.28 206.568 547.902 206.731 547.622 207.058C547.342 207.375 547.202 207.823 547.202 208.402C547.202 208.981 547.342 209.433 547.622 209.76C547.902 210.087 548.28 210.25 548.756 210.25ZM554.443 212V205.126H556.515V206.134C556.748 205.761 557.061 205.476 557.453 205.28C557.845 205.084 558.284 204.986 558.769 204.986C559.581 204.986 560.188 205.224 560.589 205.7C560.99 206.167 561.191 206.89 561.191 207.87V212H559.077V207.968C559.077 207.492 558.988 207.151 558.811 206.946C558.634 206.731 558.372 206.624 558.027 206.624C557.579 206.624 557.22 206.764 556.949 207.044C556.688 207.324 556.557 207.697 556.557 208.164V212H554.443ZM542.037 231.154C540.637 231.154 539.569 230.795 538.831 230.076C538.103 229.357 537.739 228.289 537.739 226.87V221.13H539.909V226.884C539.909 227.687 540.091 228.293 540.455 228.704C540.819 229.105 541.347 229.306 542.037 229.306C543.447 229.306 544.151 228.499 544.151 226.884V221.13H546.293V226.87C546.293 228.289 545.934 229.357 545.215 230.076C544.497 230.795 543.437 231.154 542.037 231.154ZM548.452 233.52V224.126H550.524V225.148C550.71 224.793 550.995 224.513 551.378 224.308C551.77 224.093 552.208 223.986 552.694 223.986C553.291 223.986 553.814 224.131 554.262 224.42C554.719 224.709 555.074 225.12 555.326 225.652C555.578 226.184 555.704 226.819 555.704 227.556C555.704 228.293 555.578 228.933 555.326 229.474C555.074 230.006 554.719 230.421 554.262 230.72C553.814 231.009 553.291 231.154 552.694 231.154C552.236 231.154 551.816 231.056 551.434 230.86C551.06 230.664 550.771 230.403 550.566 230.076V233.52H548.452ZM552.064 229.572C552.512 229.572 552.876 229.409 553.156 229.082C553.436 228.755 553.576 228.247 553.576 227.556C553.576 226.875 553.436 226.375 553.156 226.058C552.876 225.731 552.512 225.568 552.064 225.568C551.606 225.568 551.238 225.731 550.958 226.058C550.678 226.375 550.538 226.875 550.538 227.556C550.538 228.247 550.678 228.755 550.958 229.082C551.238 229.409 551.606 229.572 552.064 229.572Z" fill="#FF6D00"/>
<path d="M534.167 272V262.13H536.337V270.166H540.901V272H534.167ZM545.666 272.154C544.928 272.154 544.284 272.009 543.734 271.72C543.192 271.421 542.772 271.006 542.474 270.474C542.175 269.933 542.026 269.293 542.026 268.556C542.026 267.828 542.175 267.198 542.474 266.666C542.772 266.125 543.192 265.709 543.734 265.42C544.284 265.131 544.928 264.986 545.666 264.986C546.403 264.986 547.042 265.131 547.584 265.42C548.134 265.709 548.559 266.125 548.858 266.666C549.166 267.198 549.32 267.828 549.32 268.556C549.32 269.293 549.166 269.933 548.858 270.474C548.559 271.006 548.134 271.421 547.584 271.72C547.042 272.009 546.403 272.154 545.666 272.154ZM545.666 270.572C546.114 270.572 546.478 270.409 546.758 270.082C547.047 269.755 547.192 269.247 547.192 268.556C547.192 267.875 547.047 267.375 546.758 267.058C546.478 266.731 546.114 266.568 545.666 266.568C545.218 266.568 544.854 266.731 544.574 267.058C544.294 267.375 544.154 267.875 544.154 268.556C544.154 269.247 544.294 269.755 544.574 270.082C544.854 270.409 545.218 270.572 545.666 270.572ZM554.33 274.674C553.667 274.674 553.047 274.604 552.468 274.464C551.899 274.324 551.399 274.105 550.97 273.806L551.544 272.364C551.917 272.597 552.337 272.775 552.804 272.896C553.28 273.027 553.728 273.092 554.148 273.092C555.343 273.092 555.94 272.541 555.94 271.44V270.656C555.753 271.011 555.459 271.295 555.058 271.51C554.657 271.725 554.218 271.832 553.742 271.832C553.126 271.832 552.589 271.692 552.132 271.412C551.675 271.123 551.32 270.721 551.068 270.208C550.816 269.695 550.69 269.093 550.69 268.402C550.69 267.721 550.816 267.123 551.068 266.61C551.32 266.097 551.675 265.7 552.132 265.42C552.589 265.131 553.126 264.986 553.742 264.986C554.237 264.986 554.68 265.093 555.072 265.308C555.464 265.523 555.753 265.807 555.94 266.162V265.126H557.998V271.202C557.998 272.359 557.685 273.227 557.06 273.806C556.435 274.385 555.525 274.674 554.33 274.674ZM554.372 270.25C554.839 270.25 555.212 270.087 555.492 269.76C555.781 269.433 555.926 268.981 555.926 268.402C555.926 267.823 555.781 267.375 555.492 267.058C555.212 266.731 554.839 266.568 554.372 266.568C553.896 266.568 553.518 266.731 553.238 267.058C552.958 267.375 552.818 267.823 552.818 268.402C552.818 268.981 552.958 269.433 553.238 269.76C553.518 270.087 553.896 270.25 554.372 270.25ZM540.55 291V281.13H542.72V291H540.55ZM544.93 291V284.126H547.002V285.134C547.236 284.761 547.548 284.476 547.94 284.28C548.332 284.084 548.771 283.986 549.256 283.986C550.068 283.986 550.675 284.224 551.076 284.7C551.478 285.167 551.678 285.89 551.678 286.87V291H549.564V286.968C549.564 286.492 549.476 286.151 549.298 285.946C549.121 285.731 548.86 285.624 548.514 285.624C548.066 285.624 547.707 285.764 547.436 286.044C547.175 286.324 547.044 286.697 547.044 287.164V291H544.93Z" fill="#FF6D00"/>
</svg>
