<?xml version="1.0" encoding="UTF-8" standalone="no"?>
<!DOCTYPE svg PUBLIC "-//W3C//DTD SVG 1.1//EN" "http://www.w3.org/Graphics/SVG/1.1/DTD/svg11.dtd">
<svg width="100%" height="100%" viewBox="0 0 633 225" version="1.1" xmlns="http://www.w3.org/2000/svg" xmlns:xlink="http://www.w3.org/1999/xlink" xml:space="preserve" xmlns:serif="http://www.serif.com/" style="fill-rule:evenodd;clip-rule:evenodd;stroke-linejoin:round;stroke-miterlimit:2;">
    <circle cx="75" cy="150" r="75" style="fill:rgb(255,109,0);"/>
    <path d="M48.877,149.189L48.565,151.711L50.372,151.711L50.372,152.66L48.448,152.66L48.162,155L47.239,155L47.525,152.66L45.068,152.66L44.782,155L43.859,155L44.145,152.66L42.351,152.66L42.351,151.711L44.262,151.711L44.587,149.189L42.767,149.189L42.767,148.24L44.704,148.24L44.99,145.9L45.913,145.9L45.627,148.24L48.071,148.24L48.357,145.9L49.28,145.9L48.994,148.24L50.788,148.24L50.788,149.189L48.877,149.189ZM47.954,149.189L45.51,149.189L45.185,151.711L47.642,151.711L47.954,149.189ZM54.456,147.031L54.456,150.203L59.019,150.203L59.019,151.321L54.456,151.321L54.456,155L53.156,155L53.156,145.9L59.578,145.9L59.578,147.031L54.456,147.031ZM63.358,147.031L63.358,150.203L67.921,150.203L67.921,151.321L63.358,151.321L63.358,155L62.058,155L62.058,145.9L68.48,145.9L68.48,147.031L63.358,147.031ZM73.98,149.475C74.578,149.475 75.111,149.588 75.579,149.813C76.055,150.038 76.428,150.363 76.697,150.788C76.965,151.204 77.1,151.685 77.1,152.231C77.1,152.803 76.957,153.306 76.671,153.739C76.393,154.172 76.007,154.51 75.513,154.753C75.028,154.987 74.482,155.104 73.876,155.104C72.653,155.104 71.709,154.71 71.042,153.921C70.383,153.132 70.054,152.014 70.054,150.567C70.054,149.553 70.231,148.691 70.587,147.98C70.951,147.261 71.453,146.719 72.095,146.355C72.745,145.982 73.499,145.796 74.357,145.796C74.799,145.796 75.215,145.844 75.605,145.939C75.995,146.026 76.333,146.156 76.619,146.329L76.125,147.343C75.691,147.057 75.111,146.914 74.382,146.914C73.438,146.914 72.697,147.209 72.159,147.798C71.622,148.379 71.354,149.228 71.354,150.346C71.354,150.485 71.358,150.593 71.367,150.671C71.626,150.281 71.982,149.986 72.433,149.787C72.892,149.579 73.408,149.475 73.98,149.475ZM73.824,154.051C74.422,154.051 74.907,153.891 75.28,153.57C75.652,153.249 75.839,152.82 75.839,152.283C75.839,151.746 75.648,151.321 75.266,151.009C74.894,150.688 74.391,150.528 73.759,150.528C73.351,150.528 72.987,150.606 72.667,150.762C72.355,150.918 72.108,151.13 71.926,151.399C71.752,151.668 71.666,151.967 71.666,152.296C71.666,152.617 71.748,152.911 71.913,153.18C72.086,153.44 72.333,153.652 72.653,153.817C72.983,153.973 73.373,154.051 73.824,154.051ZM79.468,145.9L83.303,145.9C84.265,145.9 85.119,146.091 85.864,146.472C86.609,146.853 87.186,147.391 87.593,148.084C88.009,148.769 88.217,149.557 88.217,150.45C88.217,151.343 88.009,152.136 87.593,152.829C87.186,153.514 86.609,154.047 85.864,154.428C85.119,154.809 84.265,155 83.303,155L79.468,155L79.468,145.9ZM83.225,153.869C83.962,153.869 84.607,153.726 85.162,153.44C85.725,153.154 86.159,152.755 86.462,152.244C86.765,151.724 86.917,151.126 86.917,150.45C86.917,149.774 86.765,149.18 86.462,148.669C86.159,148.149 85.725,147.746 85.162,147.46C84.607,147.174 83.962,147.031 83.225,147.031L80.768,147.031L80.768,153.869L83.225,153.869ZM93.835,155.104C93.116,155.104 92.475,154.922 91.911,154.558C91.357,154.185 90.919,153.648 90.598,152.946C90.278,152.244 90.117,151.412 90.117,150.45C90.117,149.488 90.278,148.656 90.598,147.954C90.919,147.252 91.357,146.719 91.911,146.355C92.475,145.982 93.116,145.796 93.835,145.796C94.546,145.796 95.179,145.982 95.733,146.355C96.296,146.719 96.739,147.252 97.059,147.954C97.38,148.656 97.54,149.488 97.54,150.45C97.54,151.412 97.38,152.244 97.059,152.946C96.739,153.648 96.296,154.185 95.733,154.558C95.179,154.922 94.546,155.104 93.835,155.104ZM93.835,153.947C94.563,153.947 95.144,153.648 95.577,153.05C96.019,152.452 96.24,151.585 96.24,150.45C96.24,149.315 96.019,148.448 95.577,147.85C95.144,147.252 94.563,146.953 93.835,146.953C93.099,146.953 92.509,147.252 92.067,147.85C91.634,148.448 91.417,149.315 91.417,150.45C91.417,151.585 91.634,152.452 92.067,153.05C92.509,153.648 93.099,153.947 93.835,153.947ZM103.156,155.104C102.437,155.104 101.795,154.922 101.232,154.558C100.677,154.185 100.24,153.648 99.919,152.946C99.598,152.244 99.438,151.412 99.438,150.45C99.438,149.488 99.598,148.656 99.919,147.954C100.24,147.252 100.677,146.719 101.232,146.355C101.795,145.982 102.437,145.796 103.156,145.796C103.867,145.796 104.499,145.982 105.054,146.355C105.617,146.719 106.059,147.252 106.38,147.954C106.701,148.656 106.861,149.488 106.861,150.45C106.861,151.412 106.701,152.244 106.38,152.946C106.059,153.648 105.617,154.185 105.054,154.558C104.499,154.922 103.867,155.104 103.156,155.104ZM103.156,153.947C103.884,153.947 104.465,153.648 104.898,153.05C105.34,152.452 105.561,151.585 105.561,150.45C105.561,149.315 105.34,148.448 104.898,147.85C104.465,147.252 103.884,146.953 103.156,146.953C102.419,146.953 101.83,147.252 101.388,147.85C100.955,148.448 100.738,149.315 100.738,150.45C100.738,151.585 100.955,152.452 101.388,153.05C101.83,153.648 102.419,153.947 103.156,153.947Z" style="fill:white;fill-rule:nonzero;"/>
    <circle cx="236" cy="150" r="75" style="fill:rgb(255,145,77);"/>
    <path d="M211.877,149.189L211.565,151.711L213.372,151.711L213.372,152.66L211.448,152.66L211.162,155L210.239,155L210.525,152.66L208.068,152.66L207.782,155L206.859,155L207.145,152.66L205.351,152.66L205.351,151.711L207.262,151.711L207.587,149.189L205.767,149.189L205.767,148.24L207.704,148.24L207.99,145.9L208.913,145.9L208.627,148.24L211.071,148.24L211.357,145.9L212.28,145.9L211.994,148.24L213.788,148.24L213.788,149.189L211.877,149.189ZM210.954,149.189L208.51,149.189L208.185,151.711L210.642,151.711L210.954,149.189ZM217.456,147.031L217.456,150.203L222.019,150.203L222.019,151.321L217.456,151.321L217.456,155L216.156,155L216.156,145.9L222.578,145.9L222.578,147.031L217.456,147.031ZM226.358,147.031L226.358,150.203L230.921,150.203L230.921,151.321L226.358,151.321L226.358,155L225.058,155L225.058,145.9L231.48,145.9L231.48,147.031L226.358,147.031ZM236.258,145.796C237.48,145.796 238.421,146.19 239.079,146.979C239.747,147.768 240.08,148.886 240.08,150.333C240.08,151.347 239.898,152.214 239.534,152.933C239.179,153.644 238.676,154.185 238.026,154.558C237.385,154.922 236.635,155.104 235.777,155.104C235.335,155.104 234.919,155.061 234.529,154.974C234.139,154.879 233.801,154.744 233.515,154.571L234.009,153.557C234.451,153.843 235.036,153.986 235.764,153.986C236.709,153.986 237.446,153.696 237.974,153.115C238.512,152.526 238.78,151.672 238.78,150.554L238.78,150.229C238.52,150.619 238.161,150.918 237.701,151.126C237.242,151.325 236.726,151.425 236.154,151.425C235.556,151.425 235.019,151.312 234.542,151.087C234.074,150.862 233.706,150.541 233.437,150.125C233.177,149.7 233.047,149.215 233.047,148.669C233.047,148.097 233.186,147.594 233.463,147.161C233.749,146.728 234.135,146.394 234.62,146.16C235.106,145.917 235.652,145.796 236.258,145.796ZM236.375,150.372C236.783,150.372 237.147,150.294 237.467,150.138C237.788,149.982 238.035,149.77 238.208,149.501C238.39,149.232 238.481,148.933 238.481,148.604C238.481,148.283 238.395,147.993 238.221,147.733C238.057,147.464 237.81,147.252 237.48,147.096C237.16,146.931 236.77,146.849 236.31,146.849C235.712,146.849 235.227,147.009 234.854,147.33C234.49,147.651 234.308,148.08 234.308,148.617C234.308,149.154 234.495,149.583 234.867,149.904C235.24,150.216 235.743,150.372 236.375,150.372ZM244.764,145.9L244.764,155L243.477,155L243.477,147.031L241.423,147.031L241.423,145.9L244.764,145.9ZM255.321,152.764L253.592,152.764L253.592,155L252.331,155L252.331,152.764L247.274,152.764L247.274,151.854L251.928,145.9L253.332,145.9L248.873,151.646L252.37,151.646L252.37,149.67L253.592,149.67L253.592,151.646L255.321,151.646L255.321,152.764ZM257.492,145.9L261.327,145.9C262.289,145.9 263.142,146.091 263.888,146.472C264.633,146.853 265.209,147.391 265.617,148.084C266.033,148.769 266.241,149.557 266.241,150.45C266.241,151.343 266.033,152.136 265.617,152.829C265.209,153.514 264.633,154.047 263.888,154.428C263.142,154.809 262.289,155 261.327,155L257.492,155L257.492,145.9ZM261.249,153.869C261.985,153.869 262.631,153.726 263.186,153.44C263.749,153.154 264.182,152.755 264.486,152.244C264.789,151.724 264.941,151.126 264.941,150.45C264.941,149.774 264.789,149.18 264.486,148.669C264.182,148.149 263.749,147.746 263.186,147.46C262.631,147.174 261.985,147.031 261.249,147.031L258.792,147.031L258.792,153.869L261.249,153.869Z" style="fill:white;fill-rule:nonzero;"/>
    <circle cx="397" cy="150" r="75" style="fill:rgb(98,98,98);"/>
    <path d="M373.877,149.189L373.565,151.711L375.372,151.711L375.372,152.66L373.448,152.66L373.162,155L372.239,155L372.525,152.66L370.068,152.66L369.782,155L368.859,155L369.145,152.66L367.351,152.66L367.351,151.711L369.262,151.711L369.587,149.189L367.767,149.189L367.767,148.24L369.704,148.24L369.99,145.9L370.913,145.9L370.627,148.24L373.071,148.24L373.357,145.9L374.28,145.9L373.994,148.24L375.788,148.24L375.788,149.189L373.877,149.189ZM372.954,149.189L370.51,149.189L370.185,151.711L372.642,151.711L372.954,149.189ZM381.341,149.475C381.939,149.475 382.472,149.588 382.94,149.813C383.416,150.038 383.789,150.363 384.058,150.788C384.326,151.204 384.461,151.685 384.461,152.231C384.461,152.803 384.318,153.306 384.032,153.739C383.754,154.172 383.369,154.51 382.875,154.753C382.389,154.987 381.843,155.104 381.237,155.104C380.015,155.104 379.07,154.71 378.403,153.921C377.744,153.132 377.415,152.014 377.415,150.567C377.415,149.553 377.592,148.691 377.948,147.98C378.312,147.261 378.814,146.719 379.456,146.355C380.106,145.982 380.86,145.796 381.718,145.796C382.16,145.796 382.576,145.844 382.966,145.939C383.356,146.026 383.694,146.156 383.98,146.329L383.486,147.343C383.052,147.057 382.472,146.914 381.744,146.914C380.799,146.914 380.058,147.209 379.521,147.798C378.983,148.379 378.715,149.228 378.715,150.346C378.715,150.485 378.719,150.593 378.728,150.671C378.988,150.281 379.343,149.986 379.794,149.787C380.253,149.579 380.769,149.475 381.341,149.475ZM381.185,154.051C381.783,154.051 382.268,153.891 382.641,153.57C383.013,153.249 383.2,152.82 383.2,152.283C383.2,151.746 383.009,151.321 382.628,151.009C382.255,150.688 381.752,150.528 381.12,150.528C380.712,150.528 380.348,150.606 380.028,150.762C379.716,150.918 379.469,151.13 379.287,151.399C379.113,151.668 379.027,151.967 379.027,152.296C379.027,152.617 379.109,152.911 379.274,153.18C379.447,153.44 379.694,153.652 380.015,153.817C380.344,153.973 380.734,154.051 381.185,154.051ZM392.484,153.869L392.484,155L385.945,155L385.945,154.116L389.65,150.541C390.101,150.108 390.404,149.735 390.56,149.423C390.716,149.102 390.794,148.782 390.794,148.461C390.794,147.984 390.625,147.616 390.287,147.356C389.958,147.087 389.481,146.953 388.857,146.953C387.852,146.953 387.076,147.282 386.53,147.941L385.646,147.174C386.001,146.741 386.465,146.403 387.037,146.16C387.618,145.917 388.263,145.796 388.974,145.796C389.927,145.796 390.686,146.026 391.249,146.485C391.812,146.936 392.094,147.551 392.094,148.331C392.094,148.816 391.99,149.276 391.782,149.709C391.574,150.142 391.18,150.636 390.599,151.191L387.817,153.869L392.484,153.869ZM398.091,149.475C398.689,149.475 399.222,149.588 399.69,149.813C400.166,150.038 400.539,150.363 400.808,150.788C401.076,151.204 401.211,151.685 401.211,152.231C401.211,152.803 401.068,153.306 400.782,153.739C400.504,154.172 400.119,154.51 399.625,154.753C399.139,154.987 398.593,155.104 397.987,155.104C396.765,155.104 395.82,154.71 395.153,153.921C394.494,153.132 394.165,152.014 394.165,150.567C394.165,149.553 394.342,148.691 394.698,147.98C395.062,147.261 395.564,146.719 396.206,146.355C396.856,145.982 397.61,145.796 398.468,145.796C398.91,145.796 399.326,145.844 399.716,145.939C400.106,146.026 400.444,146.156 400.73,146.329L400.236,147.343C399.802,147.057 399.222,146.914 398.494,146.914C397.549,146.914 396.808,147.209 396.271,147.798C395.733,148.379 395.465,149.228 395.465,150.346C395.465,150.485 395.469,150.593 395.478,150.671C395.738,150.281 396.093,149.986 396.544,149.787C397.003,149.579 397.519,149.475 398.091,149.475ZM397.935,154.051C398.533,154.051 399.018,153.891 399.391,153.57C399.763,153.249 399.95,152.82 399.95,152.283C399.95,151.746 399.759,151.321 399.378,151.009C399.005,150.688 398.502,150.528 397.87,150.528C397.462,150.528 397.098,150.606 396.778,150.762C396.466,150.918 396.219,151.13 396.037,151.399C395.863,151.668 395.777,151.967 395.777,152.296C395.777,152.617 395.859,152.911 396.024,153.18C396.197,153.44 396.444,153.652 396.765,153.817C397.094,153.973 397.484,154.051 397.935,154.051ZM409.234,153.869L409.234,155L402.695,155L402.695,154.116L406.4,150.541C406.851,150.108 407.154,149.735 407.31,149.423C407.466,149.102 407.544,148.782 407.544,148.461C407.544,147.984 407.375,147.616 407.037,147.356C406.708,147.087 406.231,146.953 405.607,146.953C404.602,146.953 403.826,147.282 403.28,147.941L402.396,147.174C402.752,146.741 403.215,146.403 403.787,146.16C404.368,145.917 405.014,145.796 405.724,145.796C406.678,145.796 407.436,146.026 407.999,146.485C408.563,146.936 408.844,147.551 408.844,148.331C408.844,148.816 408.74,149.276 408.532,149.709C408.324,150.142 407.93,150.636 407.349,151.191L404.567,153.869L409.234,153.869ZM414.841,149.475C415.439,149.475 415.972,149.588 416.44,149.813C416.917,150.038 417.289,150.363 417.558,150.788C417.827,151.204 417.961,151.685 417.961,152.231C417.961,152.803 417.818,153.306 417.532,153.739C417.255,154.172 416.869,154.51 416.375,154.753C415.89,154.987 415.344,155.104 414.737,155.104C413.515,155.104 412.57,154.71 411.903,153.921C411.244,153.132 410.915,152.014 410.915,150.567C410.915,149.553 411.093,148.691 411.448,147.98C411.812,147.261 412.315,146.719 412.956,146.355C413.606,145.982 414.36,145.796 415.218,145.796C415.66,145.796 416.076,145.844 416.466,145.939C416.856,146.026 417.194,146.156 417.48,146.329L416.986,147.343C416.553,147.057 415.972,146.914 415.244,146.914C414.299,146.914 413.558,147.209 413.021,147.798C412.484,148.379 412.215,149.228 412.215,150.346C412.215,150.485 412.219,150.593 412.228,150.671C412.488,150.281 412.843,149.986 413.294,149.787C413.753,149.579 414.269,149.475 414.841,149.475ZM414.685,154.051C415.283,154.051 415.768,153.891 416.141,153.57C416.514,153.249 416.7,152.82 416.7,152.283C416.7,151.746 416.509,151.321 416.128,151.009C415.755,150.688 415.253,150.528 414.62,150.528C414.213,150.528 413.849,150.606 413.528,150.762C413.216,150.918 412.969,151.13 412.787,151.399C412.614,151.668 412.527,151.967 412.527,152.296C412.527,152.617 412.609,152.911 412.774,153.18C412.947,153.44 413.194,153.652 413.515,153.817C413.844,153.973 414.234,154.051 414.685,154.051ZM425.984,153.869L425.984,155L419.445,155L419.445,154.116L423.15,150.541C423.601,150.108 423.904,149.735 424.06,149.423C424.216,149.102 424.294,148.782 424.294,148.461C424.294,147.984 424.125,147.616 423.787,147.356C423.458,147.087 422.981,146.953 422.357,146.953C421.352,146.953 420.576,147.282 420.03,147.941L419.146,147.174C419.502,146.741 419.965,146.403 420.537,146.16C421.118,145.917 421.764,145.796 422.474,145.796C423.428,145.796 424.186,146.026 424.749,146.485C425.313,146.936 425.594,147.551 425.594,148.331C425.594,148.816 425.49,149.276 425.282,149.709C425.074,150.142 424.68,150.636 424.099,151.191L421.317,153.869L425.984,153.869Z" style="fill:white;fill-rule:nonzero;"/>
    <circle cx="558" cy="150" r="75" style="fill:rgb(141,141,141);"/>
    <path d="M528.877,149.189L528.565,151.711L530.372,151.711L530.372,152.66L528.448,152.66L528.162,155L527.239,155L527.525,152.66L525.068,152.66L524.782,155L523.859,155L524.145,152.66L522.351,152.66L522.351,151.711L524.262,151.711L524.587,149.189L522.767,149.189L522.767,148.24L524.704,148.24L524.99,145.9L525.913,145.9L525.627,148.24L528.071,148.24L528.357,145.9L529.28,145.9L528.994,148.24L530.788,148.24L530.788,149.189L528.877,149.189ZM527.954,149.189L525.51,149.189L525.185,151.711L527.642,151.711L527.954,149.189ZM537.979,150.229C538.499,150.428 538.897,150.714 539.175,151.087C539.452,151.46 539.591,151.906 539.591,152.426C539.591,152.972 539.443,153.449 539.149,153.856C538.854,154.255 538.434,154.562 537.888,154.779C537.342,154.996 536.7,155.104 535.964,155.104C535.236,155.104 534.599,154.996 534.053,154.779C533.515,154.562 533.099,154.255 532.805,153.856C532.51,153.449 532.363,152.972 532.363,152.426C532.363,151.906 532.497,151.46 532.766,151.087C533.043,150.714 533.442,150.428 533.962,150.229C533.546,150.03 533.229,149.765 533.013,149.436C532.796,149.107 532.688,148.717 532.688,148.266C532.688,147.763 532.822,147.326 533.091,146.953C533.368,146.58 533.754,146.294 534.248,146.095C534.742,145.896 535.314,145.796 535.964,145.796C536.622,145.796 537.199,145.896 537.693,146.095C538.195,146.294 538.581,146.58 538.85,146.953C539.127,147.326 539.266,147.763 539.266,148.266C539.266,148.708 539.153,149.098 538.928,149.436C538.711,149.765 538.395,150.03 537.979,150.229ZM535.964,146.849C535.348,146.849 534.863,146.983 534.508,147.252C534.152,147.512 533.975,147.867 533.975,148.318C533.975,148.769 534.148,149.124 534.495,149.384C534.85,149.644 535.34,149.774 535.964,149.774C536.596,149.774 537.09,149.644 537.446,149.384C537.81,149.124 537.992,148.769 537.992,148.318C537.992,147.867 537.805,147.512 537.433,147.252C537.069,146.983 536.579,146.849 535.964,146.849ZM535.964,154.051C536.683,154.051 537.251,153.904 537.667,153.609C538.083,153.306 538.291,152.898 538.291,152.387C538.291,151.884 538.083,151.49 537.667,151.204C537.251,150.909 536.683,150.762 535.964,150.762C535.244,150.762 534.681,150.909 534.274,151.204C533.866,151.49 533.663,151.884 533.663,152.387C533.663,152.898 533.866,153.306 534.274,153.609C534.681,153.904 535.244,154.051 535.964,154.051ZM542.172,145.9L546.007,145.9C546.969,145.9 547.823,146.091 548.568,146.472C549.313,146.853 549.89,147.391 550.297,148.084C550.713,148.769 550.921,149.557 550.921,150.45C550.921,151.343 550.713,152.136 550.297,152.829C549.89,153.514 549.313,154.047 548.568,154.428C547.823,154.809 546.969,155 546.007,155L542.172,155L542.172,145.9ZM545.929,153.869C546.666,153.869 547.311,153.726 547.866,153.44C548.429,153.154 548.863,152.755 549.166,152.244C549.469,151.724 549.621,151.126 549.621,150.45C549.621,149.774 549.469,149.18 549.166,148.669C548.863,148.149 548.429,147.746 547.866,147.46C547.311,147.174 546.666,147.031 545.929,147.031L543.472,147.031L543.472,153.869L545.929,153.869ZM558.385,150.229C558.905,150.428 559.304,150.714 559.581,151.087C559.858,151.46 559.997,151.906 559.997,152.426C559.997,152.972 559.85,153.449 559.555,153.856C559.26,154.255 558.84,154.562 558.294,154.779C557.748,154.996 557.107,155.104 556.37,155.104C555.642,155.104 555.005,154.996 554.459,154.779C553.922,154.562 553.506,154.255 553.211,153.856C552.916,153.449 552.769,152.972 552.769,152.426C552.769,151.906 552.903,151.46 553.172,151.087C553.449,150.714 553.848,150.428 554.368,150.229C553.952,150.03 553.636,149.765 553.419,149.436C553.202,149.107 553.094,148.717 553.094,148.266C553.094,147.763 553.228,147.326 553.497,146.953C553.774,146.58 554.16,146.294 554.654,146.095C555.148,145.896 555.72,145.796 556.37,145.796C557.029,145.796 557.605,145.896 558.099,146.095C558.602,146.294 558.987,146.58 559.256,146.953C559.533,147.326 559.672,147.763 559.672,148.266C559.672,148.708 559.559,149.098 559.334,149.436C559.117,149.765 558.801,150.03 558.385,150.229ZM556.37,146.849C555.755,146.849 555.269,146.983 554.914,147.252C554.559,147.512 554.381,147.867 554.381,148.318C554.381,148.769 554.554,149.124 554.901,149.384C555.256,149.644 555.746,149.774 556.37,149.774C557.003,149.774 557.497,149.644 557.852,149.384C558.216,149.124 558.398,148.769 558.398,148.318C558.398,147.867 558.212,147.512 557.839,147.252C557.475,146.983 556.985,146.849 556.37,146.849ZM556.37,154.051C557.089,154.051 557.657,153.904 558.073,153.609C558.489,153.306 558.697,152.898 558.697,152.387C558.697,151.884 558.489,151.49 558.073,151.204C557.657,150.909 557.089,150.762 556.37,150.762C555.651,150.762 555.087,150.909 554.68,151.204C554.273,151.49 554.069,151.884 554.069,152.387C554.069,152.898 554.273,153.306 554.68,153.609C555.087,153.904 555.651,154.051 556.37,154.051ZM562.578,145.9L566.413,145.9C567.375,145.9 568.229,146.091 568.974,146.472C569.72,146.853 570.296,147.391 570.703,148.084C571.119,148.769 571.327,149.557 571.327,150.45C571.327,151.343 571.119,152.136 570.703,152.829C570.296,153.514 569.72,154.047 568.974,154.428C568.229,154.809 567.375,155 566.413,155L562.578,155L562.578,145.9ZM566.335,153.869C567.072,153.869 567.718,153.726 568.272,153.44C568.836,153.154 569.269,152.755 569.572,152.244C569.876,151.724 570.027,151.126 570.027,150.45C570.027,149.774 569.876,149.18 569.572,148.669C569.269,148.149 568.836,147.746 568.272,147.46C567.718,147.174 567.072,147.031 566.335,147.031L563.878,147.031L563.878,153.869L566.335,153.869ZM578.792,150.229C579.312,150.428 579.71,150.714 579.988,151.087C580.265,151.46 580.404,151.906 580.404,152.426C580.404,152.972 580.256,153.449 579.962,153.856C579.667,154.255 579.247,154.562 578.701,154.779C578.155,154.996 577.513,155.104 576.777,155.104C576.049,155.104 575.412,154.996 574.866,154.779C574.328,154.562 573.912,154.255 573.618,153.856C573.323,153.449 573.176,152.972 573.176,152.426C573.176,151.906 573.31,151.46 573.579,151.087C573.856,150.714 574.255,150.428 574.775,150.229C574.359,150.03 574.042,149.765 573.826,149.436C573.609,149.107 573.501,148.717 573.501,148.266C573.501,147.763 573.635,147.326 573.904,146.953C574.181,146.58 574.567,146.294 575.061,146.095C575.555,145.896 576.127,145.796 576.777,145.796C577.435,145.796 578.012,145.896 578.506,146.095C579.008,146.294 579.394,146.58 579.663,146.953C579.94,147.326 580.079,147.763 580.079,148.266C580.079,148.708 579.966,149.098 579.741,149.436C579.524,149.765 579.208,150.03 578.792,150.229ZM576.777,146.849C576.161,146.849 575.676,146.983 575.321,147.252C574.965,147.512 574.788,147.867 574.788,148.318C574.788,148.769 574.961,149.124 575.308,149.384C575.663,149.644 576.153,149.774 576.777,149.774C577.409,149.774 577.903,149.644 578.259,149.384C578.623,149.124 578.805,148.769 578.805,148.318C578.805,147.867 578.618,147.512 578.246,147.252C577.882,146.983 577.392,146.849 576.777,146.849ZM576.777,154.051C577.496,154.051 578.064,153.904 578.48,153.609C578.896,153.306 579.104,152.898 579.104,152.387C579.104,151.884 578.896,151.49 578.48,151.204C578.064,150.909 577.496,150.762 576.777,150.762C576.057,150.762 575.494,150.909 575.087,151.204C574.679,151.49 574.476,151.884 574.476,152.387C574.476,152.898 574.679,153.306 575.087,153.609C575.494,153.904 576.057,154.051 576.777,154.051ZM582.985,145.9L586.82,145.9C587.782,145.9 588.635,146.091 589.381,146.472C590.126,146.853 590.702,147.391 591.11,148.084C591.526,148.769 591.734,149.557 591.734,150.45C591.734,151.343 591.526,152.136 591.11,152.829C590.702,153.514 590.126,154.047 589.381,154.428C588.635,154.809 587.782,155 586.82,155L582.985,155L582.985,145.9ZM586.742,153.869C587.478,153.869 588.124,153.726 588.679,153.44C589.242,153.154 589.675,152.755 589.979,152.244C590.282,151.724 590.434,151.126 590.434,150.45C590.434,149.774 590.282,149.18 589.979,148.669C589.675,148.149 589.242,147.746 588.679,147.46C588.124,147.174 587.478,147.031 586.742,147.031L584.285,147.031L584.285,153.869L586.742,153.869Z" style="fill:white;fill-rule:nonzero;"/>
    <g transform="matrix(1,0,0,1,95.8768,14.7659)">
        <text x="122.407px" y="28.122px" style="font-family:'Montserrat-Medium', 'Montserrat';font-weight:500;font-size:43px;">C<tspan x="157.151px 197.571px 226.854px 267.274px 302.835px " y="28.122px 28.122px 28.122px 28.122px 28.122px ">OLORS</tspan></text>
    </g>
</svg>
