<svg width="633" height="225" viewBox="0 0 633 225" fill="none" xmlns="http://www.w3.org/2000/svg">
<path d="M258.672 35.288C256.584 35.288 254.688 34.832 252.984 33.92C251.304 33.008 249.984 31.76 249.024 30.176C248.064 28.568 247.584 26.768 247.584 24.776C247.584 22.784 248.064 20.996 249.024 19.412C249.984 17.804 251.304 16.544 252.984 15.632C254.688 14.72 256.584 14.264 258.672 14.264C262.2 14.264 264.888 15.332 266.736 17.468L264.504 19.736C262.968 18.104 261.06 17.288 258.78 17.288C257.316 17.288 255.996 17.612 254.82 18.26C253.668 18.884 252.756 19.772 252.084 20.924C251.436 22.052 251.112 23.336 251.112 24.776C251.112 26.192 251.436 27.476 252.084 28.628C252.756 29.756 253.668 30.644 254.82 31.292C255.996 31.94 257.316 32.264 258.78 32.264C261.036 32.264 262.944 31.436 264.504 29.78L266.736 32.048C264.864 34.208 262.176 35.288 258.672 35.288ZM281.918 35.288C279.83 35.288 277.934 34.832 276.23 33.92C274.526 33.008 273.194 31.76 272.234 30.176C271.274 28.568 270.794 26.768 270.794 24.776C270.794 22.784 271.274 20.996 272.234 19.412C273.194 17.804 274.526 16.544 276.23 15.632C277.934 14.72 279.83 14.264 281.918 14.264C284.03 14.264 285.926 14.72 287.606 15.632C289.31 16.544 290.642 17.804 291.602 19.412C292.562 20.996 293.042 22.784 293.042 24.776C293.042 26.768 292.562 28.568 291.602 30.176C290.642 31.76 289.31 33.008 287.606 33.92C285.926 34.832 284.03 35.288 281.918 35.288ZM281.918 32.264C283.358 32.264 284.654 31.94 285.806 31.292C286.958 30.644 287.858 29.756 288.506 28.628C289.178 27.5 289.514 26.216 289.514 24.776C289.514 23.336 289.178 22.052 288.506 20.924C287.858 19.796 286.958 18.908 285.806 18.26C284.654 17.612 283.358 17.288 281.918 17.288C280.478 17.288 279.182 17.612 278.03 18.26C276.878 18.908 275.966 19.796 275.294 20.924C274.646 22.052 274.322 23.336 274.322 24.776C274.322 26.216 274.646 27.5 275.294 28.628C275.966 29.756 276.878 30.644 278.03 31.292C279.182 31.94 280.478 32.264 281.918 32.264ZM299.92 14.552H303.412V32.084H314.392V35H299.92V14.552ZM328.725 35.288C326.637 35.288 324.741 34.832 323.037 33.92C321.333 33.008 320.001 31.76 319.041 30.176C318.081 28.568 317.601 26.768 317.601 24.776C317.601 22.784 318.081 20.996 319.041 19.412C320.001 17.804 321.333 16.544 323.037 15.632C324.741 14.72 326.637 14.264 328.725 14.264C330.837 14.264 332.733 14.72 334.413 15.632C336.117 16.544 337.449 17.804 338.409 19.412C339.369 20.996 339.849 22.784 339.849 24.776C339.849 26.768 339.369 28.568 338.409 30.176C337.449 31.76 336.117 33.008 334.413 33.92C332.733 34.832 330.837 35.288 328.725 35.288ZM328.725 32.264C330.165 32.264 331.461 31.94 332.613 31.292C333.765 30.644 334.665 29.756 335.313 28.628C335.985 27.5 336.321 26.216 336.321 24.776C336.321 23.336 335.985 22.052 335.313 20.924C334.665 19.796 333.765 18.908 332.613 18.26C331.461 17.612 330.165 17.288 328.725 17.288C327.285 17.288 325.989 17.612 324.837 18.26C323.685 18.908 322.773 19.796 322.101 20.924C321.453 22.052 321.129 23.336 321.129 24.776C321.129 26.216 321.453 27.5 322.101 28.628C322.773 29.756 323.685 30.644 324.837 31.292C325.989 31.94 327.285 32.264 328.725 32.264ZM360.407 35L356.015 28.88C355.823 28.904 355.511 28.916 355.079 28.916H350.219V35H346.727V14.552H355.079C357.791 14.552 359.927 15.188 361.487 16.46C363.047 17.732 363.827 19.496 363.827 21.752C363.827 23.312 363.431 24.644 362.639 25.748C361.871 26.852 360.767 27.68 359.327 28.232L364.187 35H360.407ZM354.863 26.072C356.639 26.072 357.983 25.7 358.895 24.956C359.831 24.212 360.299 23.144 360.299 21.752C360.299 20.36 359.831 19.292 358.895 18.548C357.983 17.804 356.639 17.432 354.863 17.432H350.219V26.072H354.863ZM377.179 35.288C375.595 35.288 374.047 35.072 372.535 34.64C371.047 34.184 369.883 33.584 369.043 32.84L370.411 30.104C371.227 30.776 372.247 31.316 373.471 31.724C374.719 32.132 376.003 32.336 377.323 32.336C378.931 32.336 380.107 32.072 380.851 31.544C381.619 31.016 382.003 30.332 382.003 29.492C382.003 28.844 381.775 28.316 381.319 27.908C380.887 27.5 380.335 27.188 379.663 26.972C378.991 26.756 378.079 26.528 376.927 26.288C375.367 25.952 374.095 25.604 373.111 25.244C372.151 24.884 371.323 24.32 370.627 23.552C369.955 22.76 369.619 21.692 369.619 20.348C369.619 18.524 370.351 17.06 371.815 15.956C373.303 14.828 375.319 14.264 377.863 14.264C379.159 14.264 380.407 14.42 381.607 14.732C382.831 15.02 383.875 15.452 384.739 16.028L383.479 18.836C381.919 17.756 380.011 17.216 377.755 17.216C376.195 17.216 375.031 17.492 374.263 18.044C373.495 18.572 373.111 19.268 373.111 20.132C373.111 20.78 373.327 21.308 373.759 21.716C374.215 22.124 374.779 22.436 375.451 22.652C376.147 22.868 377.071 23.096 378.223 23.336C379.807 23.696 381.067 24.056 382.003 24.416C382.963 24.752 383.779 25.304 384.451 26.072C385.147 26.84 385.495 27.872 385.495 29.168C385.495 31.04 384.751 32.528 383.263 33.632C381.799 34.736 379.771 35.288 377.179 35.288Z" fill="black"/>
<circle cx="75" cy="150" r="75" fill="#FF6D00"/>
<path d="M48.877 149.189L48.565 151.711H50.372V152.66H48.448L48.162 155H47.239L47.525 152.66H45.068L44.782 155H43.859L44.145 152.66H42.351V151.711H44.262L44.587 149.189H42.767V148.24H44.704L44.99 145.9H45.913L45.627 148.24H48.071L48.357 145.9H49.28L48.994 148.24H50.788V149.189H48.877ZM47.954 149.189H45.51L45.185 151.711H47.642L47.954 149.189ZM54.4556 147.031V150.203H59.0186V151.321H54.4556V155H53.1556V145.9H59.5776V147.031H54.4556ZM63.3576 147.031V150.203H67.9206V151.321H63.3576V155H62.0576V145.9H68.4796V147.031H63.3576ZM73.9795 149.475C74.5775 149.475 75.1105 149.588 75.5785 149.813C76.0552 150.038 76.4278 150.363 76.6965 150.788C76.9652 151.204 77.0995 151.685 77.0995 152.231C77.0995 152.803 76.9565 153.306 76.6705 153.739C76.3932 154.172 76.0075 154.51 75.5135 154.753C75.0282 154.987 74.4822 155.104 73.8755 155.104C72.6535 155.104 71.7088 154.71 71.0415 153.921C70.3828 153.132 70.0535 152.014 70.0535 150.567C70.0535 149.553 70.2312 148.691 70.5865 147.98C70.9505 147.261 71.4532 146.719 72.0945 146.355C72.7445 145.982 73.4985 145.796 74.3565 145.796C74.7985 145.796 75.2145 145.844 75.6045 145.939C75.9945 146.026 76.3325 146.156 76.6185 146.329L76.1245 147.343C75.6912 147.057 75.1105 146.914 74.3825 146.914C73.4378 146.914 72.6968 147.209 72.1595 147.798C71.6222 148.379 71.3535 149.228 71.3535 150.346C71.3535 150.485 71.3578 150.593 71.3665 150.671C71.6265 150.281 71.9818 149.986 72.4325 149.787C72.8918 149.579 73.4075 149.475 73.9795 149.475ZM73.8235 154.051C74.4215 154.051 74.9068 153.891 75.2795 153.57C75.6522 153.249 75.8385 152.82 75.8385 152.283C75.8385 151.746 75.6478 151.321 75.2665 151.009C74.8938 150.688 74.3912 150.528 73.7585 150.528C73.3512 150.528 72.9872 150.606 72.6665 150.762C72.3545 150.918 72.1075 151.13 71.9255 151.399C71.7522 151.668 71.6655 151.967 71.6655 152.296C71.6655 152.617 71.7478 152.911 71.9125 153.18C72.0858 153.44 72.3328 153.652 72.6535 153.817C72.9828 153.973 73.3728 154.051 73.8235 154.051ZM79.4679 145.9H83.3029C84.2649 145.9 85.1186 146.091 85.8639 146.472C86.6093 146.853 87.1856 147.391 87.5929 148.084C88.0089 148.769 88.2169 149.557 88.2169 150.45C88.2169 151.343 88.0089 152.136 87.5929 152.829C87.1856 153.514 86.6093 154.047 85.8639 154.428C85.1186 154.809 84.2649 155 83.3029 155H79.4679V145.9ZM83.2249 153.869C83.9616 153.869 84.6073 153.726 85.1619 153.44C85.7253 153.154 86.1586 152.755 86.4619 152.244C86.7653 151.724 86.9169 151.126 86.9169 150.45C86.9169 149.774 86.7653 149.18 86.4619 148.669C86.1586 148.149 85.7253 147.746 85.1619 147.46C84.6073 147.174 83.9616 147.031 83.2249 147.031H80.7679V153.869H83.2249ZM93.8352 155.104C93.1158 155.104 92.4745 154.922 91.9112 154.558C91.3565 154.185 90.9188 153.648 90.5982 152.946C90.2775 152.244 90.1172 151.412 90.1172 150.45C90.1172 149.488 90.2775 148.656 90.5982 147.954C90.9188 147.252 91.3565 146.719 91.9112 146.355C92.4745 145.982 93.1158 145.796 93.8352 145.796C94.5458 145.796 95.1785 145.982 95.7332 146.355C96.2965 146.719 96.7385 147.252 97.0592 147.954C97.3798 148.656 97.5402 149.488 97.5402 150.45C97.5402 151.412 97.3798 152.244 97.0592 152.946C96.7385 153.648 96.2965 154.185 95.7332 154.558C95.1785 154.922 94.5458 155.104 93.8352 155.104ZM93.8352 153.947C94.5632 153.947 95.1438 153.648 95.5772 153.05C96.0192 152.452 96.2402 151.585 96.2402 150.45C96.2402 149.315 96.0192 148.448 95.5772 147.85C95.1438 147.252 94.5632 146.953 93.8352 146.953C93.0985 146.953 92.5092 147.252 92.0672 147.85C91.6338 148.448 91.4172 149.315 91.4172 150.45C91.4172 151.585 91.6338 152.452 92.0672 153.05C92.5092 153.648 93.0985 153.947 93.8352 153.947ZM103.156 155.104C102.437 155.104 101.795 154.922 101.232 154.558C100.677 154.185 100.24 153.648 99.9191 152.946C99.5984 152.244 99.4381 151.412 99.4381 150.45C99.4381 149.488 99.5984 148.656 99.9191 147.954C100.24 147.252 100.677 146.719 101.232 146.355C101.795 145.982 102.437 145.796 103.156 145.796C103.867 145.796 104.499 145.982 105.054 146.355C105.617 146.719 106.059 147.252 106.38 147.954C106.701 148.656 106.861 149.488 106.861 150.45C106.861 151.412 106.701 152.244 106.38 152.946C106.059 153.648 105.617 154.185 105.054 154.558C104.499 154.922 103.867 155.104 103.156 155.104ZM103.156 153.947C103.884 153.947 104.465 153.648 104.898 153.05C105.34 152.452 105.561 151.585 105.561 150.45C105.561 149.315 105.34 148.448 104.898 147.85C104.465 147.252 103.884 146.953 103.156 146.953C102.419 146.953 101.83 147.252 101.388 147.85C100.955 148.448 100.738 149.315 100.738 150.45C100.738 151.585 100.955 152.452 101.388 153.05C101.83 153.648 102.419 153.947 103.156 153.947Z" fill="white"/>
<circle cx="236" cy="150" r="75" fill="#FF914D"/>
<path d="M211.877 149.189L211.565 151.711H213.372V152.66H211.448L211.162 155H210.239L210.525 152.66H208.068L207.782 155H206.859L207.145 152.66H205.351V151.711H207.262L207.587 149.189H205.767V148.24H207.704L207.99 145.9H208.913L208.627 148.24H211.071L211.357 145.9H212.28L211.994 148.24H213.788V149.189H211.877ZM210.954 149.189H208.51L208.185 151.711H210.642L210.954 149.189ZM217.456 147.031V150.203H222.019V151.321H217.456V155H216.156V145.9H222.578V147.031H217.456ZM226.358 147.031V150.203H230.921V151.321H226.358V155H225.058V145.9H231.48V147.031H226.358ZM236.258 145.796C237.48 145.796 238.421 146.19 239.079 146.979C239.747 147.768 240.08 148.886 240.08 150.333C240.08 151.347 239.898 152.214 239.534 152.933C239.179 153.644 238.676 154.185 238.026 154.558C237.385 154.922 236.635 155.104 235.777 155.104C235.335 155.104 234.919 155.061 234.529 154.974C234.139 154.879 233.801 154.744 233.515 154.571L234.009 153.557C234.451 153.843 235.036 153.986 235.764 153.986C236.709 153.986 237.446 153.696 237.974 153.115C238.512 152.526 238.78 151.672 238.78 150.554V150.229C238.52 150.619 238.161 150.918 237.701 151.126C237.242 151.325 236.726 151.425 236.154 151.425C235.556 151.425 235.019 151.312 234.542 151.087C234.074 150.862 233.706 150.541 233.437 150.125C233.177 149.7 233.047 149.215 233.047 148.669C233.047 148.097 233.186 147.594 233.463 147.161C233.749 146.728 234.135 146.394 234.62 146.16C235.106 145.917 235.652 145.796 236.258 145.796ZM236.375 150.372C236.783 150.372 237.147 150.294 237.467 150.138C237.788 149.982 238.035 149.77 238.208 149.501C238.39 149.232 238.481 148.933 238.481 148.604C238.481 148.283 238.395 147.993 238.221 147.733C238.057 147.464 237.81 147.252 237.48 147.096C237.16 146.931 236.77 146.849 236.31 146.849C235.712 146.849 235.227 147.009 234.854 147.33C234.49 147.651 234.308 148.08 234.308 148.617C234.308 149.154 234.495 149.583 234.867 149.904C235.24 150.216 235.743 150.372 236.375 150.372ZM244.764 145.9V155H243.477V147.031H241.423V145.9H244.764ZM255.321 152.764H253.592V155H252.331V152.764H247.274V151.854L251.928 145.9H253.332L248.873 151.646H252.37V149.67H253.592V151.646H255.321V152.764ZM257.492 145.9H261.327C262.289 145.9 263.142 146.091 263.888 146.472C264.633 146.853 265.209 147.391 265.617 148.084C266.033 148.769 266.241 149.557 266.241 150.45C266.241 151.343 266.033 152.136 265.617 152.829C265.209 153.514 264.633 154.047 263.888 154.428C263.142 154.809 262.289 155 261.327 155H257.492V145.9ZM261.249 153.869C261.985 153.869 262.631 153.726 263.186 153.44C263.749 153.154 264.182 152.755 264.486 152.244C264.789 151.724 264.941 151.126 264.941 150.45C264.941 149.774 264.789 149.18 264.486 148.669C264.182 148.149 263.749 147.746 263.186 147.46C262.631 147.174 261.985 147.031 261.249 147.031H258.792V153.869H261.249Z" fill="white"/>
<circle cx="397" cy="150" r="75" fill="#626262"/>
<path d="M373.877 149.189L373.565 151.711H375.372V152.66H373.448L373.162 155H372.239L372.525 152.66H370.068L369.782 155H368.859L369.145 152.66H367.351V151.711H369.262L369.587 149.189H367.767V148.24H369.704L369.99 145.9H370.913L370.627 148.24H373.071L373.357 145.9H374.28L373.994 148.24H375.788V149.189H373.877ZM372.954 149.189H370.51L370.185 151.711H372.642L372.954 149.189ZM381.341 149.475C381.939 149.475 382.472 149.588 382.94 149.813C383.416 150.038 383.789 150.363 384.058 150.788C384.326 151.204 384.461 151.685 384.461 152.231C384.461 152.803 384.318 153.306 384.032 153.739C383.754 154.172 383.369 154.51 382.875 154.753C382.389 154.987 381.843 155.104 381.237 155.104C380.015 155.104 379.07 154.71 378.403 153.921C377.744 153.132 377.415 152.014 377.415 150.567C377.415 149.553 377.592 148.691 377.948 147.98C378.312 147.261 378.814 146.719 379.456 146.355C380.106 145.982 380.86 145.796 381.718 145.796C382.16 145.796 382.576 145.844 382.966 145.939C383.356 146.026 383.694 146.156 383.98 146.329L383.486 147.343C383.052 147.057 382.472 146.914 381.744 146.914C380.799 146.914 380.058 147.209 379.521 147.798C378.983 148.379 378.715 149.228 378.715 150.346C378.715 150.485 378.719 150.593 378.728 150.671C378.988 150.281 379.343 149.986 379.794 149.787C380.253 149.579 380.769 149.475 381.341 149.475ZM381.185 154.051C381.783 154.051 382.268 153.891 382.641 153.57C383.013 153.249 383.2 152.82 383.2 152.283C383.2 151.746 383.009 151.321 382.628 151.009C382.255 150.688 381.752 150.528 381.12 150.528C380.712 150.528 380.348 150.606 380.028 150.762C379.716 150.918 379.469 151.13 379.287 151.399C379.113 151.668 379.027 151.967 379.027 152.296C379.027 152.617 379.109 152.911 379.274 153.18C379.447 153.44 379.694 153.652 380.015 153.817C380.344 153.973 380.734 154.051 381.185 154.051ZM392.484 153.869V155H385.945V154.116L389.65 150.541C390.101 150.108 390.404 149.735 390.56 149.423C390.716 149.102 390.794 148.782 390.794 148.461C390.794 147.984 390.625 147.616 390.287 147.356C389.958 147.087 389.481 146.953 388.857 146.953C387.852 146.953 387.076 147.282 386.53 147.941L385.646 147.174C386.001 146.741 386.465 146.403 387.037 146.16C387.618 145.917 388.263 145.796 388.974 145.796C389.927 145.796 390.686 146.026 391.249 146.485C391.812 146.936 392.094 147.551 392.094 148.331C392.094 148.816 391.99 149.276 391.782 149.709C391.574 150.142 391.18 150.636 390.599 151.191L387.817 153.869H392.484ZM398.091 149.475C398.689 149.475 399.222 149.588 399.69 149.813C400.166 150.038 400.539 150.363 400.808 150.788C401.076 151.204 401.211 151.685 401.211 152.231C401.211 152.803 401.068 153.306 400.782 153.739C400.504 154.172 400.119 154.51 399.625 154.753C399.139 154.987 398.593 155.104 397.987 155.104C396.765 155.104 395.82 154.71 395.153 153.921C394.494 153.132 394.165 152.014 394.165 150.567C394.165 149.553 394.342 148.691 394.698 147.98C395.062 147.261 395.564 146.719 396.206 146.355C396.856 145.982 397.61 145.796 398.468 145.796C398.91 145.796 399.326 145.844 399.716 145.939C400.106 146.026 400.444 146.156 400.73 146.329L400.236 147.343C399.802 147.057 399.222 146.914 398.494 146.914C397.549 146.914 396.808 147.209 396.271 147.798C395.733 148.379 395.465 149.228 395.465 150.346C395.465 150.485 395.469 150.593 395.478 150.671C395.738 150.281 396.093 149.986 396.544 149.787C397.003 149.579 397.519 149.475 398.091 149.475ZM397.935 154.051C398.533 154.051 399.018 153.891 399.391 153.57C399.763 153.249 399.95 152.82 399.95 152.283C399.95 151.746 399.759 151.321 399.378 151.009C399.005 150.688 398.502 150.528 397.87 150.528C397.462 150.528 397.098 150.606 396.778 150.762C396.466 150.918 396.219 151.13 396.037 151.399C395.863 151.668 395.777 151.967 395.777 152.296C395.777 152.617 395.859 152.911 396.024 153.18C396.197 153.44 396.444 153.652 396.765 153.817C397.094 153.973 397.484 154.051 397.935 154.051ZM409.234 153.869V155H402.695V154.116L406.4 150.541C406.851 150.108 407.154 149.735 407.31 149.423C407.466 149.102 407.544 148.782 407.544 148.461C407.544 147.984 407.375 147.616 407.037 147.356C406.708 147.087 406.231 146.953 405.607 146.953C404.602 146.953 403.826 147.282 403.28 147.941L402.396 147.174C402.752 146.741 403.215 146.403 403.787 146.16C404.368 145.917 405.014 145.796 405.724 145.796C406.678 145.796 407.436 146.026 407.999 146.485C408.563 146.936 408.844 147.551 408.844 148.331C408.844 148.816 408.74 149.276 408.532 149.709C408.324 150.142 407.93 150.636 407.349 151.191L404.567 153.869H409.234ZM414.841 149.475C415.439 149.475 415.972 149.588 416.44 149.813C416.917 150.038 417.289 150.363 417.558 150.788C417.827 151.204 417.961 151.685 417.961 152.231C417.961 152.803 417.818 153.306 417.532 153.739C417.255 154.172 416.869 154.51 416.375 154.753C415.89 154.987 415.344 155.104 414.737 155.104C413.515 155.104 412.57 154.71 411.903 153.921C411.244 153.132 410.915 152.014 410.915 150.567C410.915 149.553 411.093 148.691 411.448 147.98C411.812 147.261 412.315 146.719 412.956 146.355C413.606 145.982 414.36 145.796 415.218 145.796C415.66 145.796 416.076 145.844 416.466 145.939C416.856 146.026 417.194 146.156 417.48 146.329L416.986 147.343C416.553 147.057 415.972 146.914 415.244 146.914C414.299 146.914 413.558 147.209 413.021 147.798C412.484 148.379 412.215 149.228 412.215 150.346C412.215 150.485 412.219 150.593 412.228 150.671C412.488 150.281 412.843 149.986 413.294 149.787C413.753 149.579 414.269 149.475 414.841 149.475ZM414.685 154.051C415.283 154.051 415.768 153.891 416.141 153.57C416.514 153.249 416.7 152.82 416.7 152.283C416.7 151.746 416.509 151.321 416.128 151.009C415.755 150.688 415.253 150.528 414.62 150.528C414.213 150.528 413.849 150.606 413.528 150.762C413.216 150.918 412.969 151.13 412.787 151.399C412.614 151.668 412.527 151.967 412.527 152.296C412.527 152.617 412.609 152.911 412.774 153.18C412.947 153.44 413.194 153.652 413.515 153.817C413.844 153.973 414.234 154.051 414.685 154.051ZM425.984 153.869V155H419.445V154.116L423.15 150.541C423.601 150.108 423.904 149.735 424.06 149.423C424.216 149.102 424.294 148.782 424.294 148.461C424.294 147.984 424.125 147.616 423.787 147.356C423.458 147.087 422.981 146.953 422.357 146.953C421.352 146.953 420.576 147.282 420.03 147.941L419.146 147.174C419.502 146.741 419.965 146.403 420.537 146.16C421.118 145.917 421.764 145.796 422.474 145.796C423.428 145.796 424.186 146.026 424.749 146.485C425.313 146.936 425.594 147.551 425.594 148.331C425.594 148.816 425.49 149.276 425.282 149.709C425.074 150.142 424.68 150.636 424.099 151.191L421.317 153.869H425.984Z" fill="white"/>
<circle cx="558" cy="150" r="75" fill="#8D8D8D"/>
<path d="M528.877 149.189L528.565 151.711H530.372V152.66H528.448L528.162 155H527.239L527.525 152.66H525.068L524.782 155H523.859L524.145 152.66H522.351V151.711H524.262L524.587 149.189H522.767V148.24H524.704L524.99 145.9H525.913L525.627 148.24H528.071L528.357 145.9H529.28L528.994 148.24H530.788V149.189H528.877ZM527.954 149.189H525.51L525.185 151.711H527.642L527.954 149.189ZM537.979 150.229C538.499 150.428 538.897 150.714 539.175 151.087C539.452 151.46 539.591 151.906 539.591 152.426C539.591 152.972 539.443 153.449 539.149 153.856C538.854 154.255 538.434 154.562 537.888 154.779C537.342 154.996 536.7 155.104 535.964 155.104C535.236 155.104 534.599 154.996 534.053 154.779C533.515 154.562 533.099 154.255 532.805 153.856C532.51 153.449 532.363 152.972 532.363 152.426C532.363 151.906 532.497 151.46 532.766 151.087C533.043 150.714 533.442 150.428 533.962 150.229C533.546 150.03 533.229 149.765 533.013 149.436C532.796 149.107 532.688 148.717 532.688 148.266C532.688 147.763 532.822 147.326 533.091 146.953C533.368 146.58 533.754 146.294 534.248 146.095C534.742 145.896 535.314 145.796 535.964 145.796C536.622 145.796 537.199 145.896 537.693 146.095C538.195 146.294 538.581 146.58 538.85 146.953C539.127 147.326 539.266 147.763 539.266 148.266C539.266 148.708 539.153 149.098 538.928 149.436C538.711 149.765 538.395 150.03 537.979 150.229ZM535.964 146.849C535.348 146.849 534.863 146.983 534.508 147.252C534.152 147.512 533.975 147.867 533.975 148.318C533.975 148.769 534.148 149.124 534.495 149.384C534.85 149.644 535.34 149.774 535.964 149.774C536.596 149.774 537.09 149.644 537.446 149.384C537.81 149.124 537.992 148.769 537.992 148.318C537.992 147.867 537.805 147.512 537.433 147.252C537.069 146.983 536.579 146.849 535.964 146.849ZM535.964 154.051C536.683 154.051 537.251 153.904 537.667 153.609C538.083 153.306 538.291 152.898 538.291 152.387C538.291 151.884 538.083 151.49 537.667 151.204C537.251 150.909 536.683 150.762 535.964 150.762C535.244 150.762 534.681 150.909 534.274 151.204C533.866 151.49 533.663 151.884 533.663 152.387C533.663 152.898 533.866 153.306 534.274 153.609C534.681 153.904 535.244 154.051 535.964 154.051ZM542.172 145.9H546.007C546.969 145.9 547.823 146.091 548.568 146.472C549.313 146.853 549.89 147.391 550.297 148.084C550.713 148.769 550.921 149.557 550.921 150.45C550.921 151.343 550.713 152.136 550.297 152.829C549.89 153.514 549.313 154.047 548.568 154.428C547.823 154.809 546.969 155 546.007 155H542.172V145.9ZM545.929 153.869C546.666 153.869 547.311 153.726 547.866 153.44C548.429 153.154 548.863 152.755 549.166 152.244C549.469 151.724 549.621 151.126 549.621 150.45C549.621 149.774 549.469 149.18 549.166 148.669C548.863 148.149 548.429 147.746 547.866 147.46C547.311 147.174 546.666 147.031 545.929 147.031H543.472V153.869H545.929ZM558.385 150.229C558.905 150.428 559.304 150.714 559.581 151.087C559.858 151.46 559.997 151.906 559.997 152.426C559.997 152.972 559.85 153.449 559.555 153.856C559.26 154.255 558.84 154.562 558.294 154.779C557.748 154.996 557.107 155.104 556.37 155.104C555.642 155.104 555.005 154.996 554.459 154.779C553.922 154.562 553.506 154.255 553.211 153.856C552.916 153.449 552.769 152.972 552.769 152.426C552.769 151.906 552.903 151.46 553.172 151.087C553.449 150.714 553.848 150.428 554.368 150.229C553.952 150.03 553.636 149.765 553.419 149.436C553.202 149.107 553.094 148.717 553.094 148.266C553.094 147.763 553.228 147.326 553.497 146.953C553.774 146.58 554.16 146.294 554.654 146.095C555.148 145.896 555.72 145.796 556.37 145.796C557.029 145.796 557.605 145.896 558.099 146.095C558.602 146.294 558.987 146.58 559.256 146.953C559.533 147.326 559.672 147.763 559.672 148.266C559.672 148.708 559.559 149.098 559.334 149.436C559.117 149.765 558.801 150.03 558.385 150.229ZM556.37 146.849C555.755 146.849 555.269 146.983 554.914 147.252C554.559 147.512 554.381 147.867 554.381 148.318C554.381 148.769 554.554 149.124 554.901 149.384C555.256 149.644 555.746 149.774 556.37 149.774C557.003 149.774 557.497 149.644 557.852 149.384C558.216 149.124 558.398 148.769 558.398 148.318C558.398 147.867 558.212 147.512 557.839 147.252C557.475 146.983 556.985 146.849 556.37 146.849ZM556.37 154.051C557.089 154.051 557.657 153.904 558.073 153.609C558.489 153.306 558.697 152.898 558.697 152.387C558.697 151.884 558.489 151.49 558.073 151.204C557.657 150.909 557.089 150.762 556.37 150.762C555.651 150.762 555.087 150.909 554.68 151.204C554.273 151.49 554.069 151.884 554.069 152.387C554.069 152.898 554.273 153.306 554.68 153.609C555.087 153.904 555.651 154.051 556.37 154.051ZM562.578 145.9H566.413C567.375 145.9 568.229 146.091 568.974 146.472C569.72 146.853 570.296 147.391 570.703 148.084C571.119 148.769 571.327 149.557 571.327 150.45C571.327 151.343 571.119 152.136 570.703 152.829C570.296 153.514 569.72 154.047 568.974 154.428C568.229 154.809 567.375 155 566.413 155H562.578V145.9ZM566.335 153.869C567.072 153.869 567.718 153.726 568.272 153.44C568.836 153.154 569.269 152.755 569.572 152.244C569.876 151.724 570.027 151.126 570.027 150.45C570.027 149.774 569.876 149.18 569.572 148.669C569.269 148.149 568.836 147.746 568.272 147.46C567.718 147.174 567.072 147.031 566.335 147.031H563.878V153.869H566.335ZM578.792 150.229C579.312 150.428 579.71 150.714 579.988 151.087C580.265 151.46 580.404 151.906 580.404 152.426C580.404 152.972 580.256 153.449 579.962 153.856C579.667 154.255 579.247 154.562 578.701 154.779C578.155 154.996 577.513 155.104 576.777 155.104C576.049 155.104 575.412 154.996 574.866 154.779C574.328 154.562 573.912 154.255 573.618 153.856C573.323 153.449 573.176 152.972 573.176 152.426C573.176 151.906 573.31 151.46 573.579 151.087C573.856 150.714 574.255 150.428 574.775 150.229C574.359 150.03 574.042 149.765 573.826 149.436C573.609 149.107 573.501 148.717 573.501 148.266C573.501 147.763 573.635 147.326 573.904 146.953C574.181 146.58 574.567 146.294 575.061 146.095C575.555 145.896 576.127 145.796 576.777 145.796C577.435 145.796 578.012 145.896 578.506 146.095C579.008 146.294 579.394 146.58 579.663 146.953C579.94 147.326 580.079 147.763 580.079 148.266C580.079 148.708 579.966 149.098 579.741 149.436C579.524 149.765 579.208 150.03 578.792 150.229ZM576.777 146.849C576.161 146.849 575.676 146.983 575.321 147.252C574.965 147.512 574.788 147.867 574.788 148.318C574.788 148.769 574.961 149.124 575.308 149.384C575.663 149.644 576.153 149.774 576.777 149.774C577.409 149.774 577.903 149.644 578.259 149.384C578.623 149.124 578.805 148.769 578.805 148.318C578.805 147.867 578.618 147.512 578.246 147.252C577.882 146.983 577.392 146.849 576.777 146.849ZM576.777 154.051C577.496 154.051 578.064 153.904 578.48 153.609C578.896 153.306 579.104 152.898 579.104 152.387C579.104 151.884 578.896 151.49 578.48 151.204C578.064 150.909 577.496 150.762 576.777 150.762C576.057 150.762 575.494 150.909 575.087 151.204C574.679 151.49 574.476 151.884 574.476 152.387C574.476 152.898 574.679 153.306 575.087 153.609C575.494 153.904 576.057 154.051 576.777 154.051ZM582.985 145.9H586.82C587.782 145.9 588.635 146.091 589.381 146.472C590.126 146.853 590.702 147.391 591.11 148.084C591.526 148.769 591.734 149.557 591.734 150.45C591.734 151.343 591.526 152.136 591.11 152.829C590.702 153.514 590.126 154.047 589.381 154.428C588.635 154.809 587.782 155 586.82 155H582.985V145.9ZM586.742 153.869C587.478 153.869 588.124 153.726 588.679 153.44C589.242 153.154 589.675 152.755 589.979 152.244C590.282 151.724 590.434 151.126 590.434 150.45C590.434 149.774 590.282 149.18 589.979 148.669C589.675 148.149 589.242 147.746 588.679 147.46C588.124 147.174 587.478 147.031 586.742 147.031H584.285V153.869H586.742Z" fill="white"/>
</svg>
