<svg width="500" height="246" viewBox="0 0 500 246" fill="none" xmlns="http://www.w3.org/2000/svg">
<path d="M103.36 84.96C103.36 86.688 102.952 88.2 102.136 89.496C101.32 90.744 100.288 91.704 99.04 92.376C97.84 93 96.664 93.312 95.512 93.312C94.408 93.312 93.352 93.048 92.344 92.52C91.384 91.944 90.76 91.296 90.472 90.576L72.976 119.808C71.632 122.064 70.408 123.672 69.304 124.632C68.248 125.544 67.024 126 65.632 126C62.416 126 60.592 123.936 60.16 119.808L57.856 98.64L43.312 119.808C41.632 122.256 40.264 123.912 39.208 124.776C38.2 125.592 37.024 126 35.68 126C32.752 126 30.976 123.696 30.352 119.088L25.744 86.544C25.6 85.584 25.312 84.816 24.88 84.24C24.496 83.664 23.992 83.112 23.368 82.584C22.936 82.2 22.624 81.888 22.432 81.648C22.24 81.36 22.144 81.048 22.144 80.712C21.904 78.936 22.96 78.048 25.312 78.048H43.24C44.344 78.048 45.16 78.288 45.688 78.768C46.264 79.2 46.528 79.8 46.48 80.568C46.48 80.952 46.36 81.336 46.12 81.72C45.928 82.056 45.712 82.368 45.472 82.656C44.944 83.232 44.56 83.784 44.32 84.312C44.08 84.84 44.008 85.536 44.104 86.4L45.976 103.752L56.776 88.272L56.56 86.544C56.464 85.632 56.224 84.888 55.84 84.312C55.456 83.736 54.928 83.184 54.256 82.656C53.776 82.224 53.44 81.888 53.248 81.648C53.056 81.36 52.96 81.048 52.96 80.712C52.72 78.936 53.776 78.048 56.128 78.048H74.128C75.232 78.048 76.072 78.288 76.648 78.768C77.224 79.2 77.488 79.8 77.44 80.568C77.44 81.192 77.104 81.888 76.432 82.656C75.952 83.232 75.592 83.784 75.352 84.312C75.112 84.84 75.016 85.536 75.064 86.4L75.928 102.096L85.648 85.104C87.232 82.368 88.768 80.472 90.256 79.416C91.744 78.312 93.688 77.76 96.088 77.76C98.248 77.76 100 78.408 101.344 79.704C102.688 81 103.36 82.752 103.36 84.96ZM121.04 87.912C126.56 87.912 130.976 88.944 134.288 91.008C137.6 93.024 139.256 96.12 139.256 100.296C139.256 101.88 138.968 103.68 138.392 105.696L135.44 115.632C135.392 115.824 135.368 116.064 135.368 116.352C135.368 117.12 135.68 117.504 136.304 117.504C136.88 117.504 137.36 117.264 137.744 116.784C138.176 116.256 138.464 115.992 138.608 115.992C138.848 115.992 139.04 116.16 139.184 116.496C139.376 116.832 139.472 117.216 139.472 117.648C139.52 118.944 139.016 120.264 137.96 121.608C136.952 122.952 135.584 124.056 133.856 124.92C132.128 125.784 130.232 126.216 128.168 126.216C125.672 126.216 123.536 125.76 121.76 124.848C119.984 123.936 118.76 122.592 118.088 120.816C116.648 122.544 114.944 123.888 112.976 124.848C111.008 125.76 108.896 126.216 106.64 126.216C104.096 126.216 101.96 125.736 100.232 124.776C98.5039 123.768 97.2079 122.496 96.3439 120.96C95.5279 119.376 95.1199 117.72 95.1199 115.992C95.1199 115.224 95.1919 114.48 95.3359 113.76C96.1039 110.448 97.7599 107.952 100.304 106.272C102.896 104.592 105.968 103.752 109.52 103.752C113.504 103.752 117.416 104.376 121.256 105.624L123.056 100.872C123.68 98.856 123.992 97.296 123.992 96.192C123.944 95.04 123.56 94.176 122.84 93.6C122.12 93.024 121.016 92.736 119.528 92.736C119.816 93.504 119.96 94.296 119.96 95.112C119.96 96.888 119.288 98.424 117.944 99.72C116.6 101.016 114.68 101.664 112.184 101.664C109.832 101.664 107.984 101.16 106.64 100.152C105.344 99.096 104.696 97.8 104.696 96.264C104.696 93.864 106.04 91.872 108.728 90.288C111.416 88.704 115.52 87.912 121.04 87.912ZM117.008 109.728C115.664 109.728 114.56 110.256 113.696 111.312C112.88 112.32 112.472 113.424 112.472 114.624C112.472 115.392 112.64 116.016 112.976 116.496C113.36 116.976 113.888 117.216 114.56 117.216C115.184 117.216 115.856 116.976 116.576 116.496C117.344 115.968 117.896 115.2 118.232 114.192L119.744 109.944C118.928 109.8 118.016 109.728 117.008 109.728ZM165.413 72.792C168.197 72.792 170.237 73.32 171.533 74.376C172.877 75.432 173.549 76.872 173.549 78.696C173.549 79.752 173.381 80.784 173.045 81.792L161.741 118.512C161.597 119.088 161.525 119.592 161.525 120.024C161.525 120.648 161.645 121.152 161.885 121.536C162.125 121.872 162.461 122.208 162.893 122.544C163.229 122.88 163.469 123.168 163.613 123.408C163.757 123.6 163.781 123.864 163.685 124.2C163.445 124.824 162.965 125.28 162.245 125.568C161.525 125.856 160.421 126 158.933 126H142.517C141.269 126 140.357 125.808 139.781 125.424C139.205 124.992 139.013 124.44 139.205 123.768C139.397 123.192 139.901 122.688 140.717 122.256C141.437 121.872 142.037 121.416 142.517 120.888C142.997 120.36 143.405 119.52 143.741 118.368L154.685 82.44C154.829 82.008 154.901 81.648 154.901 81.36C154.901 80.832 154.757 80.4 154.469 80.064C154.229 79.728 153.893 79.392 153.461 79.056C152.981 78.672 152.621 78.336 152.381 78.048C152.189 77.76 152.165 77.376 152.309 76.896C152.597 75.792 154.109 74.832 156.845 74.016C159.581 73.2 162.437 72.792 165.413 72.792ZM211.509 87.912C214.245 87.912 216.429 88.68 218.061 90.216C219.741 91.704 220.581 93.528 220.581 95.688C220.581 97.992 219.885 99.792 218.493 101.088C217.101 102.384 215.277 103.032 213.021 103.032C211.005 103.032 209.445 102.528 208.341 101.52C207.237 100.464 206.709 99.288 206.757 97.992C206.277 97.896 205.869 98.088 205.533 98.568C205.197 99.048 204.837 99.984 204.453 101.376C204.213 102.288 203.757 103.128 203.085 103.896C206.349 104.136 208.773 104.88 210.357 106.128C211.941 107.376 212.733 108.984 212.733 110.952C212.733 111.912 212.565 112.872 212.229 113.832L211.653 116.064C211.557 116.304 211.509 116.616 211.509 117C211.509 117.672 211.821 118.008 212.445 118.008C213.021 118.008 213.501 117.768 213.885 117.288C214.317 116.76 214.605 116.496 214.749 116.496C214.989 116.496 215.181 116.664 215.325 117C215.469 117.288 215.541 117.648 215.541 118.08C215.589 119.472 215.157 120.84 214.245 122.184C213.381 123.48 212.037 124.56 210.213 125.424C208.437 126.24 206.277 126.648 203.733 126.648C200.661 126.648 198.093 125.88 196.029 124.344C194.013 122.808 193.005 120.792 193.005 118.296C193.005 117.384 193.197 116.352 193.581 115.2L194.949 111.6C195.189 110.736 195.309 110.112 195.309 109.728C195.309 109.104 195.093 108.648 194.661 108.36C194.277 108.072 193.653 107.928 192.789 107.928H191.349L188.109 118.512C187.965 119.088 187.893 119.592 187.893 120.024C187.893 120.648 188.013 121.152 188.253 121.536C188.493 121.872 188.829 122.208 189.261 122.544C189.597 122.88 189.837 123.168 189.98 123.408C190.125 123.6 190.149 123.864 190.053 124.2C189.813 124.824 189.333 125.28 188.613 125.568C187.893 125.856 186.789 126 185.301 126H168.885C167.636 126 166.724 125.808 166.148 125.424C165.572 124.992 165.38 124.44 165.572 123.768C165.764 123.192 166.268 122.688 167.084 122.256C167.804 121.872 168.404 121.416 168.885 120.888C169.365 120.36 169.773 119.52 170.109 118.368L181.053 82.44C181.197 82.008 181.269 81.648 181.269 81.36C181.269 80.832 181.125 80.4 180.837 80.064C180.597 79.728 180.261 79.392 179.829 79.056C179.349 78.672 178.989 78.336 178.749 78.048C178.557 77.76 178.533 77.376 178.677 76.896C178.965 75.792 180.477 74.832 183.213 74.016C185.949 73.2 188.805 72.792 191.781 72.792C194.565 72.792 196.605 73.32 197.901 74.376C199.197 75.384 199.845 76.8 199.845 78.624C199.845 79.728 199.677 80.784 199.341 81.792L193.077 102.24H195.453C196.413 102.24 197.181 101.952 197.757 101.376C198.381 100.8 198.861 99.96 199.197 98.856C200.397 95.304 201.957 92.592 203.877 90.72C205.797 88.848 208.341 87.912 211.509 87.912ZM296.484 78.048C297.492 78.048 298.26 78.216 298.788 78.552C299.364 78.84 299.652 79.272 299.652 79.848C299.652 80.088 299.58 80.4 299.436 80.784C299.292 81.216 299.076 81.552 298.788 81.792C298.548 81.984 298.164 82.248 297.636 82.584C296.868 83.016 296.244 83.496 295.764 84.024C295.332 84.552 294.948 85.368 294.612 86.472L285.828 117.432C285.636 118.056 285.54 118.656 285.54 119.232C285.54 119.76 285.612 120.216 285.756 120.6C285.948 120.936 286.188 121.344 286.476 121.824C286.668 122.064 286.836 122.328 286.98 122.616C287.124 122.856 287.196 123.12 287.196 123.408C287.196 123.504 287.148 123.744 287.052 124.128C286.86 124.752 286.404 125.208 285.684 125.496C285.012 125.784 284.028 125.928 282.732 125.928H265.812C264.804 125.928 264.012 125.76 263.436 125.424C262.908 125.088 262.644 124.632 262.644 124.056C262.644 123.768 262.716 123.456 262.86 123.12C263.004 122.784 263.196 122.496 263.436 122.256C263.724 121.968 263.964 121.776 264.156 121.68C264.396 121.536 264.564 121.416 264.66 121.32C265.428 120.888 266.052 120.408 266.532 119.88C267.012 119.352 267.42 118.536 267.756 117.432L273.228 97.992L254.58 121.104C253.044 122.976 251.796 124.272 250.836 124.992C249.924 125.664 248.868 126 247.668 126C246.516 126 245.604 125.64 244.932 124.92C244.308 124.152 243.732 122.88 243.204 121.104L236.436 98.856L231.108 117.504C230.916 118.128 230.82 118.728 230.82 119.304C230.82 119.88 230.892 120.36 231.036 120.744C231.228 121.128 231.492 121.536 231.828 121.968C232.26 122.592 232.476 123.096 232.476 123.48C232.476 123.576 232.428 123.816 232.332 124.2C232.14 124.872 231.708 125.352 231.036 125.64C230.364 125.88 229.356 126 228.012 126H222.036C221.028 126 220.236 125.832 219.66 125.496C219.132 125.16 218.868 124.704 218.868 124.128C218.868 123.84 218.94 123.528 219.084 123.192C219.276 122.664 219.588 122.256 220.02 121.968C220.452 121.68 220.716 121.512 220.812 121.464C221.58 120.984 222.204 120.504 222.684 120.024C223.164 119.496 223.572 118.656 223.908 117.504L232.692 86.4L231.54 82.584C231.3 81.864 231.18 81.168 231.18 80.496C231.18 79.632 231.444 79.008 231.972 78.624C232.548 78.24 233.412 78.048 234.564 78.048H245.724C247.164 78.048 248.22 78.36 248.892 78.984C249.612 79.608 250.188 80.688 250.62 82.224L257.82 106.128L277.332 81.864C278.58 80.328 279.804 79.32 281.004 78.84C282.204 78.312 283.788 78.048 285.756 78.048H296.484ZM331.848 87.912C333.96 87.912 335.64 88.776 336.888 90.504C338.184 92.184 338.832 94.488 338.832 97.416C338.832 99.96 338.376 102.696 337.464 105.624C335.688 111.528 332.832 117.096 328.896 122.328C325.008 127.56 320.52 131.76 315.432 134.928C310.392 138.096 305.352 139.68 300.312 139.68C297.816 139.68 295.656 139.248 293.832 138.384C292.055 137.52 290.711 136.368 289.799 134.928C288.839 133.488 288.359 131.952 288.359 130.32C288.359 129.6 288.479 128.808 288.719 127.944C289.151 126.6 289.871 125.568 290.879 124.848C291.887 124.128 293.087 123.768 294.48 123.768C296.688 123.768 298.488 124.512 299.88 126C301.32 127.536 302.232 129.624 302.616 132.264C305.688 132.12 308.52 130.8 311.112 128.304C308.664 127.872 306.84 127.056 305.64 125.856C304.488 124.608 303.696 122.688 303.264 120.096L300.384 102.456C300.24 101.544 300.024 100.92 299.736 100.584C299.496 100.2 299.16 100.008 298.728 100.008C298.392 100.008 297.984 100.176 297.504 100.512C297.072 100.848 296.76 101.016 296.568 101.016C296.184 101.016 295.992 100.608 295.992 99.792C295.992 99.12 296.112 98.4 296.352 97.632C297.216 94.896 298.824 92.592 301.176 90.72C303.528 88.8 306.264 87.84 309.384 87.84C312.456 87.84 314.712 88.752 316.152 90.576C317.64 92.4 318.6 95.208 319.032 99L321.192 114.84C321.336 116.04 321.768 116.64 322.488 116.64C323.352 116.64 324.36 115.872 325.512 114.336C326.664 112.752 327.792 110.52 328.896 107.64C327.456 106.344 326.352 104.856 325.584 103.176C324.816 101.496 324.432 99.696 324.432 97.776C324.432 96.288 324.624 94.944 325.008 93.744C325.584 91.824 326.472 90.384 327.672 89.424C328.92 88.416 330.312 87.912 331.848 87.912ZM372.824 78.048C380.024 78.048 385.448 79.44 389.096 82.224C392.744 84.96 394.568 88.992 394.568 94.32C394.568 96.96 394.088 100.008 393.128 103.464C391.544 109.032 389.408 113.448 386.72 116.712C384.032 119.976 380.48 122.352 376.064 123.84C371.696 125.328 366.08 126.048 359.216 126L339.632 125.928C338.624 125.928 337.856 125.76 337.328 125.424C336.752 125.088 336.464 124.632 336.464 124.056C336.464 123.768 336.536 123.456 336.68 123.12C336.824 122.688 337.04 122.376 337.328 122.184C337.568 121.992 337.952 121.728 338.48 121.392C339.248 120.96 339.848 120.48 340.28 119.952C340.76 119.424 341.168 118.584 341.504 117.432L350.288 86.472C350.48 85.848 350.576 85.248 350.576 84.672C350.576 84.144 350.48 83.712 350.288 83.376C350.144 82.992 349.928 82.56 349.64 82.08C349.208 81.456 348.992 80.952 348.992 80.568C348.992 80.424 349.04 80.16 349.136 79.776C349.328 79.152 349.736 78.72 350.36 78.48C351.032 78.192 352.04 78.048 353.384 78.048H372.824ZM374.696 101.88C375.944 97.368 376.568 93.816 376.568 91.224C376.568 88.68 376.04 86.928 374.984 85.968C373.928 85.008 372.416 84.528 370.448 84.528H368.864L359.144 119.52H360.872C363.08 119.52 364.928 119.064 366.416 118.152C367.952 117.192 369.368 115.464 370.664 112.968C371.96 110.424 373.304 106.728 374.696 101.88ZM421.817 87.912C428.345 87.912 433.145 89.232 436.217 91.872C439.337 94.512 440.897 97.968 440.897 102.24C440.897 103.68 440.705 105.288 440.321 107.064C439.409 111 437.705 114.456 435.209 117.432C432.713 120.36 429.641 122.64 425.993 124.272C422.393 125.856 418.481 126.648 414.257 126.648C407.585 126.648 402.641 125.328 399.425 122.688C396.257 120 394.673 116.448 394.673 112.032C394.673 110.544 394.865 108.888 395.249 107.064C396.161 103.32 397.889 100.008 400.433 97.128C403.025 94.2 406.169 91.944 409.865 90.36C413.609 88.728 417.593 87.912 421.817 87.912ZM421.601 94.32C420.593 94.32 419.513 95.232 418.361 97.056C417.257 98.832 415.937 102.216 414.401 107.208C412.865 112.2 412.097 115.704 412.097 117.72C412.097 118.776 412.265 119.496 412.601 119.88C412.937 120.216 413.393 120.384 413.969 120.384C414.977 120.48 416.009 119.616 417.065 117.792C418.169 115.968 419.537 112.416 421.169 107.136C422.657 102.48 423.401 99.096 423.401 96.984C423.401 95.976 423.233 95.28 422.897 94.896C422.609 94.512 422.177 94.32 421.601 94.32ZM484.835 76.176C486.371 76.176 487.859 76.512 489.299 77.184C490.787 77.808 491.987 78.696 492.899 79.848C493.859 80.952 494.339 82.152 494.339 83.448C494.339 86.28 492.419 87.696 488.579 87.696C487.475 87.696 486.611 87.624 485.987 87.48C485.411 87.288 484.715 87 483.899 86.616C483.755 86.952 483.683 87.432 483.683 88.056C483.683 88.824 483.803 89.736 484.043 90.792C484.331 91.848 484.667 92.832 485.051 93.744C486.059 95.232 486.563 97.008 486.563 99.072C486.563 99.984 486.443 101.088 486.203 102.384C485.627 104.88 484.355 107.16 482.387 109.224C480.467 111.288 477.971 112.92 474.899 114.12C471.875 115.272 468.539 115.848 464.891 115.848C462.107 115.848 459.491 115.656 457.043 115.272C456.323 115.896 455.963 116.664 455.963 117.576C455.963 118.2 456.251 118.728 456.827 119.16C457.403 119.544 458.363 119.736 459.707 119.736H470.507C474.203 119.736 477.083 120.384 479.147 121.68C481.211 122.928 482.243 124.728 482.243 127.08C482.243 127.944 482.099 128.832 481.811 129.744C481.235 131.616 479.915 133.344 477.851 134.928C475.835 136.56 472.979 137.88 469.283 138.888C465.587 139.896 461.099 140.4 455.819 140.4C451.115 140.4 447.131 139.992 443.867 139.176C440.603 138.36 438.179 137.232 436.595 135.792C434.963 134.4 434.147 132.84 434.147 131.112C434.147 130.728 434.243 130.152 434.435 129.384C434.867 127.992 435.851 126.864 437.387 126C438.875 125.088 441.347 124.488 444.803 124.2C443.651 123.096 443.075 121.776 443.075 120.24C443.075 119.712 443.147 119.16 443.291 118.584C444.059 116.088 446.315 114.24 450.059 113.04C446.459 111.072 444.659 108.192 444.659 104.4C444.659 103.344 444.803 102.24 445.091 101.088C445.667 98.592 446.939 96.336 448.907 94.32C450.875 92.256 453.395 90.624 456.467 89.424C459.539 88.224 462.899 87.624 466.547 87.624C472.259 87.624 476.747 88.368 480.011 89.856C479.291 88.752 478.715 87.576 478.283 86.328C477.899 85.032 477.707 83.856 477.707 82.8C477.707 80.976 478.283 79.416 479.435 78.12C480.635 76.824 482.435 76.176 484.835 76.176ZM469.211 101.736C469.979 99.288 470.363 97.416 470.363 96.12C470.363 94.488 469.667 93.672 468.275 93.672C467.075 93.672 466.019 94.272 465.107 95.472C464.243 96.624 463.355 98.712 462.443 101.736C461.675 104.232 461.291 106.128 461.291 107.424C461.291 109.008 461.963 109.8 463.307 109.8C464.507 109.8 465.563 109.2 466.475 108C467.387 106.8 468.299 104.712 469.211 101.736ZM454.883 127.008C453.539 127.008 452.315 126.936 451.211 126.792C450.635 127.512 450.347 128.472 450.347 129.672C450.395 130.872 450.875 131.736 451.787 132.264C452.747 132.792 454.211 133.056 456.179 133.056C458.579 133.056 460.523 132.696 462.011 131.976C463.547 131.256 464.315 130.224 464.315 128.88C464.315 128.304 464.099 127.848 463.667 127.512C463.235 127.176 462.611 127.008 461.795 127.008H454.883Z" fill="#FF6D00"/>
<rect y="146" width="500" height="100" fill="#FF6D00"/>
<path d="M95.36 178.96C95.36 180.688 94.952 182.2 94.136 183.496C93.32 184.744 92.288 185.704 91.04 186.376C89.84 187 88.664 187.312 87.512 187.312C86.408 187.312 85.352 187.048 84.344 186.52C83.384 185.944 82.76 185.296 82.472 184.576L64.976 213.808C63.632 216.064 62.408 217.672 61.304 218.632C60.248 219.544 59.024 220 57.632 220C54.416 220 52.592 217.936 52.16 213.808L49.856 192.64L35.312 213.808C33.632 216.256 32.264 217.912 31.208 218.776C30.2 219.592 29.024 220 27.68 220C24.752 220 22.976 217.696 22.352 213.088L17.744 180.544C17.6 179.584 17.312 178.816 16.88 178.24C16.496 177.664 15.992 177.112 15.368 176.584C14.936 176.2 14.624 175.888 14.432 175.648C14.24 175.36 14.144 175.048 14.144 174.712C13.904 172.936 14.96 172.048 17.312 172.048H35.24C36.344 172.048 37.16 172.288 37.688 172.768C38.264 173.2 38.528 173.8 38.48 174.568C38.48 174.952 38.36 175.336 38.12 175.72C37.928 176.056 37.712 176.368 37.472 176.656C36.944 177.232 36.56 177.784 36.32 178.312C36.08 178.84 36.008 179.536 36.104 180.4L37.976 197.752L48.776 182.272L48.56 180.544C48.464 179.632 48.224 178.888 47.84 178.312C47.456 177.736 46.928 177.184 46.256 176.656C45.776 176.224 45.44 175.888 45.248 175.648C45.056 175.36 44.96 175.048 44.96 174.712C44.72 172.936 45.776 172.048 48.128 172.048H66.128C67.232 172.048 68.072 172.288 68.648 172.768C69.224 173.2 69.488 173.8 69.44 174.568C69.44 175.192 69.104 175.888 68.432 176.656C67.952 177.232 67.592 177.784 67.352 178.312C67.112 178.84 67.016 179.536 67.064 180.4L67.928 196.096L77.648 179.104C79.232 176.368 80.768 174.472 82.256 173.416C83.744 172.312 85.688 171.76 88.088 171.76C90.248 171.76 92 172.408 93.344 173.704C94.688 175 95.36 176.752 95.36 178.96ZM113.04 181.912C118.56 181.912 122.976 182.944 126.288 185.008C129.6 187.024 131.256 190.12 131.256 194.296C131.256 195.88 130.968 197.68 130.392 199.696L127.44 209.632C127.392 209.824 127.368 210.064 127.368 210.352C127.368 211.12 127.68 211.504 128.304 211.504C128.88 211.504 129.36 211.264 129.744 210.784C130.176 210.256 130.464 209.992 130.608 209.992C130.848 209.992 131.04 210.16 131.184 210.496C131.376 210.832 131.472 211.216 131.472 211.648C131.52 212.944 131.016 214.264 129.96 215.608C128.952 216.952 127.584 218.056 125.856 218.92C124.128 219.784 122.232 220.216 120.168 220.216C117.672 220.216 115.536 219.76 113.76 218.848C111.984 217.936 110.76 216.592 110.088 214.816C108.648 216.544 106.944 217.888 104.976 218.848C103.008 219.76 100.896 220.216 98.6399 220.216C96.0959 220.216 93.9599 219.736 92.2319 218.776C90.5039 217.768 89.2079 216.496 88.3439 214.96C87.5279 213.376 87.1199 211.72 87.1199 209.992C87.1199 209.224 87.1919 208.48 87.3359 207.76C88.1039 204.448 89.7599 201.952 92.3039 200.272C94.8959 198.592 97.9679 197.752 101.52 197.752C105.504 197.752 109.416 198.376 113.256 199.624L115.056 194.872C115.68 192.856 115.992 191.296 115.992 190.192C115.944 189.04 115.56 188.176 114.84 187.6C114.12 187.024 113.016 186.736 111.528 186.736C111.816 187.504 111.96 188.296 111.96 189.112C111.96 190.888 111.288 192.424 109.944 193.72C108.6 195.016 106.68 195.664 104.184 195.664C101.832 195.664 99.9839 195.16 98.6399 194.152C97.3439 193.096 96.6959 191.8 96.6959 190.264C96.6959 187.864 98.0399 185.872 100.728 184.288C103.416 182.704 107.52 181.912 113.04 181.912ZM109.008 203.728C107.664 203.728 106.56 204.256 105.696 205.312C104.88 206.32 104.472 207.424 104.472 208.624C104.472 209.392 104.64 210.016 104.976 210.496C105.36 210.976 105.888 211.216 106.56 211.216C107.184 211.216 107.856 210.976 108.576 210.496C109.344 209.968 109.896 209.2 110.232 208.192L111.744 203.944C110.928 203.8 110.016 203.728 109.008 203.728ZM157.413 166.792C160.197 166.792 162.237 167.32 163.533 168.376C164.877 169.432 165.549 170.872 165.549 172.696C165.549 173.752 165.381 174.784 165.045 175.792L153.741 212.512C153.597 213.088 153.525 213.592 153.525 214.024C153.525 214.648 153.645 215.152 153.885 215.536C154.125 215.872 154.461 216.208 154.893 216.544C155.229 216.88 155.469 217.168 155.613 217.408C155.757 217.6 155.781 217.864 155.685 218.2C155.445 218.824 154.965 219.28 154.245 219.568C153.525 219.856 152.421 220 150.933 220H134.517C133.269 220 132.357 219.808 131.781 219.424C131.205 218.992 131.013 218.44 131.205 217.768C131.397 217.192 131.901 216.688 132.717 216.256C133.437 215.872 134.037 215.416 134.517 214.888C134.997 214.36 135.405 213.52 135.741 212.368L146.685 176.44C146.829 176.008 146.901 175.648 146.901 175.36C146.901 174.832 146.757 174.4 146.469 174.064C146.229 173.728 145.893 173.392 145.461 173.056C144.981 172.672 144.621 172.336 144.381 172.048C144.189 171.76 144.165 171.376 144.309 170.896C144.597 169.792 146.109 168.832 148.845 168.016C151.581 167.2 154.437 166.792 157.413 166.792ZM203.509 181.912C206.245 181.912 208.429 182.68 210.061 184.216C211.741 185.704 212.581 187.528 212.581 189.688C212.581 191.992 211.885 193.792 210.493 195.088C209.101 196.384 207.277 197.032 205.021 197.032C203.005 197.032 201.445 196.528 200.341 195.52C199.237 194.464 198.709 193.288 198.757 191.992C198.277 191.896 197.869 192.088 197.533 192.568C197.197 193.048 196.837 193.984 196.453 195.376C196.213 196.288 195.757 197.128 195.085 197.896C198.349 198.136 200.773 198.88 202.357 200.128C203.941 201.376 204.733 202.984 204.733 204.952C204.733 205.912 204.565 206.872 204.229 207.832L203.653 210.064C203.557 210.304 203.509 210.616 203.509 211C203.509 211.672 203.821 212.008 204.445 212.008C205.021 212.008 205.501 211.768 205.885 211.288C206.317 210.76 206.605 210.496 206.749 210.496C206.989 210.496 207.181 210.664 207.325 211C207.469 211.288 207.541 211.648 207.541 212.08C207.589 213.472 207.157 214.84 206.245 216.184C205.381 217.48 204.037 218.56 202.213 219.424C200.437 220.24 198.277 220.648 195.733 220.648C192.661 220.648 190.093 219.88 188.029 218.344C186.013 216.808 185.005 214.792 185.005 212.296C185.005 211.384 185.197 210.352 185.581 209.2L186.949 205.6C187.189 204.736 187.309 204.112 187.309 203.728C187.309 203.104 187.093 202.648 186.661 202.36C186.277 202.072 185.653 201.928 184.789 201.928H183.349L180.109 212.512C179.965 213.088 179.893 213.592 179.893 214.024C179.893 214.648 180.013 215.152 180.253 215.536C180.493 215.872 180.829 216.208 181.261 216.544C181.597 216.88 181.837 217.168 181.98 217.408C182.125 217.6 182.149 217.864 182.053 218.2C181.813 218.824 181.333 219.28 180.613 219.568C179.893 219.856 178.789 220 177.301 220H160.885C159.636 220 158.724 219.808 158.148 219.424C157.572 218.992 157.38 218.44 157.572 217.768C157.764 217.192 158.268 216.688 159.084 216.256C159.804 215.872 160.404 215.416 160.885 214.888C161.365 214.36 161.773 213.52 162.109 212.368L173.053 176.44C173.197 176.008 173.269 175.648 173.269 175.36C173.269 174.832 173.125 174.4 172.837 174.064C172.597 173.728 172.261 173.392 171.829 173.056C171.349 172.672 170.989 172.336 170.749 172.048C170.557 171.76 170.533 171.376 170.677 170.896C170.965 169.792 172.477 168.832 175.213 168.016C177.949 167.2 180.805 166.792 183.781 166.792C186.565 166.792 188.605 167.32 189.901 168.376C191.197 169.384 191.845 170.8 191.845 172.624C191.845 173.728 191.677 174.784 191.341 175.792L185.077 196.24H187.453C188.413 196.24 189.181 195.952 189.757 195.376C190.381 194.8 190.861 193.96 191.197 192.856C192.397 189.304 193.957 186.592 195.877 184.72C197.797 182.848 200.341 181.912 203.509 181.912ZM288.484 172.048C289.492 172.048 290.26 172.216 290.788 172.552C291.364 172.84 291.652 173.272 291.652 173.848C291.652 174.088 291.58 174.4 291.436 174.784C291.292 175.216 291.076 175.552 290.788 175.792C290.548 175.984 290.164 176.248 289.636 176.584C288.868 177.016 288.244 177.496 287.764 178.024C287.332 178.552 286.948 179.368 286.612 180.472L277.828 211.432C277.636 212.056 277.54 212.656 277.54 213.232C277.54 213.76 277.612 214.216 277.756 214.6C277.948 214.936 278.188 215.344 278.476 215.824C278.668 216.064 278.836 216.328 278.98 216.616C279.124 216.856 279.196 217.12 279.196 217.408C279.196 217.504 279.148 217.744 279.052 218.128C278.86 218.752 278.404 219.208 277.684 219.496C277.012 219.784 276.028 219.928 274.732 219.928H257.812C256.804 219.928 256.012 219.76 255.436 219.424C254.908 219.088 254.644 218.632 254.644 218.056C254.644 217.768 254.716 217.456 254.86 217.12C255.004 216.784 255.196 216.496 255.436 216.256C255.724 215.968 255.964 215.776 256.156 215.68C256.396 215.536 256.564 215.416 256.66 215.32C257.428 214.888 258.052 214.408 258.532 213.88C259.012 213.352 259.42 212.536 259.756 211.432L265.228 191.992L246.58 215.104C245.044 216.976 243.796 218.272 242.836 218.992C241.924 219.664 240.868 220 239.668 220C238.516 220 237.604 219.64 236.932 218.92C236.308 218.152 235.732 216.88 235.204 215.104L228.436 192.856L223.108 211.504C222.916 212.128 222.82 212.728 222.82 213.304C222.82 213.88 222.892 214.36 223.036 214.744C223.228 215.128 223.492 215.536 223.828 215.968C224.26 216.592 224.476 217.096 224.476 217.48C224.476 217.576 224.428 217.816 224.332 218.2C224.14 218.872 223.708 219.352 223.036 219.64C222.364 219.88 221.356 220 220.012 220H214.036C213.028 220 212.236 219.832 211.66 219.496C211.132 219.16 210.868 218.704 210.868 218.128C210.868 217.84 210.94 217.528 211.084 217.192C211.276 216.664 211.588 216.256 212.02 215.968C212.452 215.68 212.716 215.512 212.812 215.464C213.58 214.984 214.204 214.504 214.684 214.024C215.164 213.496 215.572 212.656 215.908 211.504L224.692 180.4L223.54 176.584C223.3 175.864 223.18 175.168 223.18 174.496C223.18 173.632 223.444 173.008 223.972 172.624C224.548 172.24 225.412 172.048 226.564 172.048H237.724C239.164 172.048 240.22 172.36 240.892 172.984C241.612 173.608 242.188 174.688 242.62 176.224L249.82 200.128L269.332 175.864C270.58 174.328 271.804 173.32 273.004 172.84C274.204 172.312 275.788 172.048 277.756 172.048H288.484ZM323.848 181.912C325.96 181.912 327.64 182.776 328.888 184.504C330.184 186.184 330.832 188.488 330.832 191.416C330.832 193.96 330.376 196.696 329.464 199.624C327.688 205.528 324.832 211.096 320.896 216.328C317.008 221.56 312.52 225.76 307.432 228.928C302.392 232.096 297.352 233.68 292.312 233.68C289.816 233.68 287.656 233.248 285.832 232.384C284.055 231.52 282.711 230.368 281.799 228.928C280.839 227.488 280.359 225.952 280.359 224.32C280.359 223.6 280.479 222.808 280.719 221.944C281.151 220.6 281.871 219.568 282.879 218.848C283.887 218.128 285.087 217.768 286.48 217.768C288.688 217.768 290.488 218.512 291.88 220C293.32 221.536 294.232 223.624 294.616 226.264C297.688 226.12 300.52 224.8 303.112 222.304C300.664 221.872 298.84 221.056 297.64 219.856C296.488 218.608 295.696 216.688 295.264 214.096L292.384 196.456C292.24 195.544 292.024 194.92 291.736 194.584C291.496 194.2 291.16 194.008 290.728 194.008C290.392 194.008 289.984 194.176 289.504 194.512C289.072 194.848 288.76 195.016 288.568 195.016C288.184 195.016 287.992 194.608 287.992 193.792C287.992 193.12 288.112 192.4 288.352 191.632C289.216 188.896 290.824 186.592 293.176 184.72C295.528 182.8 298.264 181.84 301.384 181.84C304.456 181.84 306.712 182.752 308.152 184.576C309.64 186.4 310.6 189.208 311.032 193L313.192 208.84C313.336 210.04 313.768 210.64 314.488 210.64C315.352 210.64 316.36 209.872 317.512 208.336C318.664 206.752 319.792 204.52 320.896 201.64C319.456 200.344 318.352 198.856 317.584 197.176C316.816 195.496 316.432 193.696 316.432 191.776C316.432 190.288 316.624 188.944 317.008 187.744C317.584 185.824 318.472 184.384 319.672 183.424C320.92 182.416 322.312 181.912 323.848 181.912ZM364.824 172.048C372.024 172.048 377.448 173.44 381.096 176.224C384.744 178.96 386.568 182.992 386.568 188.32C386.568 190.96 386.088 194.008 385.128 197.464C383.544 203.032 381.408 207.448 378.72 210.712C376.032 213.976 372.48 216.352 368.064 217.84C363.696 219.328 358.08 220.048 351.216 220L331.632 219.928C330.624 219.928 329.856 219.76 329.328 219.424C328.752 219.088 328.464 218.632 328.464 218.056C328.464 217.768 328.536 217.456 328.68 217.12C328.824 216.688 329.04 216.376 329.328 216.184C329.568 215.992 329.952 215.728 330.48 215.392C331.248 214.96 331.848 214.48 332.28 213.952C332.76 213.424 333.168 212.584 333.504 211.432L342.288 180.472C342.48 179.848 342.576 179.248 342.576 178.672C342.576 178.144 342.48 177.712 342.288 177.376C342.144 176.992 341.928 176.56 341.64 176.08C341.208 175.456 340.992 174.952 340.992 174.568C340.992 174.424 341.04 174.16 341.136 173.776C341.328 173.152 341.736 172.72 342.36 172.48C343.032 172.192 344.04 172.048 345.384 172.048H364.824ZM366.696 195.88C367.944 191.368 368.568 187.816 368.568 185.224C368.568 182.68 368.04 180.928 366.984 179.968C365.928 179.008 364.416 178.528 362.448 178.528H360.864L351.144 213.52H352.872C355.08 213.52 356.928 213.064 358.416 212.152C359.952 211.192 361.368 209.464 362.664 206.968C363.96 204.424 365.304 200.728 366.696 195.88ZM413.817 181.912C420.345 181.912 425.145 183.232 428.217 185.872C431.337 188.512 432.897 191.968 432.897 196.24C432.897 197.68 432.705 199.288 432.321 201.064C431.409 205 429.705 208.456 427.209 211.432C424.713 214.36 421.641 216.64 417.993 218.272C414.393 219.856 410.481 220.648 406.257 220.648C399.585 220.648 394.641 219.328 391.425 216.688C388.257 214 386.673 210.448 386.673 206.032C386.673 204.544 386.865 202.888 387.249 201.064C388.161 197.32 389.889 194.008 392.433 191.128C395.025 188.2 398.169 185.944 401.865 184.36C405.609 182.728 409.593 181.912 413.817 181.912ZM413.601 188.32C412.593 188.32 411.513 189.232 410.361 191.056C409.257 192.832 407.937 196.216 406.401 201.208C404.865 206.2 404.097 209.704 404.097 211.72C404.097 212.776 404.265 213.496 404.601 213.88C404.937 214.216 405.393 214.384 405.969 214.384C406.977 214.48 408.009 213.616 409.065 211.792C410.169 209.968 411.537 206.416 413.169 201.136C414.657 196.48 415.401 193.096 415.401 190.984C415.401 189.976 415.233 189.28 414.897 188.896C414.609 188.512 414.177 188.32 413.601 188.32ZM476.835 170.176C478.371 170.176 479.859 170.512 481.299 171.184C482.787 171.808 483.987 172.696 484.899 173.848C485.859 174.952 486.339 176.152 486.339 177.448C486.339 180.28 484.419 181.696 480.579 181.696C479.475 181.696 478.611 181.624 477.987 181.48C477.411 181.288 476.715 181 475.899 180.616C475.755 180.952 475.683 181.432 475.683 182.056C475.683 182.824 475.803 183.736 476.043 184.792C476.331 185.848 476.667 186.832 477.051 187.744C478.059 189.232 478.563 191.008 478.563 193.072C478.563 193.984 478.443 195.088 478.203 196.384C477.627 198.88 476.355 201.16 474.387 203.224C472.467 205.288 469.971 206.92 466.899 208.12C463.875 209.272 460.539 209.848 456.891 209.848C454.107 209.848 451.491 209.656 449.043 209.272C448.323 209.896 447.963 210.664 447.963 211.576C447.963 212.2 448.251 212.728 448.827 213.16C449.403 213.544 450.363 213.736 451.707 213.736H462.507C466.203 213.736 469.083 214.384 471.147 215.68C473.211 216.928 474.243 218.728 474.243 221.08C474.243 221.944 474.099 222.832 473.811 223.744C473.235 225.616 471.915 227.344 469.851 228.928C467.835 230.56 464.979 231.88 461.283 232.888C457.587 233.896 453.099 234.4 447.819 234.4C443.115 234.4 439.131 233.992 435.867 233.176C432.603 232.36 430.179 231.232 428.595 229.792C426.963 228.4 426.147 226.84 426.147 225.112C426.147 224.728 426.243 224.152 426.435 223.384C426.867 221.992 427.851 220.864 429.387 220C430.875 219.088 433.347 218.488 436.803 218.2C435.651 217.096 435.075 215.776 435.075 214.24C435.075 213.712 435.147 213.16 435.291 212.584C436.059 210.088 438.315 208.24 442.059 207.04C438.459 205.072 436.659 202.192 436.659 198.4C436.659 197.344 436.803 196.24 437.091 195.088C437.667 192.592 438.939 190.336 440.907 188.32C442.875 186.256 445.395 184.624 448.467 183.424C451.539 182.224 454.899 181.624 458.547 181.624C464.259 181.624 468.747 182.368 472.011 183.856C471.291 182.752 470.715 181.576 470.283 180.328C469.899 179.032 469.707 177.856 469.707 176.8C469.707 174.976 470.283 173.416 471.435 172.12C472.635 170.824 474.435 170.176 476.835 170.176ZM461.211 195.736C461.979 193.288 462.363 191.416 462.363 190.12C462.363 188.488 461.667 187.672 460.275 187.672C459.075 187.672 458.019 188.272 457.107 189.472C456.243 190.624 455.355 192.712 454.443 195.736C453.675 198.232 453.291 200.128 453.291 201.424C453.291 203.008 453.963 203.8 455.307 203.8C456.507 203.8 457.563 203.2 458.475 202C459.387 200.8 460.299 198.712 461.211 195.736ZM446.883 221.008C445.539 221.008 444.315 220.936 443.211 220.792C442.635 221.512 442.347 222.472 442.347 223.672C442.395 224.872 442.875 225.736 443.787 226.264C444.747 226.792 446.211 227.056 448.179 227.056C450.579 227.056 452.523 226.696 454.011 225.976C455.547 225.256 456.315 224.224 456.315 222.88C456.315 222.304 456.099 221.848 455.667 221.512C455.235 221.176 454.611 221.008 453.795 221.008H446.883Z" fill="white"/>
<path d="M196.492 14.552H199.984V32.084H210.964V35H196.492V14.552ZM225.297 35.288C223.209 35.288 221.313 34.832 219.609 33.92C217.905 33.008 216.573 31.76 215.613 30.176C214.653 28.568 214.173 26.768 214.173 24.776C214.173 22.784 214.653 20.996 215.613 19.412C216.573 17.804 217.905 16.544 219.609 15.632C221.313 14.72 223.209 14.264 225.297 14.264C227.409 14.264 229.305 14.72 230.985 15.632C232.689 16.544 234.021 17.804 234.981 19.412C235.941 20.996 236.421 22.784 236.421 24.776C236.421 26.768 235.941 28.568 234.981 30.176C234.021 31.76 232.689 33.008 230.985 33.92C229.305 34.832 227.409 35.288 225.297 35.288ZM225.297 32.264C226.737 32.264 228.033 31.94 229.185 31.292C230.337 30.644 231.237 29.756 231.885 28.628C232.557 27.5 232.893 26.216 232.893 24.776C232.893 23.336 232.557 22.052 231.885 20.924C231.237 19.796 230.337 18.908 229.185 18.26C228.033 17.612 226.737 17.288 225.297 17.288C223.857 17.288 222.561 17.612 221.409 18.26C220.257 18.908 219.345 19.796 218.673 20.924C218.025 22.052 217.701 23.336 217.701 24.776C217.701 26.216 218.025 27.5 218.673 28.628C219.345 29.756 220.257 30.644 221.409 31.292C222.561 31.94 223.857 32.264 225.297 32.264ZM257.159 24.668H260.543V32.66C259.559 33.5 258.371 34.148 256.979 34.604C255.587 35.06 254.147 35.288 252.659 35.288C250.523 35.288 248.591 34.832 246.863 33.92C245.159 33.008 243.815 31.76 242.831 30.176C241.871 28.568 241.391 26.768 241.391 24.776C241.391 22.784 241.871 20.996 242.831 19.412C243.791 17.804 245.123 16.544 246.827 15.632C248.531 14.72 250.427 14.264 252.515 14.264C256.115 14.264 258.863 15.332 260.759 17.468L258.527 19.736C256.967 18.104 254.987 17.288 252.587 17.288C251.123 17.288 249.803 17.612 248.627 18.26C247.475 18.884 246.563 19.772 245.891 20.924C245.243 22.052 244.919 23.336 244.919 24.776C244.919 26.192 245.243 27.476 245.891 28.628C246.563 29.756 247.487 30.644 248.663 31.292C249.863 31.94 251.207 32.264 252.695 32.264C254.423 32.264 255.911 31.88 257.159 31.112V24.668ZM277.87 35.288C275.782 35.288 273.886 34.832 272.182 33.92C270.478 33.008 269.146 31.76 268.186 30.176C267.226 28.568 266.746 26.768 266.746 24.776C266.746 22.784 267.226 20.996 268.186 19.412C269.146 17.804 270.478 16.544 272.182 15.632C273.886 14.72 275.782 14.264 277.87 14.264C279.982 14.264 281.878 14.72 283.558 15.632C285.262 16.544 286.594 17.804 287.554 19.412C288.514 20.996 288.994 22.784 288.994 24.776C288.994 26.768 288.514 28.568 287.554 30.176C286.594 31.76 285.262 33.008 283.558 33.92C281.878 34.832 279.982 35.288 277.87 35.288ZM277.87 32.264C279.31 32.264 280.606 31.94 281.758 31.292C282.91 30.644 283.81 29.756 284.458 28.628C285.13 27.5 285.466 26.216 285.466 24.776C285.466 23.336 285.13 22.052 284.458 20.924C283.81 19.796 282.91 18.908 281.758 18.26C280.606 17.612 279.31 17.288 277.87 17.288C276.43 17.288 275.134 17.612 273.982 18.26C272.83 18.908 271.918 19.796 271.246 20.924C270.598 22.052 270.274 23.336 270.274 24.776C270.274 26.216 270.598 27.5 271.246 28.628C271.918 29.756 272.83 30.644 273.982 31.292C275.134 31.94 276.43 32.264 277.87 32.264ZM301.848 35.288C300.264 35.288 298.716 35.072 297.204 34.64C295.716 34.184 294.552 33.584 293.712 32.84L295.08 30.104C295.896 30.776 296.916 31.316 298.14 31.724C299.388 32.132 300.672 32.336 301.992 32.336C303.6 32.336 304.776 32.072 305.52 31.544C306.288 31.016 306.672 30.332 306.672 29.492C306.672 28.844 306.444 28.316 305.988 27.908C305.556 27.5 305.004 27.188 304.332 26.972C303.66 26.756 302.748 26.528 301.596 26.288C300.036 25.952 298.764 25.604 297.78 25.244C296.82 24.884 295.992 24.32 295.296 23.552C294.624 22.76 294.288 21.692 294.288 20.348C294.288 18.524 295.02 17.06 296.484 15.956C297.972 14.828 299.988 14.264 302.532 14.264C303.828 14.264 305.076 14.42 306.276 14.732C307.5 15.02 308.544 15.452 309.408 16.028L308.148 18.836C306.588 17.756 304.68 17.216 302.424 17.216C300.864 17.216 299.7 17.492 298.932 18.044C298.164 18.572 297.78 19.268 297.78 20.132C297.78 20.78 297.996 21.308 298.428 21.716C298.884 22.124 299.448 22.436 300.12 22.652C300.816 22.868 301.74 23.096 302.892 23.336C304.476 23.696 305.736 24.056 306.672 24.416C307.632 24.752 308.448 25.304 309.12 26.072C309.816 26.84 310.164 27.872 310.164 29.168C310.164 31.04 309.42 32.528 307.932 33.632C306.468 34.736 304.44 35.288 301.848 35.288Z" fill="black"/>
</svg>
