<svg width="239" height="417" viewBox="0 0 239 417" fill="none" xmlns="http://www.w3.org/2000/svg">
<path d="M7.128 17.432H0.144V14.552H17.604V17.432H10.62V35H7.128V17.432ZM31.2247 28.34V35H27.7327V28.232L19.3447 14.552H23.0527L29.5687 25.028L36.0487 14.552H39.6487L31.2247 28.34ZM53.4127 14.552C56.1247 14.552 58.2607 15.188 59.8207 16.46C61.3807 17.732 62.1607 19.496 62.1607 21.752C62.1607 24.032 61.3807 25.808 59.8207 27.08C58.2607 28.352 56.1247 28.988 53.4127 28.988H48.5527V35H45.0607V14.552H53.4127ZM53.1967 26.072C54.9727 26.072 56.3167 25.7 57.2287 24.956C58.1647 24.212 58.6327 23.144 58.6327 21.752C58.6327 20.36 58.1647 19.292 57.2287 18.548C56.3167 17.804 54.9727 17.432 53.1967 17.432H48.5527V26.072H53.1967ZM78.5064 35.288C76.4184 35.288 74.5224 34.832 72.8184 33.92C71.1144 33.008 69.7824 31.76 68.8224 30.176C67.8624 28.568 67.3824 26.768 67.3824 24.776C67.3824 22.784 67.8624 20.996 68.8224 19.412C69.7824 17.804 71.1144 16.544 72.8184 15.632C74.5224 14.72 76.4184 14.264 78.5064 14.264C80.6184 14.264 82.5144 14.72 84.1944 15.632C85.8984 16.544 87.2304 17.804 88.1904 19.412C89.1504 20.996 89.6304 22.784 89.6304 24.776C89.6304 26.768 89.1504 28.568 88.1904 30.176C87.2304 31.76 85.8984 33.008 84.1944 33.92C82.5144 34.832 80.6184 35.288 78.5064 35.288ZM78.5064 32.264C79.9464 32.264 81.2424 31.94 82.3944 31.292C83.5464 30.644 84.4464 29.756 85.0944 28.628C85.7664 27.5 86.1024 26.216 86.1024 24.776C86.1024 23.336 85.7664 22.052 85.0944 20.924C84.4464 19.796 83.5464 18.908 82.3944 18.26C81.2424 17.612 79.9464 17.288 78.5064 17.288C77.0664 17.288 75.7704 17.612 74.6184 18.26C73.4664 18.908 72.5544 19.796 71.8824 20.924C71.2344 22.052 70.9104 23.336 70.9104 24.776C70.9104 26.216 71.2344 27.5 71.8824 28.628C72.5544 29.756 73.4664 30.644 74.6184 31.292C75.7704 31.94 77.0664 32.264 78.5064 32.264ZM110.368 24.668H113.752V32.66C112.768 33.5 111.58 34.148 110.188 34.604C108.796 35.06 107.356 35.288 105.868 35.288C103.732 35.288 101.8 34.832 100.072 33.92C98.3684 33.008 97.0244 31.76 96.0404 30.176C95.0804 28.568 94.6004 26.768 94.6004 24.776C94.6004 22.784 95.0804 20.996 96.0404 19.412C97.0004 17.804 98.3324 16.544 100.036 15.632C101.74 14.72 103.636 14.264 105.724 14.264C109.324 14.264 112.072 15.332 113.968 17.468L111.736 19.736C110.176 18.104 108.196 17.288 105.796 17.288C104.332 17.288 103.012 17.612 101.836 18.26C100.684 18.884 99.7724 19.772 99.1004 20.924C98.4524 22.052 98.1284 23.336 98.1284 24.776C98.1284 26.192 98.4524 27.476 99.1004 28.628C99.7724 29.756 100.696 30.644 101.872 31.292C103.072 31.94 104.416 32.264 105.904 32.264C107.632 32.264 109.12 31.88 110.368 31.112V24.668ZM135.543 35L131.151 28.88C130.959 28.904 130.647 28.916 130.215 28.916H125.355V35H121.863V14.552H130.215C132.927 14.552 135.063 15.188 136.623 16.46C138.183 17.732 138.963 19.496 138.963 21.752C138.963 23.312 138.567 24.644 137.775 25.748C137.007 26.852 135.903 27.68 134.463 28.232L139.323 35H135.543ZM129.999 26.072C131.775 26.072 133.119 25.7 134.031 24.956C134.967 24.212 135.435 23.144 135.435 21.752C135.435 20.36 134.967 19.292 134.031 18.548C133.119 17.804 131.775 17.432 129.999 17.432H125.355V26.072H129.999ZM159.371 30.14H148.391L146.231 35H142.811L152.171 14.552H155.627L165.023 35H161.495L159.371 30.14ZM158.147 27.368L153.899 17.72L149.615 27.368H158.147ZM178.639 14.552C181.351 14.552 183.487 15.188 185.047 16.46C186.607 17.732 187.387 19.496 187.387 21.752C187.387 24.032 186.607 25.808 185.047 27.08C183.487 28.352 181.351 28.988 178.639 28.988H173.779V35H170.287V14.552H178.639ZM178.423 26.072C180.199 26.072 181.543 25.7 182.455 24.956C183.391 24.212 183.859 23.144 183.859 21.752C183.859 20.36 183.391 19.292 182.455 18.548C181.543 17.804 180.199 17.432 178.423 17.432H173.779V26.072H178.423ZM194.517 14.552H198.009V23.192H209.205V14.552H212.697V35H209.205V26.072H198.009V35H194.517V14.552ZM229.949 28.34V35H226.457V28.232L218.069 14.552H221.777L228.293 25.028L234.773 14.552H238.373L229.949 28.34Z" fill="black"/>
<path d="M74.836 50.776V61H73.396L67.492 53.782V61H65.746V50.776H67.186L73.09 58.03V50.776H74.836ZM82.7059 61.144C81.3019 61.144 80.2039 60.748 79.4119 59.956C78.6199 59.164 78.2239 58.054 78.2239 56.626V50.776H79.9699V56.59C79.9699 57.586 80.2039 58.342 80.6719 58.858C81.1399 59.374 81.8239 59.632 82.7239 59.632C83.6119 59.632 84.2899 59.374 84.7579 58.858C85.2379 58.342 85.4779 57.586 85.4779 56.59V50.776H87.1879V56.626C87.1879 58.054 86.7919 59.164 85.9999 59.956C85.2079 60.748 84.1099 61.144 82.7059 61.144ZM99.6563 50.776V61H98.2163L92.3123 53.782V61H90.5663V50.776H92.0063L97.9103 58.03V50.776H99.6563ZM103.152 50.776H104.898V61H103.152V50.776ZM110.191 52.216H106.699V50.776H115.429V52.216H111.937V61H110.191V52.216ZM121.682 61.144C120.638 61.144 119.69 60.916 118.838 60.46C117.986 60.004 117.32 59.38 116.84 58.588C116.36 57.784 116.12 56.884 116.12 55.888C116.12 54.892 116.36 53.998 116.84 53.206C117.32 52.402 117.986 51.772 118.838 51.316C119.69 50.86 120.638 50.632 121.682 50.632C122.738 50.632 123.686 50.86 124.526 51.316C125.378 51.772 126.044 52.402 126.524 53.206C127.004 53.998 127.244 54.892 127.244 55.888C127.244 56.884 127.004 57.784 126.524 58.588C126.044 59.38 125.378 60.004 124.526 60.46C123.686 60.916 122.738 61.144 121.682 61.144ZM121.682 59.632C122.402 59.632 123.05 59.47 123.626 59.146C124.202 58.822 124.652 58.378 124.976 57.814C125.312 57.25 125.48 56.608 125.48 55.888C125.48 55.168 125.312 54.526 124.976 53.962C124.652 53.398 124.202 52.954 123.626 52.63C123.05 52.306 122.402 52.144 121.682 52.144C120.962 52.144 120.314 52.306 119.738 52.63C119.162 52.954 118.706 53.398 118.37 53.962C118.046 54.526 117.884 55.168 117.884 55.888C117.884 56.608 118.046 57.25 118.37 57.814C118.706 58.378 119.162 58.822 119.738 59.146C120.314 59.47 120.962 59.632 121.682 59.632ZM137.605 61.144C136.813 61.144 136.039 61.036 135.283 60.82C134.539 60.592 133.957 60.292 133.537 59.92L134.221 58.552C134.629 58.888 135.139 59.158 135.751 59.362C136.375 59.566 137.017 59.668 137.677 59.668C138.481 59.668 139.069 59.536 139.441 59.272C139.825 59.008 140.017 58.666 140.017 58.246C140.017 57.922 139.903 57.658 139.675 57.454C139.459 57.25 139.183 57.094 138.847 56.986C138.511 56.878 138.055 56.764 137.479 56.644C136.699 56.476 136.063 56.302 135.571 56.122C135.091 55.942 134.677 55.66 134.329 55.276C133.993 54.88 133.825 54.346 133.825 53.674C133.825 52.762 134.191 52.03 134.923 51.478C135.667 50.914 136.675 50.632 137.947 50.632C138.595 50.632 139.219 50.71 139.819 50.866C140.431 51.01 140.953 51.226 141.385 51.514L140.755 52.918C139.975 52.378 139.021 52.108 137.893 52.108C137.113 52.108 136.531 52.246 136.147 52.522C135.763 52.786 135.571 53.134 135.571 53.566C135.571 53.89 135.679 54.154 135.895 54.358C136.123 54.562 136.405 54.718 136.741 54.826C137.089 54.934 137.551 55.048 138.127 55.168C138.919 55.348 139.549 55.528 140.017 55.708C140.497 55.876 140.905 56.152 141.241 56.536C141.589 56.92 141.763 57.436 141.763 58.084C141.763 59.02 141.391 59.764 140.647 60.316C139.915 60.868 138.901 61.144 137.605 61.144ZM150.696 58.57H145.206L144.126 61H142.416L147.096 50.776H148.824L153.522 61H151.758L150.696 58.57ZM150.084 57.184L147.96 52.36L145.818 57.184H150.084ZM164.344 50.776V61H162.904L157 53.782V61H155.254V50.776H156.694L162.598 58.03V50.776H164.344ZM170.828 61.144C170.036 61.144 169.262 61.036 168.506 60.82C167.762 60.592 167.18 60.292 166.76 59.92L167.444 58.552C167.852 58.888 168.362 59.158 168.974 59.362C169.598 59.566 170.24 59.668 170.9 59.668C171.704 59.668 172.292 59.536 172.664 59.272C173.048 59.008 173.24 58.666 173.24 58.246C173.24 57.922 173.126 57.658 172.898 57.454C172.682 57.25 172.406 57.094 172.07 56.986C171.734 56.878 171.278 56.764 170.702 56.644C169.922 56.476 169.286 56.302 168.794 56.122C168.314 55.942 167.9 55.66 167.552 55.276C167.216 54.88 167.048 54.346 167.048 53.674C167.048 52.762 167.414 52.03 168.146 51.478C168.89 50.914 169.898 50.632 171.17 50.632C171.818 50.632 172.442 50.71 173.042 50.866C173.654 51.01 174.176 51.226 174.608 51.514L173.978 52.918C173.198 52.378 172.244 52.108 171.116 52.108C170.336 52.108 169.754 52.246 169.37 52.522C168.986 52.786 168.794 53.134 168.794 53.566C168.794 53.89 168.902 54.154 169.118 54.358C169.346 54.562 169.628 54.718 169.964 54.826C170.312 54.934 170.774 55.048 171.35 55.168C172.142 55.348 172.772 55.528 173.24 55.708C173.72 55.876 174.128 56.152 174.464 56.536C174.812 56.92 174.986 57.436 174.986 58.084C174.986 59.02 174.614 59.764 173.87 60.316C173.138 60.868 172.124 61.144 170.828 61.144Z" fill="#626262"/>
<path d="M27.672 131.704C24.1307 131.704 20.7813 131.256 17.624 130.36C14.5093 129.464 11.9067 128.248 9.816 126.712L12.696 118.904C14.7013 120.312 16.984 121.421 19.544 122.232C22.1467 123.043 24.856 123.448 27.672 123.448C30.744 123.448 32.9413 122.979 34.264 122.04C35.6293 121.059 36.312 119.843 36.312 118.392C36.312 117.155 35.8427 116.173 34.904 115.448C33.9653 114.723 32.3227 114.104 29.976 113.592L22.744 112.056C14.68 110.349 10.648 106.168 10.648 99.512C10.648 96.6533 11.416 94.1573 12.952 92.024C14.488 89.848 16.6213 88.1627 19.352 86.968C22.1253 85.7733 25.3253 85.176 28.952 85.176C32.0667 85.176 34.9893 85.624 37.72 86.52C40.4507 87.416 42.712 88.6747 44.504 90.296L41.624 97.592C38.1253 94.8187 33.88 93.432 28.888 93.432C26.2 93.432 24.1093 93.9653 22.616 95.032C21.1653 96.056 20.44 97.4 20.44 99.064C20.44 100.301 20.888 101.304 21.784 102.072C22.68 102.84 24.2373 103.459 26.456 103.928L33.688 105.464C41.9653 107.256 46.104 111.309 46.104 117.624C46.104 120.44 45.336 122.915 43.8 125.048C42.3067 127.139 40.1733 128.781 37.4 129.976C34.6693 131.128 31.4267 131.704 27.672 131.704ZM68.032 131.704C64.32 131.704 61.12 131.043 58.432 129.72C55.7867 128.355 53.7387 126.456 52.288 124.024C50.88 121.549 50.176 118.648 50.176 115.32C50.176 112.077 50.8587 109.24 52.224 106.808C53.632 104.333 55.5307 102.413 57.92 101.048C60.352 99.64 63.1467 98.936 66.304 98.936C70.8693 98.936 74.496 100.387 77.184 103.288C79.872 106.147 81.216 110.029 81.216 114.936V117.368H59.392C59.7333 119.843 60.6293 121.656 62.08 122.808C63.5733 123.917 65.6213 124.472 68.224 124.472C69.9307 124.472 71.6587 124.216 73.408 123.704C75.1573 123.192 76.736 122.403 78.144 121.336L80.704 127.8C79.1253 128.995 77.184 129.955 74.88 130.68C72.6187 131.363 70.336 131.704 68.032 131.704ZM66.688 105.336C64.64 105.336 62.976 105.955 61.696 107.192C60.4587 108.429 59.6907 110.157 59.392 112.376H73.216C72.96 107.683 70.784 105.336 66.688 105.336ZM102.133 131.704C98.7197 131.704 95.733 131.043 93.173 129.72C90.6557 128.355 88.7143 126.435 87.349 123.96C85.9837 121.485 85.301 118.563 85.301 115.192C85.301 111.821 85.9837 108.92 87.349 106.488C88.7143 104.056 90.6557 102.2 93.173 100.92C95.733 99.5973 98.7197 98.936 102.133 98.936C104.138 98.936 106.165 99.2347 108.213 99.832C110.261 100.429 111.925 101.283 113.205 102.392L110.517 109.048C109.45 108.195 108.256 107.533 106.933 107.064C105.61 106.552 104.33 106.296 103.093 106.296C100.576 106.296 98.613 107.085 97.205 108.664C95.8397 110.2 95.157 112.397 95.157 115.256C95.157 118.072 95.8397 120.291 97.205 121.912C98.613 123.491 100.576 124.28 103.093 124.28C104.288 124.28 105.546 124.045 106.869 123.576C108.234 123.107 109.45 122.424 110.517 121.528L113.205 128.184C111.925 129.293 110.261 130.168 108.213 130.808C106.165 131.405 104.138 131.704 102.133 131.704ZM133.011 131.704C124.179 131.704 119.763 127.416 119.763 118.84V106.808H113.811V99.576H119.763V90.36H129.427V99.576H138.707V106.808H129.427V118.456C129.427 120.248 129.832 121.592 130.643 122.488C131.496 123.384 132.84 123.832 134.675 123.832C135.23 123.832 135.806 123.768 136.403 123.64C137.043 123.512 137.726 123.341 138.451 123.128L139.859 130.168C138.963 130.637 137.896 131 136.659 131.256C135.422 131.555 134.206 131.704 133.011 131.704ZM143.078 93.496V84.472H153.51V93.496H143.078ZM143.462 131V99.576H153.126V131H143.462ZM175.691 131.704C172.32 131.704 169.376 131.043 166.859 129.72C164.384 128.355 162.464 126.456 161.099 124.024C159.734 121.549 159.051 118.627 159.051 115.256C159.051 111.928 159.734 109.048 161.099 106.616C162.464 104.141 164.384 102.243 166.859 100.92C169.376 99.5973 172.32 98.936 175.691 98.936C179.062 98.936 181.984 99.5973 184.459 100.92C186.976 102.243 188.918 104.141 190.283 106.616C191.691 109.048 192.395 111.928 192.395 115.256C192.395 118.627 191.691 121.549 190.283 124.024C188.918 126.456 186.976 128.355 184.459 129.72C181.984 131.043 179.062 131.704 175.691 131.704ZM175.691 124.472C177.739 124.472 179.403 123.725 180.683 122.232C182.006 120.739 182.667 118.413 182.667 115.256C182.667 112.141 182.006 109.859 180.683 108.408C179.403 106.915 177.739 106.168 175.691 106.168C173.643 106.168 171.979 106.915 170.699 108.408C169.419 109.859 168.779 112.141 168.779 115.256C168.779 118.413 169.419 120.739 170.699 122.232C171.979 123.725 173.643 124.472 175.691 124.472ZM198.275 131V99.576H207.747V104.184C208.813 102.477 210.243 101.176 212.035 100.28C213.827 99.384 215.832 98.936 218.051 98.936C221.763 98.936 224.536 100.024 226.371 102.2C228.205 104.333 229.123 107.64 229.123 112.12V131H219.459V112.568C219.459 110.392 219.053 108.835 218.243 107.896C217.432 106.915 216.237 106.424 214.659 106.424C212.611 106.424 210.968 107.064 209.731 108.344C208.536 109.624 207.939 111.331 207.939 113.464V131H198.275Z" fill="#FF6D00"/>
<path d="M84.224 152.16V153H78.47V145.09H84.056V145.93H79.478V148.576H83.566V149.402H79.478V152.16H84.224ZM91.8763 153L89.3843 149.668L86.8923 153H85.7583L88.8383 148.926L85.9403 145.09H87.0743L89.3983 148.198L91.7223 145.09H92.8423L89.9583 148.926L93.0243 153H91.8763ZM96.3768 145.93H93.5908V145.09H100.171V145.93H97.3848V153H96.3768V145.93ZM107.808 153L106.016 150.508C105.774 150.527 105.592 150.536 105.47 150.536H103.398V153H102.39V145.09H105.47C106.497 145.09 107.304 145.333 107.892 145.818C108.48 146.294 108.774 146.961 108.774 147.82C108.774 148.427 108.616 148.945 108.298 149.374C107.99 149.803 107.547 150.116 106.968 150.312L108.9 153H107.808ZM105.414 149.71C106.17 149.71 106.749 149.547 107.15 149.22C107.561 148.893 107.766 148.427 107.766 147.82C107.766 147.213 107.566 146.747 107.164 146.42C106.763 146.093 106.18 145.93 105.414 145.93H103.398V149.71H105.414ZM116.755 150.956H112.317L111.393 153H110.385L114.039 145.09H115.033L118.687 153H117.679L116.755 150.956ZM116.391 150.144L114.543 146.042L112.681 150.144H116.391ZM130.466 148.912C130.989 149.033 131.385 149.262 131.656 149.598C131.936 149.925 132.076 150.349 132.076 150.872C132.076 151.553 131.815 152.081 131.292 152.454C130.779 152.818 130.018 153 129.01 153H125.258V145.09H128.786C129.691 145.09 130.391 145.267 130.886 145.622C131.39 145.977 131.642 146.476 131.642 147.12C131.642 147.549 131.539 147.918 131.334 148.226C131.129 148.525 130.839 148.753 130.466 148.912ZM126.266 145.874V148.604H128.702C129.327 148.604 129.808 148.487 130.144 148.254C130.48 148.021 130.648 147.68 130.648 147.232C130.648 146.784 130.48 146.448 130.144 146.224C129.808 145.991 129.327 145.874 128.702 145.874H126.266ZM128.968 152.216C130.359 152.216 131.054 151.745 131.054 150.802C131.054 150.317 130.877 149.962 130.522 149.738C130.177 149.505 129.659 149.388 128.968 149.388H126.266V152.216H128.968ZM138.33 153.084C137.536 153.084 136.813 152.911 136.16 152.566C135.516 152.211 135.007 151.726 134.634 151.11C134.27 150.494 134.088 149.803 134.088 149.038C134.088 148.282 134.27 147.596 134.634 146.98C135.007 146.364 135.516 145.879 136.16 145.524C136.813 145.169 137.536 144.992 138.33 144.992C139.132 144.992 139.856 145.169 140.5 145.524C141.144 145.869 141.648 146.355 142.012 146.98C142.385 147.596 142.572 148.282 142.572 149.038C142.572 149.803 142.385 150.494 142.012 151.11C141.648 151.726 141.144 152.211 140.5 152.566C139.856 152.911 139.132 153.084 138.33 153.084ZM138.33 152.216C138.936 152.216 139.487 152.081 139.982 151.81C140.476 151.53 140.864 151.152 141.144 150.676C141.424 150.191 141.564 149.649 141.564 149.052C141.564 148.445 141.424 147.904 141.144 147.428C140.864 146.943 140.476 146.565 139.982 146.294C139.487 146.014 138.936 145.874 138.33 145.874C137.723 145.874 137.172 146.014 136.678 146.294C136.183 146.565 135.796 146.943 135.516 147.428C135.236 147.904 135.096 148.445 135.096 149.052C135.096 149.649 135.236 150.191 135.516 150.676C135.796 151.152 136.183 151.53 136.678 151.81C137.172 152.081 137.723 152.216 138.33 152.216ZM145.416 145.09H146.424V152.16H150.834V153H145.416V145.09ZM153.116 145.09H156.434C157.311 145.09 158.076 145.258 158.73 145.594C159.383 145.921 159.882 146.383 160.228 146.98C160.582 147.568 160.76 148.254 160.76 149.038C160.76 149.822 160.582 150.513 160.228 151.11C159.882 151.707 159.383 152.174 158.73 152.51C158.076 152.837 157.311 153 156.434 153H153.116V145.09ZM156.392 152.16C157.446 152.16 158.268 151.88 158.856 151.32C159.453 150.751 159.752 149.99 159.752 149.038C159.752 148.095 159.453 147.344 158.856 146.784C158.268 146.215 157.446 145.93 156.392 145.93H154.124V152.16H156.392Z" fill="black"/>
<path d="M42.936 232V198.16H47.928V212.752H66.888V198.16H71.832V232H66.888V216.928H47.928V232H42.936ZM90.1969 232.432C86.3569 232.432 83.3329 231.36 81.1249 229.216C78.9169 227.04 77.8129 224.08 77.8129 220.336C77.8129 217.936 78.2929 215.824 79.2529 214C80.2449 212.144 81.6049 210.704 83.3329 209.68C85.0609 208.656 87.0449 208.144 89.2849 208.144C92.5169 208.144 95.0609 209.184 96.9169 211.264C98.7729 213.312 99.7009 216.144 99.7009 219.76V221.392H82.5169C82.8689 226.256 85.4449 228.688 90.2449 228.688C91.5889 228.688 92.9009 228.48 94.1809 228.064C95.4929 227.648 96.7249 226.96 97.8769 226L99.3169 229.36C98.2609 230.32 96.9009 231.072 95.2369 231.616C93.5729 232.16 91.8929 232.432 90.1969 232.432ZM89.4769 211.552C87.4609 211.552 85.8609 212.176 84.6769 213.424C83.4929 214.672 82.7729 216.336 82.5169 218.416H95.6209C95.5249 216.24 94.9489 214.56 93.8929 213.376C92.8369 212.16 91.3649 211.552 89.4769 211.552ZM112.474 232.432C110.842 232.432 109.386 232.112 108.106 231.472C106.826 230.832 105.802 229.968 105.034 228.88C104.298 227.792 103.93 226.56 103.93 225.184C103.93 223.456 104.362 222.096 105.226 221.104C106.122 220.112 107.578 219.392 109.594 218.944C111.642 218.496 114.394 218.272 117.85 218.272H119.482V217.024C119.482 215.2 119.098 213.888 118.33 213.088C117.562 212.288 116.298 211.888 114.538 211.888C113.194 211.888 111.85 212.096 110.506 212.512C109.162 212.896 107.786 213.52 106.378 214.384L104.89 210.976C106.106 210.112 107.626 209.424 109.45 208.912C111.274 208.4 113.018 208.144 114.682 208.144C117.882 208.144 120.25 208.912 121.786 210.448C123.322 211.952 124.09 214.32 124.09 217.552V232H119.53V228.112C118.954 229.456 118.058 230.512 116.842 231.28C115.626 232.048 114.17 232.432 112.474 232.432ZM113.434 228.976C115.162 228.976 116.602 228.368 117.754 227.152C118.906 225.936 119.482 224.4 119.482 222.544V221.248H117.898C115.562 221.248 113.722 221.36 112.378 221.584C111.066 221.808 110.122 222.192 109.546 222.736C109.002 223.248 108.73 223.968 108.73 224.896C108.73 226.112 109.146 227.104 109.978 227.872C110.81 228.608 111.962 228.976 113.434 228.976ZM139.695 232.432C137.647 232.432 135.839 231.952 134.271 230.992C132.735 230 131.535 228.592 130.671 226.768C129.807 224.944 129.375 222.784 129.375 220.288C129.375 217.792 129.807 215.648 130.671 213.856C131.535 212.032 132.735 210.624 134.271 209.632C135.807 208.64 137.615 208.144 139.695 208.144C141.455 208.144 143.023 208.528 144.399 209.296C145.775 210.064 146.799 211.104 147.471 212.416V198.16H152.319V232H147.567V227.92C146.895 229.328 145.855 230.432 144.447 231.232C143.071 232.032 141.487 232.432 139.695 232.432ZM140.943 228.688C142.927 228.688 144.527 227.968 145.743 226.528C146.959 225.088 147.567 223.008 147.567 220.288C147.567 217.568 146.959 215.504 145.743 214.096C144.527 212.656 142.927 211.936 140.943 211.936C138.927 211.936 137.311 212.656 136.095 214.096C134.879 215.504 134.271 217.568 134.271 220.288C134.271 223.008 134.879 225.088 136.095 226.528C137.311 227.968 138.927 228.688 140.943 228.688ZM170.119 232.432C166.279 232.432 163.255 231.36 161.047 229.216C158.839 227.04 157.735 224.08 157.735 220.336C157.735 217.936 158.215 215.824 159.175 214C160.167 212.144 161.527 210.704 163.255 209.68C164.983 208.656 166.967 208.144 169.207 208.144C172.439 208.144 174.983 209.184 176.839 211.264C178.695 213.312 179.623 216.144 179.623 219.76V221.392H162.439C162.791 226.256 165.367 228.688 170.167 228.688C171.511 228.688 172.823 228.48 174.103 228.064C175.415 227.648 176.647 226.96 177.799 226L179.239 229.36C178.183 230.32 176.823 231.072 175.159 231.616C173.495 232.16 171.815 232.432 170.119 232.432ZM169.399 211.552C167.383 211.552 165.783 212.176 164.599 213.424C163.415 214.672 162.695 216.336 162.439 218.416H175.543C175.447 216.24 174.871 214.56 173.815 213.376C172.759 212.16 171.287 211.552 169.399 211.552ZM184.908 232V208.576H189.612V212.752C190.828 209.968 193.356 208.416 197.196 208.096L198.78 208L199.116 212.128L196.188 212.416C191.932 212.832 189.804 215.024 189.804 218.992V232H184.908Z" fill="#FF6D00"/>
<path d="M84.654 254.084C84.0473 254.084 83.464 253.995 82.904 253.818C82.3533 253.631 81.9193 253.389 81.602 253.09L82.022 252.306C82.3207 252.577 82.708 252.801 83.184 252.978C83.6693 253.146 84.1687 253.23 84.682 253.23C85.3727 253.23 85.8813 253.109 86.208 252.866C86.544 252.623 86.712 252.311 86.712 251.928C86.712 251.629 86.6187 251.391 86.432 251.214C86.2453 251.027 86.012 250.887 85.732 250.794C85.452 250.701 85.074 250.598 84.598 250.486C84.0007 250.346 83.52 250.206 83.156 250.066C82.792 249.926 82.4793 249.711 82.218 249.422C81.966 249.123 81.84 248.727 81.84 248.232C81.84 247.569 82.106 247.033 82.638 246.622C83.17 246.202 83.912 245.992 84.864 245.992C85.34 245.992 85.802 246.053 86.25 246.174C86.7073 246.295 87.0947 246.468 87.412 246.692L87.048 247.504C86.4413 247.075 85.704 246.86 84.836 246.86C84.1733 246.86 83.674 246.986 83.338 247.238C83.002 247.481 82.834 247.798 82.834 248.19C82.834 248.489 82.9273 248.731 83.114 248.918C83.3007 249.095 83.534 249.231 83.814 249.324C84.1033 249.417 84.4907 249.52 84.976 249.632C85.564 249.772 86.04 249.912 86.404 250.052C86.768 250.183 87.076 250.393 87.328 250.682C87.5893 250.971 87.72 251.359 87.72 251.844C87.72 252.516 87.4493 253.057 86.908 253.468C86.376 253.879 85.6247 254.084 84.654 254.084ZM96.2521 253.16V254H90.4981V246.09H96.0841V246.93H91.5061V249.576H95.5941V250.402H91.5061V253.16H96.2521ZM106.604 254V247.91L103.58 253.006H103.118L100.094 247.994V254H99.1278V246.09H99.9958L103.356 251.76L106.702 246.09H107.57L107.584 254H106.604ZM111.23 246.09H112.238V254H111.23V246.09ZM125.453 249.912C125.976 250.033 126.373 250.262 126.643 250.598C126.923 250.925 127.063 251.349 127.063 251.872C127.063 252.553 126.802 253.081 126.279 253.454C125.766 253.818 125.005 254 123.997 254H120.245V246.09H123.773C124.679 246.09 125.379 246.267 125.873 246.622C126.377 246.977 126.629 247.476 126.629 248.12C126.629 248.549 126.527 248.918 126.321 249.226C126.116 249.525 125.827 249.753 125.453 249.912ZM121.253 246.874V249.604H123.689C124.315 249.604 124.795 249.487 125.131 249.254C125.467 249.021 125.635 248.68 125.635 248.232C125.635 247.784 125.467 247.448 125.131 247.224C124.795 246.991 124.315 246.874 123.689 246.874H121.253ZM123.955 253.216C125.346 253.216 126.041 252.745 126.041 251.802C126.041 251.317 125.864 250.962 125.509 250.738C125.164 250.505 124.646 250.388 123.955 250.388H121.253V253.216H123.955ZM133.317 254.084C132.524 254.084 131.8 253.911 131.147 253.566C130.503 253.211 129.994 252.726 129.621 252.11C129.257 251.494 129.075 250.803 129.075 250.038C129.075 249.282 129.257 248.596 129.621 247.98C129.994 247.364 130.503 246.879 131.147 246.524C131.8 246.169 132.524 245.992 133.317 245.992C134.12 245.992 134.843 246.169 135.487 246.524C136.131 246.869 136.635 247.355 136.999 247.98C137.372 248.596 137.559 249.282 137.559 250.038C137.559 250.803 137.372 251.494 136.999 252.11C136.635 252.726 136.131 253.211 135.487 253.566C134.843 253.911 134.12 254.084 133.317 254.084ZM133.317 253.216C133.924 253.216 134.474 253.081 134.969 252.81C135.464 252.53 135.851 252.152 136.131 251.676C136.411 251.191 136.551 250.649 136.551 250.052C136.551 249.445 136.411 248.904 136.131 248.428C135.851 247.943 135.464 247.565 134.969 247.294C134.474 247.014 133.924 246.874 133.317 246.874C132.71 246.874 132.16 247.014 131.665 247.294C131.17 247.565 130.783 247.943 130.503 248.428C130.223 248.904 130.083 249.445 130.083 250.052C130.083 250.649 130.223 251.191 130.503 251.676C130.783 252.152 131.17 252.53 131.665 252.81C132.16 253.081 132.71 253.216 133.317 253.216ZM140.403 246.09H141.411V253.16H145.821V254H140.403V246.09ZM148.103 246.09H151.421C152.299 246.09 153.064 246.258 153.717 246.594C154.371 246.921 154.87 247.383 155.215 247.98C155.57 248.568 155.747 249.254 155.747 250.038C155.747 250.822 155.57 251.513 155.215 252.11C154.87 252.707 154.371 253.174 153.717 253.51C153.064 253.837 152.299 254 151.421 254H148.103V246.09ZM151.379 253.16C152.434 253.16 153.255 252.88 153.843 252.32C154.441 251.751 154.739 250.99 154.739 250.038C154.739 249.095 154.441 248.344 153.843 247.784C153.255 247.215 152.434 246.93 151.379 246.93H149.111V253.16H151.379Z" fill="black"/>
<path d="M40.52 321.36C38.528 321.36 36.68 321.108 34.976 320.604C33.272 320.076 31.832 319.368 30.656 318.48L32.06 314.844C33.236 315.684 34.52 316.332 35.912 316.788C37.328 317.244 38.864 317.472 40.52 317.472C42.416 317.472 43.796 317.16 44.66 316.536C45.524 315.888 45.956 315.06 45.956 314.052C45.956 313.212 45.644 312.552 45.02 312.072C44.42 311.592 43.376 311.196 41.888 310.884L37.928 310.056C33.416 309.096 31.16 306.78 31.16 303.108C31.16 301.524 31.58 300.144 32.42 298.968C33.26 297.792 34.424 296.88 35.912 296.232C37.4 295.584 39.116 295.26 41.06 295.26C42.788 295.26 44.408 295.524 45.92 296.052C47.432 296.556 48.692 297.276 49.7 298.212L48.296 301.668C46.304 299.988 43.88 299.148 41.024 299.148C39.368 299.148 38.072 299.496 37.136 300.192C36.2 300.888 35.732 301.8 35.732 302.928C35.732 303.792 36.02 304.488 36.596 305.016C37.172 305.52 38.156 305.916 39.548 306.204L43.472 307.032C45.848 307.536 47.612 308.328 48.764 309.408C49.94 310.488 50.528 311.928 50.528 313.728C50.528 315.24 50.12 316.572 49.304 317.724C48.488 318.876 47.324 319.776 45.812 320.424C44.324 321.048 42.56 321.36 40.52 321.36ZM60.4229 321.36C56.1029 321.36 53.9429 318.936 53.9429 314.088V303.396H58.4429V314.16C58.4429 315.408 58.6949 316.332 59.1989 316.932C59.7029 317.532 60.5069 317.832 61.6109 317.832C62.8109 317.832 63.7949 317.424 64.5629 316.608C65.3309 315.768 65.7149 314.664 65.7149 313.296V303.396H70.2149V321H65.8229V318.372C64.6469 320.364 62.8469 321.36 60.4229 321.36ZM85.0506 321.36C83.7546 321.36 82.5906 321.072 81.5586 320.496C80.5506 319.92 79.7946 319.14 79.2906 318.156V321H74.8986V295.62H79.3986V305.988C79.9266 305.1 80.6826 304.392 81.6666 303.864C82.6746 303.312 83.8026 303.036 85.0506 303.036C86.6106 303.036 87.9666 303.408 89.1186 304.152C90.2706 304.896 91.1706 305.952 91.8186 307.32C92.4666 308.664 92.7906 310.284 92.7906 312.18C92.7906 314.052 92.4666 315.684 91.8186 317.076C91.1706 318.444 90.2586 319.5 89.0826 320.244C87.9306 320.988 86.5866 321.36 85.0506 321.36ZM83.7906 317.94C85.1346 317.94 86.2146 317.46 87.0306 316.5C87.8466 315.516 88.2546 314.076 88.2546 312.18C88.2546 310.26 87.8466 308.832 87.0306 307.896C86.2146 306.936 85.1346 306.456 83.7906 306.456C82.4466 306.456 81.3666 306.936 80.5506 307.896C79.7346 308.832 79.3266 310.26 79.3266 312.18C79.3266 314.076 79.7346 315.516 80.5506 316.5C81.3666 317.46 82.4466 317.94 83.7906 317.94ZM96.4845 321V295.62H100.985V305.952C101.585 304.992 102.389 304.272 103.397 303.792C104.405 303.288 105.521 303.036 106.745 303.036C110.897 303.036 112.973 305.448 112.973 310.272V321H108.473V310.488C108.473 309.12 108.209 308.124 107.681 307.5C107.177 306.876 106.385 306.564 105.305 306.564C103.985 306.564 102.929 306.984 102.137 307.824C101.369 308.64 100.985 309.732 100.985 311.1V321H96.4845ZM126.219 321.36C124.227 321.36 122.511 320.988 121.071 320.244C119.631 319.5 118.515 318.444 117.723 317.076C116.955 315.708 116.571 314.088 116.571 312.216C116.571 310.392 116.943 308.796 117.687 307.428C118.455 306.06 119.499 304.992 120.819 304.224C122.163 303.432 123.687 303.036 125.391 303.036C127.887 303.036 129.855 303.828 131.295 305.412C132.759 306.996 133.491 309.156 133.491 311.892V313.224H120.891C121.227 316.368 123.027 317.94 126.291 317.94C127.275 317.94 128.259 317.796 129.243 317.508C130.227 317.196 131.127 316.716 131.943 316.068L133.203 319.092C132.363 319.788 131.307 320.34 130.035 320.748C128.763 321.156 127.491 321.36 126.219 321.36ZM125.571 306.096C124.251 306.096 123.183 306.504 122.367 307.32C121.551 308.136 121.059 309.24 120.891 310.632H129.747C129.651 309.168 129.243 308.052 128.523 307.284C127.827 306.492 126.843 306.096 125.571 306.096ZM142.851 321.36C141.579 321.36 140.439 321.12 139.431 320.64C138.447 320.136 137.667 319.464 137.091 318.624C136.539 317.784 136.263 316.836 136.263 315.78C136.263 314.484 136.599 313.464 137.271 312.72C137.943 311.952 139.035 311.4 140.547 311.064C142.059 310.728 144.087 310.56 146.631 310.56H147.891V309.804C147.891 308.604 147.627 307.74 147.099 307.212C146.571 306.684 145.683 306.42 144.435 306.42C143.451 306.42 142.443 306.576 141.411 306.888C140.379 307.176 139.335 307.632 138.279 308.256L136.983 305.196C137.607 304.764 138.339 304.392 139.179 304.08C140.043 303.744 140.943 303.492 141.879 303.324C142.839 303.132 143.739 303.036 144.579 303.036C147.147 303.036 149.055 303.636 150.303 304.836C151.551 306.012 152.175 307.848 152.175 310.344V321H147.963V318.192C147.555 319.176 146.907 319.956 146.019 320.532C145.131 321.084 144.075 321.36 142.851 321.36ZM143.787 318.264C144.963 318.264 145.935 317.856 146.703 317.04C147.495 316.224 147.891 315.192 147.891 313.944V313.152H146.667C144.411 313.152 142.839 313.332 141.951 313.692C141.087 314.028 140.655 314.652 140.655 315.564C140.655 316.356 140.931 317.004 141.483 317.508C142.035 318.012 142.803 318.264 143.787 318.264ZM163.51 321.36C161.974 321.36 160.618 320.988 159.442 320.244C158.29 319.5 157.39 318.444 156.742 317.076C156.094 315.684 155.77 314.052 155.77 312.18C155.77 310.284 156.094 308.664 156.742 307.32C157.39 305.952 158.29 304.896 159.442 304.152C160.618 303.408 161.974 303.036 163.51 303.036C164.758 303.036 165.886 303.312 166.894 303.864C167.902 304.416 168.658 305.148 169.162 306.06V295.62H173.662V321H169.27V318.084C168.79 319.092 168.034 319.896 167.002 320.496C165.97 321.072 164.806 321.36 163.51 321.36ZM164.77 317.94C166.114 317.94 167.194 317.46 168.01 316.5C168.826 315.516 169.234 314.076 169.234 312.18C169.234 310.26 168.826 308.832 168.01 307.896C167.194 306.936 166.114 306.456 164.77 306.456C163.426 306.456 162.346 306.936 161.53 307.896C160.714 308.832 160.306 310.26 160.306 312.18C160.306 314.076 160.714 315.516 161.53 316.5C162.346 317.46 163.426 317.94 164.77 317.94ZM187.004 321.36C185.012 321.36 183.296 320.988 181.856 320.244C180.416 319.5 179.3 318.444 178.508 317.076C177.74 315.708 177.356 314.088 177.356 312.216C177.356 310.392 177.728 308.796 178.472 307.428C179.24 306.06 180.284 304.992 181.604 304.224C182.948 303.432 184.472 303.036 186.176 303.036C188.672 303.036 190.64 303.828 192.08 305.412C193.544 306.996 194.276 309.156 194.276 311.892V313.224H181.676C182.012 316.368 183.812 317.94 187.076 317.94C188.06 317.94 189.044 317.796 190.028 317.508C191.012 317.196 191.912 316.716 192.728 316.068L193.988 319.092C193.148 319.788 192.092 320.34 190.82 320.748C189.548 321.156 188.276 321.36 187.004 321.36ZM186.356 306.096C185.036 306.096 183.968 306.504 183.152 307.32C182.336 308.136 181.844 309.24 181.676 310.632H190.532C190.436 309.168 190.028 308.052 189.308 307.284C188.612 306.492 187.628 306.096 186.356 306.096ZM197.84 321V303.396H202.232V306.492C203.096 304.404 204.944 303.252 207.776 303.036L209.144 302.928L209.432 306.744L206.84 306.996C203.888 307.284 202.412 308.796 202.412 311.532V321H197.84Z" fill="#8D8D8D"/>
<path d="M107.678 335.912C108.201 336.033 108.597 336.262 108.868 336.598C109.148 336.925 109.288 337.349 109.288 337.872C109.288 338.553 109.027 339.081 108.504 339.454C107.991 339.818 107.23 340 106.222 340H102.47V332.09H105.998C106.903 332.09 107.603 332.267 108.098 332.622C108.602 332.977 108.854 333.476 108.854 334.12C108.854 334.549 108.751 334.918 108.546 335.226C108.341 335.525 108.051 335.753 107.678 335.912ZM103.478 332.874V335.604H105.914C106.539 335.604 107.02 335.487 107.356 335.254C107.692 335.021 107.86 334.68 107.86 334.232C107.86 333.784 107.692 333.448 107.356 333.224C107.02 332.991 106.539 332.874 105.914 332.874H103.478ZM106.18 339.216C107.571 339.216 108.266 338.745 108.266 337.802C108.266 337.317 108.089 336.962 107.734 336.738C107.389 336.505 106.871 336.388 106.18 336.388H103.478V339.216H106.18ZM115.542 340.084C114.748 340.084 114.025 339.911 113.372 339.566C112.728 339.211 112.219 338.726 111.846 338.11C111.482 337.494 111.3 336.803 111.3 336.038C111.3 335.282 111.482 334.596 111.846 333.98C112.219 333.364 112.728 332.879 113.372 332.524C114.025 332.169 114.748 331.992 115.542 331.992C116.344 331.992 117.068 332.169 117.712 332.524C118.356 332.869 118.86 333.355 119.224 333.98C119.597 334.596 119.784 335.282 119.784 336.038C119.784 336.803 119.597 337.494 119.224 338.11C118.86 338.726 118.356 339.211 117.712 339.566C117.068 339.911 116.344 340.084 115.542 340.084ZM115.542 339.216C116.148 339.216 116.699 339.081 117.194 338.81C117.688 338.53 118.076 338.152 118.356 337.676C118.636 337.191 118.776 336.649 118.776 336.052C118.776 335.445 118.636 334.904 118.356 334.428C118.076 333.943 117.688 333.565 117.194 333.294C116.699 333.014 116.148 332.874 115.542 332.874C114.935 332.874 114.384 333.014 113.89 333.294C113.395 333.565 113.008 333.943 112.728 334.428C112.448 334.904 112.308 335.445 112.308 336.052C112.308 336.649 112.448 337.191 112.728 337.676C113.008 338.152 113.395 338.53 113.89 338.81C114.384 339.081 114.935 339.216 115.542 339.216ZM122.628 332.09H123.636V339.16H128.046V340H122.628V332.09ZM130.328 332.09H133.646C134.523 332.09 135.288 332.258 135.942 332.594C136.595 332.921 137.094 333.383 137.44 333.98C137.794 334.568 137.972 335.254 137.972 336.038C137.972 336.822 137.794 337.513 137.44 338.11C137.094 338.707 136.595 339.174 135.942 339.51C135.288 339.837 134.523 340 133.646 340H130.328V332.09ZM133.604 339.16C134.658 339.16 135.48 338.88 136.068 338.32C136.665 337.751 136.964 336.99 136.964 336.038C136.964 335.095 136.665 334.344 136.068 333.784C135.48 333.215 134.658 332.93 133.604 332.93H131.336V339.16H133.604Z" fill="black"/>
<path d="M94.088 395V378.08H100.856C102.6 378.08 103.944 378.472 104.888 379.256C105.848 380.024 106.328 381.104 106.328 382.496C106.328 383.424 106.088 384.216 105.608 384.872C105.128 385.528 104.464 386.008 103.616 386.312C104.592 386.568 105.352 387.04 105.896 387.728C106.456 388.416 106.736 389.288 106.736 390.344C106.736 391.848 106.248 393 105.272 393.8C104.296 394.6 102.92 395 101.144 395H94.088ZM96.008 385.64H100.568C103.112 385.64 104.384 384.648 104.384 382.664C104.384 380.664 103.112 379.664 100.568 379.664H96.008V385.64ZM96.008 393.416H100.952C103.512 393.416 104.792 392.384 104.792 390.32C104.792 388.256 103.512 387.224 100.952 387.224H96.008V393.416ZM114.891 395.216C113.755 395.216 112.771 394.968 111.939 394.472C111.107 393.976 110.459 393.28 109.995 392.384C109.547 391.472 109.323 390.4 109.323 389.168C109.323 387.936 109.547 386.872 109.995 385.976C110.459 385.064 111.107 384.36 111.939 383.864C112.771 383.368 113.755 383.12 114.891 383.12C116.011 383.12 116.987 383.368 117.819 383.864C118.667 384.36 119.315 385.064 119.763 385.976C120.227 386.872 120.459 387.936 120.459 389.168C120.459 390.4 120.227 391.472 119.763 392.384C119.315 393.28 118.667 393.976 117.819 394.472C116.987 394.968 116.011 395.216 114.891 395.216ZM114.891 393.656C115.979 393.656 116.851 393.272 117.507 392.504C118.163 391.72 118.491 390.608 118.491 389.168C118.491 387.712 118.163 386.6 117.507 385.832C116.851 385.064 115.979 384.68 114.891 384.68C113.787 384.68 112.907 385.064 112.251 385.832C111.611 386.6 111.291 387.712 111.291 389.168C111.291 390.608 111.611 391.72 112.251 392.504C112.907 393.272 113.787 393.656 114.891 393.656ZM127.819 395.216C126.779 395.216 125.867 394.968 125.083 394.472C124.315 393.976 123.715 393.28 123.283 392.384C122.867 391.472 122.659 390.4 122.659 389.168C122.659 387.92 122.867 386.848 123.283 385.952C123.715 385.04 124.315 384.344 125.083 383.864C125.867 383.368 126.779 383.12 127.819 383.12C128.731 383.12 129.531 383.32 130.219 383.72C130.923 384.12 131.443 384.672 131.779 385.376V378.08H133.723V395H131.827V392.864C131.491 393.6 130.971 394.176 130.267 394.592C129.563 395.008 128.747 395.216 127.819 395.216ZM128.227 393.656C129.315 393.656 130.187 393.272 130.843 392.504C131.499 391.72 131.827 390.608 131.827 389.168C131.827 387.712 131.499 386.6 130.843 385.832C130.187 385.064 129.315 384.68 128.227 384.68C127.123 384.68 126.243 385.064 125.587 385.832C124.947 386.6 124.627 387.712 124.627 389.168C124.627 390.608 124.947 391.72 125.587 392.504C126.243 393.272 127.123 393.656 128.227 393.656ZM138.715 399.32L140.707 394.808L135.787 383.336H137.899L141.763 392.792L145.651 383.336H147.691L140.755 399.32H138.715Z" fill="#626262"/>
<path d="M94.888 414L93.096 411.508C92.8533 411.527 92.6713 411.536 92.55 411.536H90.478V414H89.47V406.09H92.55C93.5767 406.09 94.384 406.333 94.972 406.818C95.56 407.294 95.854 407.961 95.854 408.82C95.854 409.427 95.6953 409.945 95.378 410.374C95.07 410.803 94.6267 411.116 94.048 411.312L95.98 414H94.888ZM92.494 410.71C93.25 410.71 93.8287 410.547 94.23 410.22C94.6407 409.893 94.846 409.427 94.846 408.82C94.846 408.213 94.6453 407.747 94.244 407.42C93.8427 407.093 93.2593 406.93 92.494 406.93H90.478V410.71H92.494ZM104.66 413.16V414H98.9063V406.09H104.492V406.93H99.9143V409.576H104.002V410.402H99.9143V413.16H104.66ZM112.969 410.038H113.935V413.076C113.571 413.403 113.128 413.655 112.605 413.832C112.092 414 111.551 414.084 110.981 414.084C110.169 414.084 109.437 413.911 108.783 413.566C108.13 413.211 107.617 412.726 107.243 412.11C106.87 411.494 106.683 410.803 106.683 410.038C106.683 409.282 106.865 408.596 107.229 407.98C107.603 407.364 108.111 406.879 108.755 406.524C109.409 406.169 110.137 405.992 110.939 405.992C112.265 405.992 113.282 406.384 113.991 407.168L113.347 407.826C112.713 407.191 111.915 406.874 110.953 406.874C110.337 406.874 109.782 407.014 109.287 407.294C108.793 407.565 108.401 407.943 108.111 408.428C107.831 408.904 107.691 409.441 107.691 410.038C107.691 410.635 107.831 411.177 108.111 411.662C108.401 412.138 108.793 412.516 109.287 412.796C109.791 413.067 110.361 413.202 110.995 413.202C111.761 413.202 112.419 413.015 112.969 412.642V410.038ZM120.59 414.084C119.535 414.084 118.709 413.785 118.112 413.188C117.524 412.591 117.23 411.741 117.23 410.64V406.09H118.238V410.612C118.238 411.471 118.439 412.119 118.84 412.558C119.241 412.997 119.825 413.216 120.59 413.216C121.355 413.216 121.939 412.997 122.34 412.558C122.751 412.119 122.956 411.471 122.956 410.612V406.09H123.936V410.64C123.936 411.741 123.642 412.591 123.054 413.188C122.466 413.785 121.645 414.084 120.59 414.084ZM127.489 406.09H128.497V413.16H132.907V414H127.489V406.09ZM140.144 411.956H135.706L134.782 414H133.774L137.428 406.09H138.422L142.076 414H141.068L140.144 411.956ZM139.78 411.144L137.932 407.042L136.07 411.144H139.78ZM149.701 414L147.909 411.508C147.667 411.527 147.485 411.536 147.363 411.536H145.291V414H144.283V406.09H147.363C148.39 406.09 149.197 406.333 149.785 406.818C150.373 407.294 150.667 407.961 150.667 408.82C150.667 409.427 150.509 409.945 150.191 410.374C149.883 410.803 149.44 411.116 148.861 411.312L150.793 414H149.701ZM147.307 410.71C148.063 410.71 148.642 410.547 149.043 410.22C149.454 409.893 149.659 409.427 149.659 408.82C149.659 408.213 149.459 407.747 149.057 407.42C148.656 407.093 148.073 406.93 147.307 406.93H145.291V410.71H147.307Z" fill="black"/>
</svg>
