<svg width="453" height="248" viewBox="0 0 453 248" fill="none" xmlns="http://www.w3.org/2000/svg">
<path d="M49.128 15.432H42.144V12.552H59.604V15.432H52.62V33H49.128V15.432ZM73.2247 26.34V33H69.7327V26.232L61.3447 12.552H65.0527L71.5687 23.028L78.0487 12.552H81.6487L73.2247 26.34ZM95.4127 12.552C98.1247 12.552 100.261 13.188 101.821 14.46C103.381 15.732 104.161 17.496 104.161 19.752C104.161 22.032 103.381 23.808 101.821 25.08C100.261 26.352 98.1247 26.988 95.4127 26.988H90.5527V33H87.0607V12.552H95.4127ZM95.1967 24.072C96.9727 24.072 98.3167 23.7 99.2287 22.956C100.165 22.212 100.633 21.144 100.633 19.752C100.633 18.36 100.165 17.292 99.2287 16.548C98.3167 15.804 96.9727 15.432 95.1967 15.432H90.5527V24.072H95.1967ZM120.506 33.288C118.418 33.288 116.522 32.832 114.818 31.92C113.114 31.008 111.782 29.76 110.822 28.176C109.862 26.568 109.382 24.768 109.382 22.776C109.382 20.784 109.862 18.996 110.822 17.412C111.782 15.804 113.114 14.544 114.818 13.632C116.522 12.72 118.418 12.264 120.506 12.264C122.618 12.264 124.514 12.72 126.194 13.632C127.898 14.544 129.23 15.804 130.19 17.412C131.15 18.996 131.63 20.784 131.63 22.776C131.63 24.768 131.15 26.568 130.19 28.176C129.23 29.76 127.898 31.008 126.194 31.92C124.514 32.832 122.618 33.288 120.506 33.288ZM120.506 30.264C121.946 30.264 123.242 29.94 124.394 29.292C125.546 28.644 126.446 27.756 127.094 26.628C127.766 25.5 128.102 24.216 128.102 22.776C128.102 21.336 127.766 20.052 127.094 18.924C126.446 17.796 125.546 16.908 124.394 16.26C123.242 15.612 121.946 15.288 120.506 15.288C119.066 15.288 117.77 15.612 116.618 16.26C115.466 16.908 114.554 17.796 113.882 18.924C113.234 20.052 112.91 21.336 112.91 22.776C112.91 24.216 113.234 25.5 113.882 26.628C114.554 27.756 115.466 28.644 116.618 29.292C117.77 29.94 119.066 30.264 120.506 30.264ZM152.368 22.668H155.752V30.66C154.768 31.5 153.58 32.148 152.188 32.604C150.796 33.06 149.356 33.288 147.868 33.288C145.732 33.288 143.8 32.832 142.072 31.92C140.368 31.008 139.024 29.76 138.04 28.176C137.08 26.568 136.6 24.768 136.6 22.776C136.6 20.784 137.08 18.996 138.04 17.412C139 15.804 140.332 14.544 142.036 13.632C143.74 12.72 145.636 12.264 147.724 12.264C151.324 12.264 154.072 13.332 155.968 15.468L153.736 17.736C152.176 16.104 150.196 15.288 147.796 15.288C146.332 15.288 145.012 15.612 143.836 16.26C142.684 16.884 141.772 17.772 141.1 18.924C140.452 20.052 140.128 21.336 140.128 22.776C140.128 24.192 140.452 25.476 141.1 26.628C141.772 27.756 142.696 28.644 143.872 29.292C145.072 29.94 146.416 30.264 147.904 30.264C149.632 30.264 151.12 29.88 152.368 29.112V22.668ZM177.543 33L173.151 26.88C172.959 26.904 172.647 26.916 172.215 26.916H167.355V33H163.863V12.552H172.215C174.927 12.552 177.063 13.188 178.623 14.46C180.183 15.732 180.963 17.496 180.963 19.752C180.963 21.312 180.567 22.644 179.775 23.748C179.007 24.852 177.903 25.68 176.463 26.232L181.323 33H177.543ZM171.999 24.072C173.775 24.072 175.119 23.7 176.031 22.956C176.967 22.212 177.435 21.144 177.435 19.752C177.435 18.36 176.967 17.292 176.031 16.548C175.119 15.804 173.775 15.432 171.999 15.432H167.355V24.072H171.999ZM201.371 28.14H190.391L188.231 33H184.811L194.171 12.552H197.627L207.023 33H203.495L201.371 28.14ZM200.147 25.368L195.899 15.72L191.615 25.368H200.147ZM220.639 12.552C223.351 12.552 225.487 13.188 227.047 14.46C228.607 15.732 229.387 17.496 229.387 19.752C229.387 22.032 228.607 23.808 227.047 25.08C225.487 26.352 223.351 26.988 220.639 26.988H215.779V33H212.287V12.552H220.639ZM220.423 24.072C222.199 24.072 223.543 23.7 224.455 22.956C225.391 22.212 225.859 21.144 225.859 19.752C225.859 18.36 225.391 17.292 224.455 16.548C223.543 15.804 222.199 15.432 220.423 15.432H215.779V24.072H220.423ZM236.517 12.552H240.009V21.192H251.205V12.552H254.697V33H251.205V24.072H240.009V33H236.517V12.552ZM271.949 26.34V33H268.457V26.232L260.069 12.552H263.777L270.293 23.028L276.773 12.552H280.373L271.949 26.34Z" fill="black"/>
<path d="M299.836 22.776V33H298.396L292.492 25.782V33H290.746V22.776H292.186L298.09 30.03V22.776H299.836ZM307.706 33.144C306.302 33.144 305.204 32.748 304.412 31.956C303.62 31.164 303.224 30.054 303.224 28.626V22.776H304.97V28.59C304.97 29.586 305.204 30.342 305.672 30.858C306.14 31.374 306.824 31.632 307.724 31.632C308.612 31.632 309.29 31.374 309.758 30.858C310.238 30.342 310.478 29.586 310.478 28.59V22.776H312.188V28.626C312.188 30.054 311.792 31.164 311 31.956C310.208 32.748 309.11 33.144 307.706 33.144ZM324.656 22.776V33H323.216L317.312 25.782V33H315.566V22.776H317.006L322.91 30.03V22.776H324.656ZM328.152 22.776H329.898V33H328.152V22.776ZM335.191 24.216H331.699V22.776H340.429V24.216H336.937V33H335.191V24.216ZM346.682 33.144C345.638 33.144 344.69 32.916 343.838 32.46C342.986 32.004 342.32 31.38 341.84 30.588C341.36 29.784 341.12 28.884 341.12 27.888C341.12 26.892 341.36 25.998 341.84 25.206C342.32 24.402 342.986 23.772 343.838 23.316C344.69 22.86 345.638 22.632 346.682 22.632C347.738 22.632 348.686 22.86 349.526 23.316C350.378 23.772 351.044 24.402 351.524 25.206C352.004 25.998 352.244 26.892 352.244 27.888C352.244 28.884 352.004 29.784 351.524 30.588C351.044 31.38 350.378 32.004 349.526 32.46C348.686 32.916 347.738 33.144 346.682 33.144ZM346.682 31.632C347.402 31.632 348.05 31.47 348.626 31.146C349.202 30.822 349.652 30.378 349.976 29.814C350.312 29.25 350.48 28.608 350.48 27.888C350.48 27.168 350.312 26.526 349.976 25.962C349.652 25.398 349.202 24.954 348.626 24.63C348.05 24.306 347.402 24.144 346.682 24.144C345.962 24.144 345.314 24.306 344.738 24.63C344.162 24.954 343.706 25.398 343.37 25.962C343.046 26.526 342.884 27.168 342.884 27.888C342.884 28.608 343.046 29.25 343.37 29.814C343.706 30.378 344.162 30.822 344.738 31.146C345.314 31.47 345.962 31.632 346.682 31.632ZM362.605 33.144C361.813 33.144 361.039 33.036 360.283 32.82C359.539 32.592 358.957 32.292 358.537 31.92L359.221 30.552C359.629 30.888 360.139 31.158 360.751 31.362C361.375 31.566 362.017 31.668 362.677 31.668C363.481 31.668 364.069 31.536 364.441 31.272C364.825 31.008 365.017 30.666 365.017 30.246C365.017 29.922 364.903 29.658 364.675 29.454C364.459 29.25 364.183 29.094 363.847 28.986C363.511 28.878 363.055 28.764 362.479 28.644C361.699 28.476 361.063 28.302 360.571 28.122C360.091 27.942 359.677 27.66 359.329 27.276C358.993 26.88 358.825 26.346 358.825 25.674C358.825 24.762 359.191 24.03 359.923 23.478C360.667 22.914 361.675 22.632 362.947 22.632C363.595 22.632 364.219 22.71 364.819 22.866C365.431 23.01 365.953 23.226 366.385 23.514L365.755 24.918C364.975 24.378 364.021 24.108 362.893 24.108C362.113 24.108 361.531 24.246 361.147 24.522C360.763 24.786 360.571 25.134 360.571 25.566C360.571 25.89 360.679 26.154 360.895 26.358C361.123 26.562 361.405 26.718 361.741 26.826C362.089 26.934 362.551 27.048 363.127 27.168C363.919 27.348 364.549 27.528 365.017 27.708C365.497 27.876 365.905 28.152 366.241 28.536C366.589 28.92 366.763 29.436 366.763 30.084C366.763 31.02 366.391 31.764 365.647 32.316C364.915 32.868 363.901 33.144 362.605 33.144ZM375.696 30.57H370.206L369.126 33H367.416L372.096 22.776H373.824L378.522 33H376.758L375.696 30.57ZM375.084 29.184L372.96 24.36L370.818 29.184H375.084ZM389.344 22.776V33H387.904L382 25.782V33H380.254V22.776H381.694L387.598 30.03V22.776H389.344ZM395.828 33.144C395.036 33.144 394.262 33.036 393.506 32.82C392.762 32.592 392.18 32.292 391.76 31.92L392.444 30.552C392.852 30.888 393.362 31.158 393.974 31.362C394.598 31.566 395.24 31.668 395.9 31.668C396.704 31.668 397.292 31.536 397.664 31.272C398.048 31.008 398.24 30.666 398.24 30.246C398.24 29.922 398.126 29.658 397.898 29.454C397.682 29.25 397.406 29.094 397.07 28.986C396.734 28.878 396.278 28.764 395.702 28.644C394.922 28.476 394.286 28.302 393.794 28.122C393.314 27.942 392.9 27.66 392.552 27.276C392.216 26.88 392.048 26.346 392.048 25.674C392.048 24.762 392.414 24.03 393.146 23.478C393.89 22.914 394.898 22.632 396.17 22.632C396.818 22.632 397.442 22.71 398.042 22.866C398.654 23.01 399.176 23.226 399.608 23.514L398.978 24.918C398.198 24.378 397.244 24.108 396.116 24.108C395.336 24.108 394.754 24.246 394.37 24.522C393.986 24.786 393.794 25.134 393.794 25.566C393.794 25.89 393.902 26.154 394.118 26.358C394.346 26.562 394.628 26.718 394.964 26.826C395.312 26.934 395.774 27.048 396.35 27.168C397.142 27.348 397.772 27.528 398.24 27.708C398.72 27.876 399.128 28.152 399.464 28.536C399.812 28.92 399.986 29.436 399.986 30.084C399.986 31.02 399.614 31.764 398.87 32.316C398.138 32.868 397.124 33.144 395.828 33.144Z" fill="#626262"/>
<path d="M295.936 137V103.16H300.928V117.752H319.888V103.16H324.832V137H319.888V121.928H300.928V137H295.936ZM343.197 137.432C339.357 137.432 336.333 136.36 334.125 134.216C331.917 132.04 330.813 129.08 330.813 125.336C330.813 122.936 331.293 120.824 332.253 119C333.245 117.144 334.605 115.704 336.333 114.68C338.061 113.656 340.045 113.144 342.285 113.144C345.517 113.144 348.061 114.184 349.917 116.264C351.773 118.312 352.701 121.144 352.701 124.76V126.392H335.517C335.869 131.256 338.445 133.688 343.245 133.688C344.589 133.688 345.901 133.48 347.181 133.064C348.493 132.648 349.725 131.96 350.877 131L352.317 134.36C351.261 135.32 349.901 136.072 348.237 136.616C346.573 137.16 344.893 137.432 343.197 137.432ZM342.477 116.552C340.461 116.552 338.861 117.176 337.677 118.424C336.493 119.672 335.773 121.336 335.517 123.416H348.621C348.525 121.24 347.949 119.56 346.893 118.376C345.837 117.16 344.365 116.552 342.477 116.552ZM365.474 137.432C363.842 137.432 362.386 137.112 361.106 136.472C359.826 135.832 358.802 134.968 358.034 133.88C357.298 132.792 356.93 131.56 356.93 130.184C356.93 128.456 357.362 127.096 358.226 126.104C359.122 125.112 360.578 124.392 362.594 123.944C364.642 123.496 367.394 123.272 370.85 123.272H372.482V122.024C372.482 120.2 372.098 118.888 371.33 118.088C370.562 117.288 369.298 116.888 367.538 116.888C366.194 116.888 364.85 117.096 363.506 117.512C362.162 117.896 360.786 118.52 359.378 119.384L357.89 115.976C359.106 115.112 360.626 114.424 362.45 113.912C364.274 113.4 366.018 113.144 367.682 113.144C370.882 113.144 373.25 113.912 374.786 115.448C376.322 116.952 377.09 119.32 377.09 122.552V137H372.53V133.112C371.954 134.456 371.058 135.512 369.842 136.28C368.626 137.048 367.17 137.432 365.474 137.432ZM366.434 133.976C368.162 133.976 369.602 133.368 370.754 132.152C371.906 130.936 372.482 129.4 372.482 127.544V126.248H370.898C368.562 126.248 366.722 126.36 365.378 126.584C364.066 126.808 363.122 127.192 362.546 127.736C362.002 128.248 361.73 128.968 361.73 129.896C361.73 131.112 362.146 132.104 362.978 132.872C363.81 133.608 364.962 133.976 366.434 133.976ZM392.695 137.432C390.647 137.432 388.839 136.952 387.271 135.992C385.735 135 384.535 133.592 383.671 131.768C382.807 129.944 382.375 127.784 382.375 125.288C382.375 122.792 382.807 120.648 383.671 118.856C384.535 117.032 385.735 115.624 387.271 114.632C388.807 113.64 390.615 113.144 392.695 113.144C394.455 113.144 396.023 113.528 397.399 114.296C398.775 115.064 399.799 116.104 400.471 117.416V103.16H405.319V137H400.567V132.92C399.895 134.328 398.855 135.432 397.447 136.232C396.071 137.032 394.487 137.432 392.695 137.432ZM393.943 133.688C395.927 133.688 397.527 132.968 398.743 131.528C399.959 130.088 400.567 128.008 400.567 125.288C400.567 122.568 399.959 120.504 398.743 119.096C397.527 117.656 395.927 116.936 393.943 116.936C391.927 116.936 390.311 117.656 389.095 119.096C387.879 120.504 387.271 122.568 387.271 125.288C387.271 128.008 387.879 130.088 389.095 131.528C390.311 132.968 391.927 133.688 393.943 133.688ZM423.119 137.432C419.279 137.432 416.255 136.36 414.047 134.216C411.839 132.04 410.735 129.08 410.735 125.336C410.735 122.936 411.215 120.824 412.175 119C413.167 117.144 414.527 115.704 416.255 114.68C417.983 113.656 419.967 113.144 422.207 113.144C425.439 113.144 427.983 114.184 429.839 116.264C431.695 118.312 432.623 121.144 432.623 124.76V126.392H415.439C415.791 131.256 418.367 133.688 423.167 133.688C424.511 133.688 425.823 133.48 427.103 133.064C428.415 132.648 429.647 131.96 430.799 131L432.239 134.36C431.183 135.32 429.823 136.072 428.159 136.616C426.495 137.16 424.815 137.432 423.119 137.432ZM422.399 116.552C420.383 116.552 418.783 117.176 417.599 118.424C416.415 119.672 415.695 121.336 415.439 123.416H428.543C428.447 121.24 427.871 119.56 426.815 118.376C425.759 117.16 424.287 116.552 422.399 116.552ZM437.908 137V113.576H442.612V117.752C443.828 114.968 446.356 113.416 450.196 113.096L451.78 113L452.116 117.128L449.188 117.416C444.932 117.832 442.804 120.024 442.804 123.992V137H437.908Z" fill="#FF6D00"/>
<path d="M24.52 226.36C22.528 226.36 20.68 226.108 18.976 225.604C17.272 225.076 15.832 224.368 14.656 223.48L16.06 219.844C17.236 220.684 18.52 221.332 19.912 221.788C21.328 222.244 22.864 222.472 24.52 222.472C26.416 222.472 27.796 222.16 28.66 221.536C29.524 220.888 29.956 220.06 29.956 219.052C29.956 218.212 29.644 217.552 29.02 217.072C28.42 216.592 27.376 216.196 25.888 215.884L21.928 215.056C17.416 214.096 15.16 211.78 15.16 208.108C15.16 206.524 15.58 205.144 16.42 203.968C17.26 202.792 18.424 201.88 19.912 201.232C21.4 200.584 23.116 200.26 25.06 200.26C26.788 200.26 28.408 200.524 29.92 201.052C31.432 201.556 32.692 202.276 33.7 203.212L32.296 206.668C30.304 204.988 27.88 204.148 25.024 204.148C23.368 204.148 22.072 204.496 21.136 205.192C20.2 205.888 19.732 206.8 19.732 207.928C19.732 208.792 20.02 209.488 20.596 210.016C21.172 210.52 22.156 210.916 23.548 211.204L27.472 212.032C29.848 212.536 31.612 213.328 32.764 214.408C33.94 215.488 34.528 216.928 34.528 218.728C34.528 220.24 34.12 221.572 33.304 222.724C32.488 223.876 31.324 224.776 29.812 225.424C28.324 226.048 26.56 226.36 24.52 226.36ZM44.4229 226.36C40.1029 226.36 37.9429 223.936 37.9429 219.088V208.396H42.4429V219.16C42.4429 220.408 42.6949 221.332 43.1989 221.932C43.7029 222.532 44.5069 222.832 45.6109 222.832C46.8109 222.832 47.7949 222.424 48.5629 221.608C49.3309 220.768 49.7149 219.664 49.7149 218.296V208.396H54.2149V226H49.8229V223.372C48.6469 225.364 46.8469 226.36 44.4229 226.36ZM69.0506 226.36C67.7546 226.36 66.5906 226.072 65.5586 225.496C64.5506 224.92 63.7946 224.14 63.2906 223.156V226H58.8986V200.62H63.3986V210.988C63.9266 210.1 64.6826 209.392 65.6666 208.864C66.6746 208.312 67.8026 208.036 69.0506 208.036C70.6106 208.036 71.9666 208.408 73.1186 209.152C74.2706 209.896 75.1706 210.952 75.8186 212.32C76.4666 213.664 76.7906 215.284 76.7906 217.18C76.7906 219.052 76.4666 220.684 75.8186 222.076C75.1706 223.444 74.2586 224.5 73.0826 225.244C71.9306 225.988 70.5866 226.36 69.0506 226.36ZM67.7906 222.94C69.1346 222.94 70.2146 222.46 71.0306 221.5C71.8466 220.516 72.2546 219.076 72.2546 217.18C72.2546 215.26 71.8466 213.832 71.0306 212.896C70.2146 211.936 69.1346 211.456 67.7906 211.456C66.4466 211.456 65.3666 211.936 64.5506 212.896C63.7346 213.832 63.3266 215.26 63.3266 217.18C63.3266 219.076 63.7346 220.516 64.5506 221.5C65.3666 222.46 66.4466 222.94 67.7906 222.94ZM80.4845 226V200.62H84.9845V210.952C85.5845 209.992 86.3885 209.272 87.3965 208.792C88.4045 208.288 89.5205 208.036 90.7445 208.036C94.8965 208.036 96.9725 210.448 96.9725 215.272V226H92.4725V215.488C92.4725 214.12 92.2085 213.124 91.6805 212.5C91.1765 211.876 90.3845 211.564 89.3045 211.564C87.9845 211.564 86.9285 211.984 86.1365 212.824C85.3685 213.64 84.9845 214.732 84.9845 216.1V226H80.4845ZM110.219 226.36C108.227 226.36 106.511 225.988 105.071 225.244C103.631 224.5 102.515 223.444 101.723 222.076C100.955 220.708 100.571 219.088 100.571 217.216C100.571 215.392 100.943 213.796 101.687 212.428C102.455 211.06 103.499 209.992 104.819 209.224C106.163 208.432 107.687 208.036 109.391 208.036C111.887 208.036 113.855 208.828 115.295 210.412C116.759 211.996 117.491 214.156 117.491 216.892V218.224H104.891C105.227 221.368 107.027 222.94 110.291 222.94C111.275 222.94 112.259 222.796 113.243 222.508C114.227 222.196 115.127 221.716 115.943 221.068L117.203 224.092C116.363 224.788 115.307 225.34 114.035 225.748C112.763 226.156 111.491 226.36 110.219 226.36ZM109.571 211.096C108.251 211.096 107.183 211.504 106.367 212.32C105.551 213.136 105.059 214.24 104.891 215.632H113.747C113.651 214.168 113.243 213.052 112.523 212.284C111.827 211.492 110.843 211.096 109.571 211.096ZM126.851 226.36C125.579 226.36 124.439 226.12 123.431 225.64C122.447 225.136 121.667 224.464 121.091 223.624C120.539 222.784 120.263 221.836 120.263 220.78C120.263 219.484 120.599 218.464 121.271 217.72C121.943 216.952 123.035 216.4 124.547 216.064C126.059 215.728 128.087 215.56 130.631 215.56H131.891V214.804C131.891 213.604 131.627 212.74 131.099 212.212C130.571 211.684 129.683 211.42 128.435 211.42C127.451 211.42 126.443 211.576 125.411 211.888C124.379 212.176 123.335 212.632 122.279 213.256L120.983 210.196C121.607 209.764 122.339 209.392 123.179 209.08C124.043 208.744 124.943 208.492 125.879 208.324C126.839 208.132 127.739 208.036 128.579 208.036C131.147 208.036 133.055 208.636 134.303 209.836C135.551 211.012 136.175 212.848 136.175 215.344V226H131.963V223.192C131.555 224.176 130.907 224.956 130.019 225.532C129.131 226.084 128.075 226.36 126.851 226.36ZM127.787 223.264C128.963 223.264 129.935 222.856 130.703 222.04C131.495 221.224 131.891 220.192 131.891 218.944V218.152H130.667C128.411 218.152 126.839 218.332 125.951 218.692C125.087 219.028 124.655 219.652 124.655 220.564C124.655 221.356 124.931 222.004 125.483 222.508C126.035 223.012 126.803 223.264 127.787 223.264ZM147.51 226.36C145.974 226.36 144.618 225.988 143.442 225.244C142.29 224.5 141.39 223.444 140.742 222.076C140.094 220.684 139.77 219.052 139.77 217.18C139.77 215.284 140.094 213.664 140.742 212.32C141.39 210.952 142.29 209.896 143.442 209.152C144.618 208.408 145.974 208.036 147.51 208.036C148.758 208.036 149.886 208.312 150.894 208.864C151.902 209.416 152.658 210.148 153.162 211.06V200.62H157.662V226H153.27V223.084C152.79 224.092 152.034 224.896 151.002 225.496C149.97 226.072 148.806 226.36 147.51 226.36ZM148.77 222.94C150.114 222.94 151.194 222.46 152.01 221.5C152.826 220.516 153.234 219.076 153.234 217.18C153.234 215.26 152.826 213.832 152.01 212.896C151.194 211.936 150.114 211.456 148.77 211.456C147.426 211.456 146.346 211.936 145.53 212.896C144.714 213.832 144.306 215.26 144.306 217.18C144.306 219.076 144.714 220.516 145.53 221.5C146.346 222.46 147.426 222.94 148.77 222.94ZM171.004 226.36C169.012 226.36 167.296 225.988 165.856 225.244C164.416 224.5 163.3 223.444 162.508 222.076C161.74 220.708 161.356 219.088 161.356 217.216C161.356 215.392 161.728 213.796 162.472 212.428C163.24 211.06 164.284 209.992 165.604 209.224C166.948 208.432 168.472 208.036 170.176 208.036C172.672 208.036 174.64 208.828 176.08 210.412C177.544 211.996 178.276 214.156 178.276 216.892V218.224H165.676C166.012 221.368 167.812 222.94 171.076 222.94C172.06 222.94 173.044 222.796 174.028 222.508C175.012 222.196 175.912 221.716 176.728 221.068L177.988 224.092C177.148 224.788 176.092 225.34 174.82 225.748C173.548 226.156 172.276 226.36 171.004 226.36ZM170.356 211.096C169.036 211.096 167.968 211.504 167.152 212.32C166.336 213.136 165.844 214.24 165.676 215.632H174.532C174.436 214.168 174.028 213.052 173.308 212.284C172.612 211.492 171.628 211.096 170.356 211.096ZM181.84 226V208.396H186.232V211.492C187.096 209.404 188.944 208.252 191.776 208.036L193.144 207.928L193.432 211.744L190.84 211.996C187.888 212.284 186.412 213.796 186.412 216.532V226H181.84Z" fill="#8D8D8D"/>
<path d="M347.088 226V209.08H353.856C355.6 209.08 356.944 209.472 357.888 210.256C358.848 211.024 359.328 212.104 359.328 213.496C359.328 214.424 359.088 215.216 358.608 215.872C358.128 216.528 357.464 217.008 356.616 217.312C357.592 217.568 358.352 218.04 358.896 218.728C359.456 219.416 359.736 220.288 359.736 221.344C359.736 222.848 359.248 224 358.272 224.8C357.296 225.6 355.92 226 354.144 226H347.088ZM349.008 216.64H353.568C356.112 216.64 357.384 215.648 357.384 213.664C357.384 211.664 356.112 210.664 353.568 210.664H349.008V216.64ZM349.008 224.416H353.952C356.512 224.416 357.792 223.384 357.792 221.32C357.792 219.256 356.512 218.224 353.952 218.224H349.008V224.416ZM367.891 226.216C366.755 226.216 365.771 225.968 364.939 225.472C364.107 224.976 363.459 224.28 362.995 223.384C362.547 222.472 362.323 221.4 362.323 220.168C362.323 218.936 362.547 217.872 362.995 216.976C363.459 216.064 364.107 215.36 364.939 214.864C365.771 214.368 366.755 214.12 367.891 214.12C369.011 214.12 369.987 214.368 370.819 214.864C371.667 215.36 372.315 216.064 372.763 216.976C373.227 217.872 373.459 218.936 373.459 220.168C373.459 221.4 373.227 222.472 372.763 223.384C372.315 224.28 371.667 224.976 370.819 225.472C369.987 225.968 369.011 226.216 367.891 226.216ZM367.891 224.656C368.979 224.656 369.851 224.272 370.507 223.504C371.163 222.72 371.491 221.608 371.491 220.168C371.491 218.712 371.163 217.6 370.507 216.832C369.851 216.064 368.979 215.68 367.891 215.68C366.787 215.68 365.907 216.064 365.251 216.832C364.611 217.6 364.291 218.712 364.291 220.168C364.291 221.608 364.611 222.72 365.251 223.504C365.907 224.272 366.787 224.656 367.891 224.656ZM380.819 226.216C379.779 226.216 378.867 225.968 378.083 225.472C377.315 224.976 376.715 224.28 376.283 223.384C375.867 222.472 375.659 221.4 375.659 220.168C375.659 218.92 375.867 217.848 376.283 216.952C376.715 216.04 377.315 215.344 378.083 214.864C378.867 214.368 379.779 214.12 380.819 214.12C381.731 214.12 382.531 214.32 383.219 214.72C383.923 215.12 384.443 215.672 384.779 216.376V209.08H386.723V226H384.827V223.864C384.491 224.6 383.971 225.176 383.267 225.592C382.563 226.008 381.747 226.216 380.819 226.216ZM381.227 224.656C382.315 224.656 383.187 224.272 383.843 223.504C384.499 222.72 384.827 221.608 384.827 220.168C384.827 218.712 384.499 217.6 383.843 216.832C383.187 216.064 382.315 215.68 381.227 215.68C380.123 215.68 379.243 216.064 378.587 216.832C377.947 217.6 377.627 218.712 377.627 220.168C377.627 221.608 377.947 222.72 378.587 223.504C379.243 224.272 380.123 224.656 381.227 224.656ZM391.715 230.32L393.707 225.808L388.787 214.336H390.899L394.763 223.792L398.651 214.336H400.691L393.755 230.32H391.715Z" fill="#626262"/>
<path d="M20.672 137.704C17.1307 137.704 13.7813 137.256 10.624 136.36C7.50933 135.464 4.90667 134.248 2.816 132.712L5.696 124.904C7.70133 126.312 9.984 127.421 12.544 128.232C15.1467 129.043 17.856 129.448 20.672 129.448C23.744 129.448 25.9413 128.979 27.264 128.04C28.6293 127.059 29.312 125.843 29.312 124.392C29.312 123.155 28.8427 122.173 27.904 121.448C26.9653 120.723 25.3227 120.104 22.976 119.592L15.744 118.056C7.68 116.349 3.648 112.168 3.648 105.512C3.648 102.653 4.416 100.157 5.952 98.024C7.488 95.848 9.62133 94.1627 12.352 92.968C15.1253 91.7733 18.3253 91.176 21.952 91.176C25.0667 91.176 27.9893 91.624 30.72 92.52C33.4507 93.416 35.712 94.6747 37.504 96.296L34.624 103.592C31.1253 100.819 26.88 99.432 21.888 99.432C19.2 99.432 17.1093 99.9653 15.616 101.032C14.1653 102.056 13.44 103.4 13.44 105.064C13.44 106.301 13.888 107.304 14.784 108.072C15.68 108.84 17.2373 109.459 19.456 109.928L26.688 111.464C34.9653 113.256 39.104 117.309 39.104 123.624C39.104 126.44 38.336 128.915 36.8 131.048C35.3067 133.139 33.1733 134.781 30.4 135.976C27.6693 137.128 24.4267 137.704 20.672 137.704ZM61.032 137.704C57.32 137.704 54.12 137.043 51.432 135.72C48.7867 134.355 46.7387 132.456 45.288 130.024C43.88 127.549 43.176 124.648 43.176 121.32C43.176 118.077 43.8587 115.24 45.224 112.808C46.632 110.333 48.5307 108.413 50.92 107.048C53.352 105.64 56.1467 104.936 59.304 104.936C63.8693 104.936 67.496 106.387 70.184 109.288C72.872 112.147 74.216 116.029 74.216 120.936V123.368H52.392C52.7333 125.843 53.6293 127.656 55.08 128.808C56.5733 129.917 58.6213 130.472 61.224 130.472C62.9307 130.472 64.6587 130.216 66.408 129.704C68.1573 129.192 69.736 128.403 71.144 127.336L73.704 133.8C72.1253 134.995 70.184 135.955 67.88 136.68C65.6187 137.363 63.336 137.704 61.032 137.704ZM59.688 111.336C57.64 111.336 55.976 111.955 54.696 113.192C53.4587 114.429 52.6907 116.157 52.392 118.376H66.216C65.96 113.683 63.784 111.336 59.688 111.336ZM95.133 137.704C91.7197 137.704 88.733 137.043 86.173 135.72C83.6557 134.355 81.7143 132.435 80.349 129.96C78.9837 127.485 78.301 124.563 78.301 121.192C78.301 117.821 78.9837 114.92 80.349 112.488C81.7143 110.056 83.6557 108.2 86.173 106.92C88.733 105.597 91.7197 104.936 95.133 104.936C97.1383 104.936 99.165 105.235 101.213 105.832C103.261 106.429 104.925 107.283 106.205 108.392L103.517 115.048C102.45 114.195 101.256 113.533 99.933 113.064C98.6103 112.552 97.3303 112.296 96.093 112.296C93.5757 112.296 91.613 113.085 90.205 114.664C88.8397 116.2 88.157 118.397 88.157 121.256C88.157 124.072 88.8397 126.291 90.205 127.912C91.613 129.491 93.5757 130.28 96.093 130.28C97.2877 130.28 98.5463 130.045 99.869 129.576C101.234 129.107 102.45 128.424 103.517 127.528L106.205 134.184C104.925 135.293 103.261 136.168 101.213 136.808C99.165 137.405 97.1383 137.704 95.133 137.704ZM126.011 137.704C117.179 137.704 112.763 133.416 112.763 124.84V112.808H106.811V105.576H112.763V96.36H122.427V105.576H131.707V112.808H122.427V124.456C122.427 126.248 122.832 127.592 123.643 128.488C124.496 129.384 125.84 129.832 127.675 129.832C128.23 129.832 128.806 129.768 129.403 129.64C130.043 129.512 130.726 129.341 131.451 129.128L132.859 136.168C131.963 136.637 130.896 137 129.659 137.256C128.422 137.555 127.206 137.704 126.011 137.704ZM136.078 99.496V90.472H146.51V99.496H136.078ZM136.462 137V105.576H146.126V137H136.462ZM168.691 137.704C165.32 137.704 162.376 137.043 159.859 135.72C157.384 134.355 155.464 132.456 154.099 130.024C152.734 127.549 152.051 124.627 152.051 121.256C152.051 117.928 152.734 115.048 154.099 112.616C155.464 110.141 157.384 108.243 159.859 106.92C162.376 105.597 165.32 104.936 168.691 104.936C172.062 104.936 174.984 105.597 177.459 106.92C179.976 108.243 181.918 110.141 183.283 112.616C184.691 115.048 185.395 117.928 185.395 121.256C185.395 124.627 184.691 127.549 183.283 130.024C181.918 132.456 179.976 134.355 177.459 135.72C174.984 137.043 172.062 137.704 168.691 137.704ZM168.691 130.472C170.739 130.472 172.403 129.725 173.683 128.232C175.006 126.739 175.667 124.413 175.667 121.256C175.667 118.141 175.006 115.859 173.683 114.408C172.403 112.915 170.739 112.168 168.691 112.168C166.643 112.168 164.979 112.915 163.699 114.408C162.419 115.859 161.779 118.141 161.779 121.256C161.779 124.413 162.419 126.739 163.699 128.232C164.979 129.725 166.643 130.472 168.691 130.472ZM191.275 137V105.576H200.747V110.184C201.813 108.477 203.243 107.176 205.035 106.28C206.827 105.384 208.832 104.936 211.051 104.936C214.763 104.936 217.536 106.024 219.371 108.2C221.205 110.333 222.123 113.64 222.123 118.12V137H212.459V118.568C212.459 116.392 212.053 114.835 211.243 113.896C210.432 112.915 209.237 112.424 207.659 112.424C205.611 112.424 203.968 113.064 202.731 114.344C201.536 115.624 200.939 117.331 200.939 119.464V137H191.275Z" fill="#FF6D00"/>
<path d="M77.224 158.16V159H71.47V151.09H77.056V151.93H72.478V154.576H76.566V155.402H72.478V158.16H77.224ZM84.8763 159L82.3843 155.668L79.8923 159H78.7583L81.8383 154.926L78.9403 151.09H80.0743L82.3983 154.198L84.7223 151.09H85.8423L82.9583 154.926L86.0243 159H84.8763ZM89.3768 151.93H86.5908V151.09H93.1708V151.93H90.3848V159H89.3768V151.93ZM100.808 159L99.0163 156.508C98.7736 156.527 98.5916 156.536 98.4703 156.536H96.3983V159H95.3903V151.09H98.4703C99.497 151.09 100.304 151.333 100.892 151.818C101.48 152.294 101.774 152.961 101.774 153.82C101.774 154.427 101.616 154.945 101.298 155.374C100.99 155.803 100.547 156.116 99.9683 156.312L101.9 159H100.808ZM98.4143 155.71C99.1703 155.71 99.749 155.547 100.15 155.22C100.561 154.893 100.766 154.427 100.766 153.82C100.766 153.213 100.566 152.747 100.164 152.42C99.763 152.093 99.1796 151.93 98.4143 151.93H96.3983V155.71H98.4143ZM109.755 156.956H105.317L104.393 159H103.385L107.039 151.09H108.033L111.687 159H110.679L109.755 156.956ZM109.391 156.144L107.543 152.042L105.681 156.144H109.391ZM123.466 154.912C123.989 155.033 124.385 155.262 124.656 155.598C124.936 155.925 125.076 156.349 125.076 156.872C125.076 157.553 124.815 158.081 124.292 158.454C123.779 158.818 123.018 159 122.01 159H118.258V151.09H121.786C122.691 151.09 123.391 151.267 123.886 151.622C124.39 151.977 124.642 152.476 124.642 153.12C124.642 153.549 124.539 153.918 124.334 154.226C124.129 154.525 123.839 154.753 123.466 154.912ZM119.266 151.874V154.604H121.702C122.327 154.604 122.808 154.487 123.144 154.254C123.48 154.021 123.648 153.68 123.648 153.232C123.648 152.784 123.48 152.448 123.144 152.224C122.808 151.991 122.327 151.874 121.702 151.874H119.266ZM121.968 158.216C123.359 158.216 124.054 157.745 124.054 156.802C124.054 156.317 123.877 155.962 123.522 155.738C123.177 155.505 122.659 155.388 121.968 155.388H119.266V158.216H121.968ZM131.33 159.084C130.536 159.084 129.813 158.911 129.16 158.566C128.516 158.211 128.007 157.726 127.634 157.11C127.27 156.494 127.088 155.803 127.088 155.038C127.088 154.282 127.27 153.596 127.634 152.98C128.007 152.364 128.516 151.879 129.16 151.524C129.813 151.169 130.536 150.992 131.33 150.992C132.132 150.992 132.856 151.169 133.5 151.524C134.144 151.869 134.648 152.355 135.012 152.98C135.385 153.596 135.572 154.282 135.572 155.038C135.572 155.803 135.385 156.494 135.012 157.11C134.648 157.726 134.144 158.211 133.5 158.566C132.856 158.911 132.132 159.084 131.33 159.084ZM131.33 158.216C131.936 158.216 132.487 158.081 132.982 157.81C133.476 157.53 133.864 157.152 134.144 156.676C134.424 156.191 134.564 155.649 134.564 155.052C134.564 154.445 134.424 153.904 134.144 153.428C133.864 152.943 133.476 152.565 132.982 152.294C132.487 152.014 131.936 151.874 131.33 151.874C130.723 151.874 130.172 152.014 129.678 152.294C129.183 152.565 128.796 152.943 128.516 153.428C128.236 153.904 128.096 154.445 128.096 155.052C128.096 155.649 128.236 156.191 128.516 156.676C128.796 157.152 129.183 157.53 129.678 157.81C130.172 158.081 130.723 158.216 131.33 158.216ZM138.416 151.09H139.424V158.16H143.834V159H138.416V151.09ZM146.116 151.09H149.434C150.311 151.09 151.076 151.258 151.73 151.594C152.383 151.921 152.882 152.383 153.228 152.98C153.582 153.568 153.76 154.254 153.76 155.038C153.76 155.822 153.582 156.513 153.228 157.11C152.882 157.707 152.383 158.174 151.73 158.51C151.076 158.837 150.311 159 149.434 159H146.116V151.09ZM149.392 158.16C150.446 158.16 151.268 157.88 151.856 157.32C152.453 156.751 152.752 155.99 152.752 155.038C152.752 154.095 152.453 153.344 151.856 152.784C151.268 152.215 150.446 151.93 149.392 151.93H147.124V158.16H149.392Z" fill="black"/>
<path d="M337.654 159.084C337.047 159.084 336.464 158.995 335.904 158.818C335.353 158.631 334.919 158.389 334.602 158.09L335.022 157.306C335.321 157.577 335.708 157.801 336.184 157.978C336.669 158.146 337.169 158.23 337.682 158.23C338.373 158.23 338.881 158.109 339.208 157.866C339.544 157.623 339.712 157.311 339.712 156.928C339.712 156.629 339.619 156.391 339.432 156.214C339.245 156.027 339.012 155.887 338.732 155.794C338.452 155.701 338.074 155.598 337.598 155.486C337.001 155.346 336.52 155.206 336.156 155.066C335.792 154.926 335.479 154.711 335.218 154.422C334.966 154.123 334.84 153.727 334.84 153.232C334.84 152.569 335.106 152.033 335.638 151.622C336.17 151.202 336.912 150.992 337.864 150.992C338.34 150.992 338.802 151.053 339.25 151.174C339.707 151.295 340.095 151.468 340.412 151.692L340.048 152.504C339.441 152.075 338.704 151.86 337.836 151.86C337.173 151.86 336.674 151.986 336.338 152.238C336.002 152.481 335.834 152.798 335.834 153.19C335.834 153.489 335.927 153.731 336.114 153.918C336.301 154.095 336.534 154.231 336.814 154.324C337.103 154.417 337.491 154.52 337.976 154.632C338.564 154.772 339.04 154.912 339.404 155.052C339.768 155.183 340.076 155.393 340.328 155.682C340.589 155.971 340.72 156.359 340.72 156.844C340.72 157.516 340.449 158.057 339.908 158.468C339.376 158.879 338.625 159.084 337.654 159.084ZM349.252 158.16V159H343.498V151.09H349.084V151.93H344.506V154.576H348.594V155.402H344.506V158.16H349.252ZM359.604 159V152.91L356.58 158.006H356.118L353.094 152.994V159H352.128V151.09H352.996L356.356 156.76L359.702 151.09H360.57L360.584 159H359.604ZM364.23 151.09H365.238V159H364.23V151.09ZM378.453 154.912C378.976 155.033 379.373 155.262 379.643 155.598C379.923 155.925 380.063 156.349 380.063 156.872C380.063 157.553 379.802 158.081 379.279 158.454C378.766 158.818 378.005 159 376.997 159H373.245V151.09H376.773C377.679 151.09 378.379 151.267 378.873 151.622C379.377 151.977 379.629 152.476 379.629 153.12C379.629 153.549 379.527 153.918 379.321 154.226C379.116 154.525 378.827 154.753 378.453 154.912ZM374.253 151.874V154.604H376.689C377.315 154.604 377.795 154.487 378.131 154.254C378.467 154.021 378.635 153.68 378.635 153.232C378.635 152.784 378.467 152.448 378.131 152.224C377.795 151.991 377.315 151.874 376.689 151.874H374.253ZM376.955 158.216C378.346 158.216 379.041 157.745 379.041 156.802C379.041 156.317 378.864 155.962 378.509 155.738C378.164 155.505 377.646 155.388 376.955 155.388H374.253V158.216H376.955ZM386.317 159.084C385.524 159.084 384.8 158.911 384.147 158.566C383.503 158.211 382.994 157.726 382.621 157.11C382.257 156.494 382.075 155.803 382.075 155.038C382.075 154.282 382.257 153.596 382.621 152.98C382.994 152.364 383.503 151.879 384.147 151.524C384.8 151.169 385.524 150.992 386.317 150.992C387.12 150.992 387.843 151.169 388.487 151.524C389.131 151.869 389.635 152.355 389.999 152.98C390.372 153.596 390.559 154.282 390.559 155.038C390.559 155.803 390.372 156.494 389.999 157.11C389.635 157.726 389.131 158.211 388.487 158.566C387.843 158.911 387.12 159.084 386.317 159.084ZM386.317 158.216C386.924 158.216 387.474 158.081 387.969 157.81C388.464 157.53 388.851 157.152 389.131 156.676C389.411 156.191 389.551 155.649 389.551 155.052C389.551 154.445 389.411 153.904 389.131 153.428C388.851 152.943 388.464 152.565 387.969 152.294C387.474 152.014 386.924 151.874 386.317 151.874C385.71 151.874 385.16 152.014 384.665 152.294C384.17 152.565 383.783 152.943 383.503 153.428C383.223 153.904 383.083 154.445 383.083 155.052C383.083 155.649 383.223 156.191 383.503 156.676C383.783 157.152 384.17 157.53 384.665 157.81C385.16 158.081 385.71 158.216 386.317 158.216ZM393.403 151.09H394.411V158.16H398.821V159H393.403V151.09ZM401.103 151.09H404.421C405.299 151.09 406.064 151.258 406.717 151.594C407.371 151.921 407.87 152.383 408.215 152.98C408.57 153.568 408.747 154.254 408.747 155.038C408.747 155.822 408.57 156.513 408.215 157.11C407.87 157.707 407.371 158.174 406.717 158.51C406.064 158.837 405.299 159 404.421 159H401.103V151.09ZM404.379 158.16C405.434 158.16 406.255 157.88 406.843 157.32C407.441 156.751 407.739 155.99 407.739 155.038C407.739 154.095 407.441 153.344 406.843 152.784C406.255 152.215 405.434 151.93 404.379 151.93H402.111V158.16H404.379Z" fill="black"/>
<path d="M91.678 240.912C92.2007 241.033 92.5973 241.262 92.868 241.598C93.148 241.925 93.288 242.349 93.288 242.872C93.288 243.553 93.0267 244.081 92.504 244.454C91.9907 244.818 91.23 245 90.222 245H86.47V237.09H89.998C90.9033 237.09 91.6033 237.267 92.098 237.622C92.602 237.977 92.854 238.476 92.854 239.12C92.854 239.549 92.7513 239.918 92.546 240.226C92.3407 240.525 92.0513 240.753 91.678 240.912ZM87.478 237.874V240.604H89.914C90.5393 240.604 91.02 240.487 91.356 240.254C91.692 240.021 91.86 239.68 91.86 239.232C91.86 238.784 91.692 238.448 91.356 238.224C91.02 237.991 90.5393 237.874 89.914 237.874H87.478ZM90.18 244.216C91.5707 244.216 92.266 243.745 92.266 242.802C92.266 242.317 92.0887 241.962 91.734 241.738C91.3887 241.505 90.8707 241.388 90.18 241.388H87.478V244.216H90.18ZM99.5417 245.084C98.7484 245.084 98.0251 244.911 97.3717 244.566C96.7277 244.211 96.2191 243.726 95.8457 243.11C95.4817 242.494 95.2997 241.803 95.2997 241.038C95.2997 240.282 95.4817 239.596 95.8457 238.98C96.2191 238.364 96.7277 237.879 97.3717 237.524C98.0251 237.169 98.7484 236.992 99.5417 236.992C100.344 236.992 101.068 237.169 101.712 237.524C102.356 237.869 102.86 238.355 103.224 238.98C103.597 239.596 103.784 240.282 103.784 241.038C103.784 241.803 103.597 242.494 103.224 243.11C102.86 243.726 102.356 244.211 101.712 244.566C101.068 244.911 100.344 245.084 99.5417 245.084ZM99.5417 244.216C100.148 244.216 100.699 244.081 101.194 243.81C101.688 243.53 102.076 243.152 102.356 242.676C102.636 242.191 102.776 241.649 102.776 241.052C102.776 240.445 102.636 239.904 102.356 239.428C102.076 238.943 101.688 238.565 101.194 238.294C100.699 238.014 100.148 237.874 99.5417 237.874C98.9351 237.874 98.3844 238.014 97.8897 238.294C97.3951 238.565 97.0077 238.943 96.7277 239.428C96.4477 239.904 96.3077 240.445 96.3077 241.052C96.3077 241.649 96.4477 242.191 96.7277 242.676C97.0077 243.152 97.3951 243.53 97.8897 243.81C98.3844 244.081 98.9351 244.216 99.5417 244.216ZM106.628 237.09H107.636V244.16H112.046V245H106.628V237.09ZM114.328 237.09H117.646C118.523 237.09 119.288 237.258 119.942 237.594C120.595 237.921 121.094 238.383 121.44 238.98C121.794 239.568 121.972 240.254 121.972 241.038C121.972 241.822 121.794 242.513 121.44 243.11C121.094 243.707 120.595 244.174 119.942 244.51C119.288 244.837 118.523 245 117.646 245H114.328V237.09ZM117.604 244.16C118.658 244.16 119.48 243.88 120.068 243.32C120.665 242.751 120.964 241.99 120.964 241.038C120.964 240.095 120.665 239.344 120.068 238.784C119.48 238.215 118.658 237.93 117.604 237.93H115.336V244.16H117.604Z" fill="black"/>
<path d="M347.888 245L346.096 242.508C345.853 242.527 345.671 242.536 345.55 242.536H343.478V245H342.47V237.09H345.55C346.577 237.09 347.384 237.333 347.972 237.818C348.56 238.294 348.854 238.961 348.854 239.82C348.854 240.427 348.695 240.945 348.378 241.374C348.07 241.803 347.627 242.116 347.048 242.312L348.98 245H347.888ZM345.494 241.71C346.25 241.71 346.829 241.547 347.23 241.22C347.641 240.893 347.846 240.427 347.846 239.82C347.846 239.213 347.645 238.747 347.244 238.42C346.843 238.093 346.259 237.93 345.494 237.93H343.478V241.71H345.494ZM357.66 244.16V245H351.906V237.09H357.492V237.93H352.914V240.576H357.002V241.402H352.914V244.16H357.66ZM365.969 241.038H366.935V244.076C366.571 244.403 366.128 244.655 365.605 244.832C365.092 245 364.551 245.084 363.981 245.084C363.169 245.084 362.437 244.911 361.783 244.566C361.13 244.211 360.617 243.726 360.243 243.11C359.87 242.494 359.683 241.803 359.683 241.038C359.683 240.282 359.865 239.596 360.229 238.98C360.603 238.364 361.111 237.879 361.755 237.524C362.409 237.169 363.137 236.992 363.939 236.992C365.265 236.992 366.282 237.384 366.991 238.168L366.347 238.826C365.713 238.191 364.915 237.874 363.953 237.874C363.337 237.874 362.782 238.014 362.287 238.294C361.793 238.565 361.401 238.943 361.111 239.428C360.831 239.904 360.691 240.441 360.691 241.038C360.691 241.635 360.831 242.177 361.111 242.662C361.401 243.138 361.793 243.516 362.287 243.796C362.791 244.067 363.361 244.202 363.995 244.202C364.761 244.202 365.419 244.015 365.969 243.642V241.038ZM373.59 245.084C372.535 245.084 371.709 244.785 371.112 244.188C370.524 243.591 370.23 242.741 370.23 241.64V237.09H371.238V241.612C371.238 242.471 371.439 243.119 371.84 243.558C372.241 243.997 372.825 244.216 373.59 244.216C374.355 244.216 374.939 243.997 375.34 243.558C375.751 243.119 375.956 242.471 375.956 241.612V237.09H376.936V241.64C376.936 242.741 376.642 243.591 376.054 244.188C375.466 244.785 374.645 245.084 373.59 245.084ZM380.489 237.09H381.497V244.16H385.907V245H380.489V237.09ZM393.144 242.956H388.706L387.782 245H386.774L390.428 237.09H391.422L395.076 245H394.068L393.144 242.956ZM392.78 242.144L390.932 238.042L389.07 242.144H392.78ZM402.701 245L400.909 242.508C400.667 242.527 400.485 242.536 400.363 242.536H398.291V245H397.283V237.09H400.363C401.39 237.09 402.197 237.333 402.785 237.818C403.373 238.294 403.667 238.961 403.667 239.82C403.667 240.427 403.509 240.945 403.191 241.374C402.883 241.803 402.44 242.116 401.861 242.312L403.793 245H402.701ZM400.307 241.71C401.063 241.71 401.642 241.547 402.043 241.22C402.454 240.893 402.659 240.427 402.659 239.82C402.659 239.213 402.459 238.747 402.057 238.42C401.656 238.093 401.073 237.93 400.307 237.93H398.291V241.71H400.307Z" fill="black"/>
</svg>
